G04 #@! TF.FileFunction,Legend,Top*
%FSLAX46Y46*%
G04 Gerber Fmt 4.6, Leading zero omitted, Abs format (unit mm)*
G04 Created by KiCad (PCBNEW 4.1.0-alpha+201608101232+7015~46~ubuntu14.04.1-product) date Wed Aug 17 23:57:45 2016*
%MOMM*%
%LPD*%
G01*
G04 APERTURE LIST*
%ADD10C,0.100000*%
%ADD11C,0.150000*%
%ADD12C,0.200000*%
%ADD13C,0.152400*%
G04 APERTURE END LIST*
D10*
D11*
X184344761Y-62321428D02*
X184392380Y-62178571D01*
X184392380Y-61940476D01*
X184344761Y-61845238D01*
X184297142Y-61797619D01*
X184201904Y-61750000D01*
X184106666Y-61750000D01*
X184011428Y-61797619D01*
X183963809Y-61845238D01*
X183916190Y-61940476D01*
X183868571Y-62130952D01*
X183820952Y-62226190D01*
X183773333Y-62273809D01*
X183678095Y-62321428D01*
X183582857Y-62321428D01*
X183487619Y-62273809D01*
X183440000Y-62226190D01*
X183392380Y-62130952D01*
X183392380Y-61892857D01*
X183440000Y-61750000D01*
X183725714Y-61464285D02*
X183725714Y-61083333D01*
X183392380Y-61321428D02*
X184249523Y-61321428D01*
X184344761Y-61273809D01*
X184392380Y-61178571D01*
X184392380Y-61083333D01*
X184422380Y-66167619D02*
X183422380Y-66167619D01*
X183422380Y-65929523D01*
X183470000Y-65786666D01*
X183565238Y-65691428D01*
X183660476Y-65643809D01*
X183850952Y-65596190D01*
X183993809Y-65596190D01*
X184184285Y-65643809D01*
X184279523Y-65691428D01*
X184374761Y-65786666D01*
X184422380Y-65929523D01*
X184422380Y-66167619D01*
X184422380Y-65167619D02*
X183755714Y-65167619D01*
X183946190Y-65167619D02*
X183850952Y-65120000D01*
X183803333Y-65072380D01*
X183755714Y-64977142D01*
X183755714Y-64881904D01*
X183517619Y-64596190D02*
X183470000Y-64548571D01*
X183422380Y-64453333D01*
X183422380Y-64215238D01*
X183470000Y-64120000D01*
X183517619Y-64072380D01*
X183612857Y-64024761D01*
X183708095Y-64024761D01*
X183850952Y-64072380D01*
X184422380Y-64643809D01*
X184422380Y-64024761D01*
D12*
X176535714Y-71947142D02*
X176535714Y-71032857D01*
X184045714Y-77067142D02*
X184045714Y-76152857D01*
X184502857Y-76610000D02*
X183588571Y-76610000D01*
D11*
X184442380Y-69767619D02*
X183442380Y-69767619D01*
X183442380Y-69529523D01*
X183490000Y-69386666D01*
X183585238Y-69291428D01*
X183680476Y-69243809D01*
X183870952Y-69196190D01*
X184013809Y-69196190D01*
X184204285Y-69243809D01*
X184299523Y-69291428D01*
X184394761Y-69386666D01*
X184442380Y-69529523D01*
X184442380Y-69767619D01*
X184442380Y-68767619D02*
X183775714Y-68767619D01*
X183966190Y-68767619D02*
X183870952Y-68720000D01*
X183823333Y-68672380D01*
X183775714Y-68577142D01*
X183775714Y-68481904D01*
X184442380Y-67624761D02*
X184442380Y-68196190D01*
X184442380Y-67910476D02*
X183442380Y-67910476D01*
X183585238Y-68005714D01*
X183680476Y-68100952D01*
X183728095Y-68196190D01*
X109332380Y-81020476D02*
X109332380Y-80449047D01*
X110332380Y-80734761D02*
X109332380Y-80734761D01*
X110332380Y-80210952D02*
X109665714Y-79687142D01*
X109665714Y-80210952D02*
X110332380Y-79687142D01*
X110322380Y-84455238D02*
X109846190Y-84788571D01*
X110322380Y-85026666D02*
X109322380Y-85026666D01*
X109322380Y-84645714D01*
X109370000Y-84550476D01*
X109417619Y-84502857D01*
X109512857Y-84455238D01*
X109655714Y-84455238D01*
X109750952Y-84502857D01*
X109798571Y-84550476D01*
X109846190Y-84645714D01*
X109846190Y-85026666D01*
X110322380Y-84121904D02*
X109655714Y-83598095D01*
X109655714Y-84121904D02*
X110322380Y-83598095D01*
X110342380Y-89933333D02*
X109342380Y-89933333D01*
X109342380Y-89552380D01*
X109390000Y-89457142D01*
X109437619Y-89409523D01*
X109532857Y-89361904D01*
X109675714Y-89361904D01*
X109770952Y-89409523D01*
X109818571Y-89457142D01*
X109866190Y-89552380D01*
X109866190Y-89933333D01*
X109342380Y-89028571D02*
X110342380Y-88790476D01*
X109628095Y-88600000D01*
X110342380Y-88409523D01*
X109342380Y-88171428D01*
X110342380Y-87219047D02*
X109866190Y-87552380D01*
X110342380Y-87790476D02*
X109342380Y-87790476D01*
X109342380Y-87409523D01*
X109390000Y-87314285D01*
X109437619Y-87266666D01*
X109532857Y-87219047D01*
X109675714Y-87219047D01*
X109770952Y-87266666D01*
X109818571Y-87314285D01*
X109866190Y-87409523D01*
X109866190Y-87790476D01*
X143452380Y-59320476D02*
X143452380Y-59796666D01*
X143928571Y-59844285D01*
X143880952Y-59796666D01*
X143833333Y-59701428D01*
X143833333Y-59463333D01*
X143880952Y-59368095D01*
X143928571Y-59320476D01*
X144023809Y-59272857D01*
X144261904Y-59272857D01*
X144357142Y-59320476D01*
X144404761Y-59368095D01*
X144452380Y-59463333D01*
X144452380Y-59701428D01*
X144404761Y-59796666D01*
X144357142Y-59844285D01*
X143452380Y-58987142D02*
X144452380Y-58653809D01*
X143452380Y-58320476D01*
X143567619Y-55030476D02*
X143520000Y-54982857D01*
X143472380Y-54887619D01*
X143472380Y-54649523D01*
X143520000Y-54554285D01*
X143567619Y-54506666D01*
X143662857Y-54459047D01*
X143758095Y-54459047D01*
X143900952Y-54506666D01*
X144472380Y-55078095D01*
X144472380Y-54459047D01*
X143805714Y-53601904D02*
X144472380Y-53601904D01*
X143424761Y-53840000D02*
X144139047Y-54078095D01*
X144139047Y-53459047D01*
X143472380Y-53220952D02*
X144472380Y-52887619D01*
X143472380Y-52554285D01*
D12*
X184186666Y-134556190D02*
X184186666Y-134080000D01*
X184472380Y-134651428D02*
X183472380Y-134318095D01*
X184472380Y-133984761D01*
X183472380Y-133794285D02*
X183472380Y-133222857D01*
X184472380Y-133508571D02*
X183472380Y-133508571D01*
X184472380Y-132889523D02*
X183472380Y-132889523D01*
X184186666Y-132556190D01*
X183472380Y-132222857D01*
X184472380Y-132222857D01*
X183948571Y-131746666D02*
X183948571Y-131413333D01*
X184472380Y-131270476D02*
X184472380Y-131746666D01*
X183472380Y-131746666D01*
X183472380Y-131270476D01*
X183520000Y-130318095D02*
X183472380Y-130413333D01*
X183472380Y-130556190D01*
X183520000Y-130699047D01*
X183615238Y-130794285D01*
X183710476Y-130841904D01*
X183900952Y-130889523D01*
X184043809Y-130889523D01*
X184234285Y-130841904D01*
X184329523Y-130794285D01*
X184424761Y-130699047D01*
X184472380Y-130556190D01*
X184472380Y-130460952D01*
X184424761Y-130318095D01*
X184377142Y-130270476D01*
X184043809Y-130270476D01*
X184043809Y-130460952D01*
X184186666Y-129889523D02*
X184186666Y-129413333D01*
X184472380Y-129984761D02*
X183472380Y-129651428D01*
X184472380Y-129318095D01*
X183472380Y-129080000D02*
X183472380Y-128460952D01*
X183853333Y-128794285D01*
X183853333Y-128651428D01*
X183900952Y-128556190D01*
X183948571Y-128508571D01*
X184043809Y-128460952D01*
X184281904Y-128460952D01*
X184377142Y-128508571D01*
X184424761Y-128556190D01*
X184472380Y-128651428D01*
X184472380Y-128937142D01*
X184424761Y-129032380D01*
X184377142Y-129080000D01*
X183567619Y-128080000D02*
X183520000Y-128032380D01*
X183472380Y-127937142D01*
X183472380Y-127699047D01*
X183520000Y-127603809D01*
X183567619Y-127556190D01*
X183662857Y-127508571D01*
X183758095Y-127508571D01*
X183900952Y-127556190D01*
X184472380Y-128127619D01*
X184472380Y-127508571D01*
X183900952Y-126937142D02*
X183853333Y-127032380D01*
X183805714Y-127080000D01*
X183710476Y-127127619D01*
X183662857Y-127127619D01*
X183567619Y-127080000D01*
X183520000Y-127032380D01*
X183472380Y-126937142D01*
X183472380Y-126746666D01*
X183520000Y-126651428D01*
X183567619Y-126603809D01*
X183662857Y-126556190D01*
X183710476Y-126556190D01*
X183805714Y-126603809D01*
X183853333Y-126651428D01*
X183900952Y-126746666D01*
X183900952Y-126937142D01*
X183948571Y-127032380D01*
X183996190Y-127080000D01*
X184091428Y-127127619D01*
X184281904Y-127127619D01*
X184377142Y-127080000D01*
X184424761Y-127032380D01*
X184472380Y-126937142D01*
X184472380Y-126746666D01*
X184424761Y-126651428D01*
X184377142Y-126603809D01*
X184281904Y-126556190D01*
X184091428Y-126556190D01*
X183996190Y-126603809D01*
X183948571Y-126651428D01*
X183900952Y-126746666D01*
X184091428Y-126127619D02*
X184091428Y-125365714D01*
X184472380Y-124889523D02*
X183472380Y-124889523D01*
X184186666Y-124556190D01*
X183472380Y-124222857D01*
X184472380Y-124222857D01*
X184472380Y-123603809D02*
X184424761Y-123699047D01*
X184377142Y-123746666D01*
X184281904Y-123794285D01*
X183996190Y-123794285D01*
X183900952Y-123746666D01*
X183853333Y-123699047D01*
X183805714Y-123603809D01*
X183805714Y-123460952D01*
X183853333Y-123365714D01*
X183900952Y-123318095D01*
X183996190Y-123270476D01*
X184281904Y-123270476D01*
X184377142Y-123318095D01*
X184424761Y-123365714D01*
X184472380Y-123460952D01*
X184472380Y-123603809D01*
X183805714Y-122984761D02*
X183805714Y-122603809D01*
X183472380Y-122841904D02*
X184329523Y-122841904D01*
X184424761Y-122794285D01*
X184472380Y-122699047D01*
X184472380Y-122603809D01*
X184472380Y-122127619D02*
X184424761Y-122222857D01*
X184377142Y-122270476D01*
X184281904Y-122318095D01*
X183996190Y-122318095D01*
X183900952Y-122270476D01*
X183853333Y-122222857D01*
X183805714Y-122127619D01*
X183805714Y-121984761D01*
X183853333Y-121889523D01*
X183900952Y-121841904D01*
X183996190Y-121794285D01*
X184281904Y-121794285D01*
X184377142Y-121841904D01*
X184424761Y-121889523D01*
X184472380Y-121984761D01*
X184472380Y-122127619D01*
X184472380Y-121365714D02*
X183805714Y-121365714D01*
X183996190Y-121365714D02*
X183900952Y-121318095D01*
X183853333Y-121270476D01*
X183805714Y-121175238D01*
X183805714Y-121080000D01*
X184091428Y-120746666D02*
X184091428Y-119984761D01*
X183948571Y-119175238D02*
X183996190Y-119032380D01*
X184043809Y-118984761D01*
X184139047Y-118937142D01*
X184281904Y-118937142D01*
X184377142Y-118984761D01*
X184424761Y-119032380D01*
X184472380Y-119127619D01*
X184472380Y-119508571D01*
X183472380Y-119508571D01*
X183472380Y-119175238D01*
X183520000Y-119080000D01*
X183567619Y-119032380D01*
X183662857Y-118984761D01*
X183758095Y-118984761D01*
X183853333Y-119032380D01*
X183900952Y-119080000D01*
X183948571Y-119175238D01*
X183948571Y-119508571D01*
X184472380Y-118365714D02*
X184424761Y-118460952D01*
X184377142Y-118508571D01*
X184281904Y-118556190D01*
X183996190Y-118556190D01*
X183900952Y-118508571D01*
X183853333Y-118460952D01*
X183805714Y-118365714D01*
X183805714Y-118222857D01*
X183853333Y-118127619D01*
X183900952Y-118080000D01*
X183996190Y-118032380D01*
X184281904Y-118032380D01*
X184377142Y-118080000D01*
X184424761Y-118127619D01*
X184472380Y-118222857D01*
X184472380Y-118365714D01*
X184472380Y-117175238D02*
X183948571Y-117175238D01*
X183853333Y-117222857D01*
X183805714Y-117318095D01*
X183805714Y-117508571D01*
X183853333Y-117603809D01*
X184424761Y-117175238D02*
X184472380Y-117270476D01*
X184472380Y-117508571D01*
X184424761Y-117603809D01*
X184329523Y-117651428D01*
X184234285Y-117651428D01*
X184139047Y-117603809D01*
X184091428Y-117508571D01*
X184091428Y-117270476D01*
X184043809Y-117175238D01*
X184472380Y-116699047D02*
X183805714Y-116699047D01*
X183996190Y-116699047D02*
X183900952Y-116651428D01*
X183853333Y-116603809D01*
X183805714Y-116508571D01*
X183805714Y-116413333D01*
X184472380Y-115651428D02*
X183472380Y-115651428D01*
X184424761Y-115651428D02*
X184472380Y-115746666D01*
X184472380Y-115937142D01*
X184424761Y-116032380D01*
X184377142Y-116080000D01*
X184281904Y-116127619D01*
X183996190Y-116127619D01*
X183900952Y-116080000D01*
X183853333Y-116032380D01*
X183805714Y-115937142D01*
X183805714Y-115746666D01*
X183853333Y-115651428D01*
D11*
X156107619Y-55030476D02*
X156060000Y-54982857D01*
X156012380Y-54887619D01*
X156012380Y-54649523D01*
X156060000Y-54554285D01*
X156107619Y-54506666D01*
X156202857Y-54459047D01*
X156298095Y-54459047D01*
X156440952Y-54506666D01*
X157012380Y-55078095D01*
X157012380Y-54459047D01*
X156345714Y-53601904D02*
X157012380Y-53601904D01*
X155964761Y-53840000D02*
X156679047Y-54078095D01*
X156679047Y-53459047D01*
X156012380Y-53220952D02*
X157012380Y-52887619D01*
X156012380Y-52554285D01*
X155992380Y-59320476D02*
X155992380Y-59796666D01*
X156468571Y-59844285D01*
X156420952Y-59796666D01*
X156373333Y-59701428D01*
X156373333Y-59463333D01*
X156420952Y-59368095D01*
X156468571Y-59320476D01*
X156563809Y-59272857D01*
X156801904Y-59272857D01*
X156897142Y-59320476D01*
X156944761Y-59368095D01*
X156992380Y-59463333D01*
X156992380Y-59701428D01*
X156944761Y-59796666D01*
X156897142Y-59844285D01*
X155992380Y-58987142D02*
X156992380Y-58653809D01*
X155992380Y-58320476D01*
X158172857Y-61397142D02*
X157872857Y-60968571D01*
X157658571Y-61397142D02*
X157658571Y-60497142D01*
X158001428Y-60497142D01*
X158087142Y-60540000D01*
X158130000Y-60582857D01*
X158172857Y-60668571D01*
X158172857Y-60797142D01*
X158130000Y-60882857D01*
X158087142Y-60925714D01*
X158001428Y-60968571D01*
X157658571Y-60968571D01*
X158558571Y-60925714D02*
X158858571Y-60925714D01*
X158987142Y-61397142D02*
X158558571Y-61397142D01*
X158558571Y-60497142D01*
X158987142Y-60497142D01*
X159330000Y-61354285D02*
X159458571Y-61397142D01*
X159672857Y-61397142D01*
X159758571Y-61354285D01*
X159801428Y-61311428D01*
X159844285Y-61225714D01*
X159844285Y-61140000D01*
X159801428Y-61054285D01*
X159758571Y-61011428D01*
X159672857Y-60968571D01*
X159501428Y-60925714D01*
X159415714Y-60882857D01*
X159372857Y-60840000D01*
X159330000Y-60754285D01*
X159330000Y-60668571D01*
X159372857Y-60582857D01*
X159415714Y-60540000D01*
X159501428Y-60497142D01*
X159715714Y-60497142D01*
X159844285Y-60540000D01*
X160230000Y-60925714D02*
X160530000Y-60925714D01*
X160658571Y-61397142D02*
X160230000Y-61397142D01*
X160230000Y-60497142D01*
X160658571Y-60497142D01*
X160915714Y-60497142D02*
X161430000Y-60497142D01*
X161172857Y-61397142D02*
X161172857Y-60497142D01*
X177980000Y-66025000D02*
X176780000Y-66025000D01*
X176780000Y-64275000D02*
X177980000Y-64275000D01*
X179580000Y-65910000D02*
X182280000Y-65910000D01*
X179580000Y-64410000D02*
X182280000Y-64410000D01*
X181080000Y-65310000D02*
X181080000Y-65060000D01*
X181080000Y-65060000D02*
X180930000Y-65210000D01*
X180830000Y-64810000D02*
X180830000Y-65510000D01*
X181180000Y-65160000D02*
X181530000Y-65160000D01*
X180830000Y-65160000D02*
X181180000Y-64810000D01*
X181180000Y-64810000D02*
X181180000Y-65510000D01*
X181180000Y-65510000D02*
X180830000Y-65160000D01*
X179590980Y-62500000D02*
X182290980Y-62500000D01*
X179590980Y-61000000D02*
X182290980Y-61000000D01*
X181090980Y-61900000D02*
X181090980Y-61650000D01*
X181090980Y-61650000D02*
X180940980Y-61800000D01*
X180840980Y-61400000D02*
X180840980Y-62100000D01*
X181190980Y-61750000D02*
X181540980Y-61750000D01*
X180840980Y-61750000D02*
X181190980Y-61400000D01*
X181190980Y-61400000D02*
X181190980Y-62100000D01*
X181190980Y-62100000D02*
X180840980Y-61750000D01*
X179590000Y-69410000D02*
X182290000Y-69410000D01*
X179590000Y-67910000D02*
X182290000Y-67910000D01*
X181090000Y-68810000D02*
X181090000Y-68560000D01*
X181090000Y-68560000D02*
X180940000Y-68710000D01*
X180840000Y-68310000D02*
X180840000Y-69010000D01*
X181190000Y-68660000D02*
X181540000Y-68660000D01*
X180840000Y-68660000D02*
X181190000Y-68310000D01*
X181190000Y-68310000D02*
X181190000Y-69010000D01*
X181190000Y-69010000D02*
X180840000Y-68660000D01*
X177980000Y-62625000D02*
X176780000Y-62625000D01*
X176780000Y-60875000D02*
X177980000Y-60875000D01*
X177980000Y-69545000D02*
X176780000Y-69545000D01*
X176780000Y-67795000D02*
X177980000Y-67795000D01*
D13*
X179405000Y-40175000D02*
X179405000Y-46375000D01*
X171305000Y-40175000D02*
X179405000Y-40175000D01*
X171305000Y-46375000D02*
X171305000Y-40175000D01*
X179405000Y-46375000D02*
X171305000Y-46375000D01*
X130102488Y-73820000D02*
G75*
G03X130102488Y-73820000I-262488J0D01*
G01*
D11*
X129105000Y-74835000D02*
X129430000Y-74835000D01*
X129105000Y-70185000D02*
X129430000Y-70185000D01*
X139055000Y-70185000D02*
X138730000Y-70185000D01*
X139055000Y-74835000D02*
X138730000Y-74835000D01*
X129105000Y-74835000D02*
X129105000Y-70185000D01*
X139055000Y-74835000D02*
X139055000Y-70185000D01*
X129430000Y-74835000D02*
X129430000Y-75910000D01*
D13*
X163769258Y-66090000D02*
G75*
G03X163769258Y-66090000I-269258J0D01*
G01*
D11*
X164175000Y-66635000D02*
X164175000Y-66960000D01*
X171425000Y-66635000D02*
X171425000Y-66960000D01*
X171425000Y-73885000D02*
X171425000Y-73560000D01*
X164175000Y-73885000D02*
X164175000Y-73560000D01*
X164175000Y-66635000D02*
X164500000Y-66635000D01*
X164175000Y-73885000D02*
X164500000Y-73885000D01*
X171425000Y-73885000D02*
X171100000Y-73885000D01*
X171425000Y-66635000D02*
X171100000Y-66635000D01*
X164175000Y-66960000D02*
X162750000Y-66960000D01*
D13*
X171315000Y-40175000D02*
X171315000Y-46375000D01*
X163215000Y-40175000D02*
X171315000Y-40175000D01*
X163215000Y-46375000D02*
X163215000Y-40175000D01*
X171315000Y-46375000D02*
X163215000Y-46375000D01*
X163205000Y-40175000D02*
X163205000Y-46375000D01*
X155105000Y-40175000D02*
X163205000Y-40175000D01*
X155105000Y-46375000D02*
X155105000Y-40175000D01*
X163205000Y-46375000D02*
X155105000Y-46375000D01*
X155105000Y-40175000D02*
X155105000Y-46375000D01*
X147005000Y-40175000D02*
X155105000Y-40175000D01*
X147005000Y-46375000D02*
X147005000Y-40175000D01*
X155105000Y-46375000D02*
X147005000Y-46375000D01*
D11*
X122810000Y-114430000D02*
X123810000Y-114430000D01*
X123810000Y-112730000D02*
X122810000Y-112730000D01*
D13*
X111500000Y-115900000D02*
X111500000Y-120900000D01*
X112000000Y-115400000D02*
X113600000Y-115400000D01*
X112000000Y-115900000D02*
X112000000Y-115400000D01*
X111500000Y-115900000D02*
X112000000Y-115900000D01*
X118700000Y-115400000D02*
X117800000Y-116300000D01*
X119100000Y-115800000D02*
X118700000Y-115400000D01*
X118200000Y-116700000D02*
X119100000Y-115800000D01*
X111400000Y-122600000D02*
X112300000Y-121700000D01*
X111800000Y-123000000D02*
X111400000Y-122600000D01*
X112700000Y-122100000D02*
X111800000Y-123000000D01*
X119100000Y-123000000D02*
X117000000Y-123000000D01*
X119100000Y-117600000D02*
X119100000Y-123000000D01*
X116900000Y-115400000D02*
X119100000Y-117600000D01*
X113600000Y-123000000D02*
X111500000Y-120900000D01*
D11*
X157020000Y-70200000D02*
X157020000Y-69200000D01*
X155320000Y-69200000D02*
X155320000Y-70200000D01*
X125480000Y-76320000D02*
X125480000Y-75320000D01*
X123780000Y-75320000D02*
X123780000Y-76320000D01*
X111975000Y-57275000D02*
X111975000Y-58275000D01*
X113675000Y-58275000D02*
X113675000Y-57275000D01*
X112440000Y-71940000D02*
X112440000Y-70940000D01*
X110740000Y-70940000D02*
X110740000Y-71940000D01*
X126975000Y-59050000D02*
X126975000Y-60050000D01*
X128675000Y-60050000D02*
X128675000Y-59050000D01*
X121840000Y-81970000D02*
X122840000Y-81970000D01*
X122840000Y-80270000D02*
X121840000Y-80270000D01*
X126840000Y-81970000D02*
X127840000Y-81970000D01*
X127840000Y-80270000D02*
X126840000Y-80270000D01*
X131840000Y-81970000D02*
X132840000Y-81970000D01*
X132840000Y-80270000D02*
X131840000Y-80270000D01*
X136940000Y-81970000D02*
X137940000Y-81970000D01*
X137940000Y-80270000D02*
X136940000Y-80270000D01*
X144500000Y-118850000D02*
X145500000Y-118850000D01*
X145500000Y-117150000D02*
X144500000Y-117150000D01*
X153660000Y-81930000D02*
X154660000Y-81930000D01*
X154660000Y-80230000D02*
X153660000Y-80230000D01*
X158610000Y-81930000D02*
X159610000Y-81930000D01*
X159610000Y-80230000D02*
X158610000Y-80230000D01*
X163690000Y-81880000D02*
X164690000Y-81880000D01*
X164690000Y-80180000D02*
X163690000Y-80180000D01*
X168730000Y-81830000D02*
X169730000Y-81830000D01*
X169730000Y-80130000D02*
X168730000Y-80130000D01*
X171450000Y-118100000D02*
X172450000Y-118100000D01*
X172450000Y-116400000D02*
X171450000Y-116400000D01*
X150500000Y-113850000D02*
X151500000Y-113850000D01*
X151500000Y-112150000D02*
X150500000Y-112150000D01*
X177730000Y-98780000D02*
X178730000Y-98780000D01*
X178730000Y-97080000D02*
X177730000Y-97080000D01*
X177770000Y-104770000D02*
X178770000Y-104770000D01*
X178770000Y-103070000D02*
X177770000Y-103070000D01*
X177800000Y-110770000D02*
X178800000Y-110770000D01*
X178800000Y-109070000D02*
X177800000Y-109070000D01*
X177750000Y-116770000D02*
X178750000Y-116770000D01*
X178750000Y-115070000D02*
X177750000Y-115070000D01*
X123500000Y-52150000D02*
X122500000Y-52150000D01*
X122500000Y-53850000D02*
X123500000Y-53850000D01*
X116860000Y-52560000D02*
X116860000Y-53560000D01*
X118560000Y-53560000D02*
X118560000Y-52560000D01*
X113110000Y-52560000D02*
X113110000Y-53560000D01*
X114810000Y-53560000D02*
X114810000Y-52560000D01*
X149750000Y-89330000D02*
X149750000Y-88330000D01*
X148050000Y-88330000D02*
X148050000Y-89330000D01*
X181440000Y-89380000D02*
X181440000Y-88380000D01*
X179740000Y-88380000D02*
X179740000Y-89380000D01*
X153830000Y-48170000D02*
X153830000Y-49170000D01*
X155530000Y-49170000D02*
X155530000Y-48170000D01*
X148190000Y-48070000D02*
X148190000Y-49070000D01*
X149890000Y-49070000D02*
X149890000Y-48070000D01*
X141540000Y-47880000D02*
X141540000Y-48880000D01*
X143240000Y-48880000D02*
X143240000Y-47880000D01*
X135730000Y-47960000D02*
X135730000Y-48960000D01*
X137430000Y-48960000D02*
X137430000Y-47960000D01*
X114230980Y-83650000D02*
X111530980Y-83650000D01*
X114230980Y-85150000D02*
X111530980Y-85150000D01*
X112730980Y-84250000D02*
X112730980Y-84500000D01*
X112730980Y-84500000D02*
X112880980Y-84350000D01*
X112980980Y-84750000D02*
X112980980Y-84050000D01*
X112630980Y-84400000D02*
X112280980Y-84400000D01*
X112980980Y-84400000D02*
X112630980Y-84750000D01*
X112630980Y-84750000D02*
X112630980Y-84050000D01*
X112630980Y-84050000D02*
X112980980Y-84400000D01*
X114270000Y-79640000D02*
X111570000Y-79640000D01*
X114270000Y-81140000D02*
X111570000Y-81140000D01*
X112770000Y-80240000D02*
X112770000Y-80490000D01*
X112770000Y-80490000D02*
X112920000Y-80340000D01*
X113020000Y-80740000D02*
X113020000Y-80040000D01*
X112670000Y-80390000D02*
X112320000Y-80390000D01*
X113020000Y-80390000D02*
X112670000Y-80740000D01*
X112670000Y-80740000D02*
X112670000Y-80040000D01*
X112670000Y-80040000D02*
X113020000Y-80390000D01*
X122657500Y-85335000D02*
X123038500Y-85335000D01*
X121641500Y-85335000D02*
X122022500Y-85335000D01*
X122022500Y-85335000D02*
X122657500Y-84954000D01*
X122657500Y-84954000D02*
X122657500Y-85716000D01*
X122657500Y-85716000D02*
X122022500Y-85335000D01*
X122022500Y-84827000D02*
X122022500Y-85843000D01*
X120340000Y-86235000D02*
X123880000Y-86235000D01*
X120340000Y-84435000D02*
X123880000Y-84435000D01*
X127657500Y-85335000D02*
X128038500Y-85335000D01*
X126641500Y-85335000D02*
X127022500Y-85335000D01*
X127022500Y-85335000D02*
X127657500Y-84954000D01*
X127657500Y-84954000D02*
X127657500Y-85716000D01*
X127657500Y-85716000D02*
X127022500Y-85335000D01*
X127022500Y-84827000D02*
X127022500Y-85843000D01*
X125340000Y-86235000D02*
X128880000Y-86235000D01*
X125340000Y-84435000D02*
X128880000Y-84435000D01*
X132657500Y-85335000D02*
X133038500Y-85335000D01*
X131641500Y-85335000D02*
X132022500Y-85335000D01*
X132022500Y-85335000D02*
X132657500Y-84954000D01*
X132657500Y-84954000D02*
X132657500Y-85716000D01*
X132657500Y-85716000D02*
X132022500Y-85335000D01*
X132022500Y-84827000D02*
X132022500Y-85843000D01*
X130340000Y-86235000D02*
X133880000Y-86235000D01*
X130340000Y-84435000D02*
X133880000Y-84435000D01*
X137757500Y-85335000D02*
X138138500Y-85335000D01*
X136741500Y-85335000D02*
X137122500Y-85335000D01*
X137122500Y-85335000D02*
X137757500Y-84954000D01*
X137757500Y-84954000D02*
X137757500Y-85716000D01*
X137757500Y-85716000D02*
X137122500Y-85335000D01*
X137122500Y-84827000D02*
X137122500Y-85843000D01*
X135440000Y-86235000D02*
X138980000Y-86235000D01*
X135440000Y-84435000D02*
X138980000Y-84435000D01*
D13*
X129750000Y-126700000D02*
X129750000Y-129300000D01*
X129550000Y-126800000D02*
X129550000Y-129300000D01*
X126750000Y-129300000D02*
X133750000Y-129300000D01*
X126750000Y-126700000D02*
X133750000Y-126700000D01*
X129750000Y-123700000D02*
X129750000Y-126300000D01*
X129550000Y-123800000D02*
X129550000Y-126300000D01*
X126750000Y-126300000D02*
X133750000Y-126300000D01*
X126750000Y-123700000D02*
X133750000Y-123700000D01*
X141750000Y-129300000D02*
X141750000Y-126700000D01*
X141950000Y-129200000D02*
X141950000Y-126700000D01*
X144750000Y-126700000D02*
X137750000Y-126700000D01*
X144750000Y-129300000D02*
X137750000Y-129300000D01*
X141750000Y-126300000D02*
X141750000Y-123700000D01*
X141950000Y-126200000D02*
X141950000Y-123700000D01*
X144750000Y-123700000D02*
X137750000Y-123700000D01*
X144750000Y-126300000D02*
X137750000Y-126300000D01*
D11*
X154427500Y-85335000D02*
X154808500Y-85335000D01*
X153411500Y-85335000D02*
X153792500Y-85335000D01*
X153792500Y-85335000D02*
X154427500Y-84954000D01*
X154427500Y-84954000D02*
X154427500Y-85716000D01*
X154427500Y-85716000D02*
X153792500Y-85335000D01*
X153792500Y-84827000D02*
X153792500Y-85843000D01*
X152110000Y-86235000D02*
X155650000Y-86235000D01*
X152110000Y-84435000D02*
X155650000Y-84435000D01*
X159472500Y-85335000D02*
X159853500Y-85335000D01*
X158456500Y-85335000D02*
X158837500Y-85335000D01*
X158837500Y-85335000D02*
X159472500Y-84954000D01*
X159472500Y-84954000D02*
X159472500Y-85716000D01*
X159472500Y-85716000D02*
X158837500Y-85335000D01*
X158837500Y-84827000D02*
X158837500Y-85843000D01*
X157155000Y-86235000D02*
X160695000Y-86235000D01*
X157155000Y-84435000D02*
X160695000Y-84435000D01*
X164522500Y-85335000D02*
X164903500Y-85335000D01*
X163506500Y-85335000D02*
X163887500Y-85335000D01*
X163887500Y-85335000D02*
X164522500Y-84954000D01*
X164522500Y-84954000D02*
X164522500Y-85716000D01*
X164522500Y-85716000D02*
X163887500Y-85335000D01*
X163887500Y-84827000D02*
X163887500Y-85843000D01*
X162205000Y-86235000D02*
X165745000Y-86235000D01*
X162205000Y-84435000D02*
X165745000Y-84435000D01*
X169522500Y-85335000D02*
X169903500Y-85335000D01*
X168506500Y-85335000D02*
X168887500Y-85335000D01*
X168887500Y-85335000D02*
X169522500Y-84954000D01*
X169522500Y-84954000D02*
X169522500Y-85716000D01*
X169522500Y-85716000D02*
X168887500Y-85335000D01*
X168887500Y-84827000D02*
X168887500Y-85843000D01*
X167205000Y-86235000D02*
X170745000Y-86235000D01*
X167205000Y-84435000D02*
X170745000Y-84435000D01*
D13*
X154500000Y-126700000D02*
X154500000Y-129300000D01*
X154300000Y-126800000D02*
X154300000Y-129300000D01*
X151500000Y-129300000D02*
X158500000Y-129300000D01*
X151500000Y-126700000D02*
X158500000Y-126700000D01*
X154500000Y-123700000D02*
X154500000Y-126300000D01*
X154300000Y-123800000D02*
X154300000Y-126300000D01*
X151500000Y-126300000D02*
X158500000Y-126300000D01*
X151500000Y-123700000D02*
X158500000Y-123700000D01*
X167550000Y-129300000D02*
X167550000Y-126700000D01*
X167750000Y-129200000D02*
X167750000Y-126700000D01*
X170550000Y-126700000D02*
X163550000Y-126700000D01*
X170550000Y-129300000D02*
X163550000Y-129300000D01*
X167550000Y-126300000D02*
X167550000Y-123700000D01*
X167750000Y-126200000D02*
X167750000Y-123700000D01*
X170550000Y-123700000D02*
X163550000Y-123700000D01*
X170550000Y-126300000D02*
X163550000Y-126300000D01*
D11*
X123392500Y-65825000D02*
X123773500Y-65825000D01*
X122376500Y-65825000D02*
X122757500Y-65825000D01*
X122757500Y-65825000D02*
X123392500Y-65444000D01*
X123392500Y-65444000D02*
X123392500Y-66206000D01*
X123392500Y-66206000D02*
X122757500Y-65825000D01*
X122757500Y-65317000D02*
X122757500Y-66333000D01*
X121075000Y-66725000D02*
X124615000Y-66725000D01*
X121075000Y-64925000D02*
X124615000Y-64925000D01*
X156430000Y-64510000D02*
X156430000Y-64760000D01*
X156430000Y-64010000D02*
X156430000Y-63760000D01*
X156430000Y-64010000D02*
X156780000Y-64510000D01*
X156780000Y-64510000D02*
X156080000Y-64510000D01*
X156080000Y-64510000D02*
X156430000Y-64010000D01*
X156780000Y-64010000D02*
X156080000Y-64010000D01*
X155630000Y-62960000D02*
X155630000Y-65360000D01*
X157230000Y-62960000D02*
X157230000Y-65360000D01*
X152890000Y-64510000D02*
X152890000Y-64760000D01*
X152890000Y-64010000D02*
X152890000Y-63760000D01*
X152890000Y-64010000D02*
X153240000Y-64510000D01*
X153240000Y-64510000D02*
X152540000Y-64510000D01*
X152540000Y-64510000D02*
X152890000Y-64010000D01*
X153240000Y-64010000D02*
X152540000Y-64010000D01*
X152090000Y-62960000D02*
X152090000Y-65360000D01*
X153690000Y-62960000D02*
X153690000Y-65360000D01*
X142160000Y-64490000D02*
X142160000Y-64740000D01*
X142160000Y-63990000D02*
X142160000Y-63740000D01*
X142160000Y-63990000D02*
X142510000Y-64490000D01*
X142510000Y-64490000D02*
X141810000Y-64490000D01*
X141810000Y-64490000D02*
X142160000Y-63990000D01*
X142510000Y-63990000D02*
X141810000Y-63990000D01*
X141360000Y-62940000D02*
X141360000Y-65340000D01*
X142960000Y-62940000D02*
X142960000Y-65340000D01*
X138560000Y-64470000D02*
X138560000Y-64720000D01*
X138560000Y-63970000D02*
X138560000Y-63720000D01*
X138560000Y-63970000D02*
X138910000Y-64470000D01*
X138910000Y-64470000D02*
X138210000Y-64470000D01*
X138210000Y-64470000D02*
X138560000Y-63970000D01*
X138910000Y-63970000D02*
X138210000Y-63970000D01*
X137760000Y-62920000D02*
X137760000Y-65320000D01*
X139360000Y-62920000D02*
X139360000Y-65320000D01*
X121120400Y-58272800D02*
X121120400Y-61727200D01*
X124879600Y-58272800D02*
X124879600Y-61727200D01*
X122500000Y-55850000D02*
X123500000Y-55850000D01*
X123500000Y-54150000D02*
X122500000Y-54150000D01*
D12*
X116175000Y-47125000D02*
X117575000Y-47125000D01*
X123375000Y-47125000D02*
X121975000Y-47125000D01*
X116175000Y-38125000D02*
X116175000Y-47125000D01*
X123375000Y-38125000D02*
X116175000Y-38125000D01*
X123375000Y-47125000D02*
X123375000Y-38125000D01*
D11*
X129450000Y-60150000D02*
X129450000Y-58950000D01*
X131200000Y-58950000D02*
X131200000Y-60150000D01*
X146395000Y-71075000D02*
X146395000Y-72275000D01*
X144645000Y-72275000D02*
X144645000Y-71075000D01*
X148895000Y-71075000D02*
X148895000Y-72275000D01*
X147145000Y-72275000D02*
X147145000Y-71075000D01*
X144045000Y-71025000D02*
X144045000Y-72225000D01*
X142295000Y-72225000D02*
X142295000Y-71025000D01*
X130215000Y-64850000D02*
X130215000Y-63650000D01*
X131965000Y-63650000D02*
X131965000Y-64850000D01*
X126540000Y-64850000D02*
X126540000Y-63650000D01*
X128290000Y-63650000D02*
X128290000Y-64850000D01*
X117515000Y-85210000D02*
X116315000Y-85210000D01*
X116315000Y-83460000D02*
X117515000Y-83460000D01*
X116355000Y-79460000D02*
X117555000Y-79460000D01*
X117555000Y-81210000D02*
X116355000Y-81210000D01*
X123400000Y-115275000D02*
X124600000Y-115275000D01*
X124600000Y-117025000D02*
X123400000Y-117025000D01*
X145600000Y-115875000D02*
X144400000Y-115875000D01*
X144400000Y-114125000D02*
X145600000Y-114125000D01*
X121860000Y-88435000D02*
X123060000Y-88435000D01*
X123060000Y-90185000D02*
X121860000Y-90185000D01*
X126665000Y-88435000D02*
X127865000Y-88435000D01*
X127865000Y-90185000D02*
X126665000Y-90185000D01*
X131565000Y-88465000D02*
X132765000Y-88465000D01*
X132765000Y-90215000D02*
X131565000Y-90215000D01*
X136765000Y-88465000D02*
X137965000Y-88465000D01*
X137965000Y-90215000D02*
X136765000Y-90215000D01*
X126205000Y-106090000D02*
X126205000Y-108090000D01*
X124055000Y-108090000D02*
X124055000Y-106090000D01*
X146075000Y-106100000D02*
X146075000Y-108100000D01*
X143925000Y-108100000D02*
X143925000Y-106100000D01*
X153885000Y-88535000D02*
X155085000Y-88535000D01*
X155085000Y-90285000D02*
X153885000Y-90285000D01*
X158505000Y-88505000D02*
X159705000Y-88505000D01*
X159705000Y-90255000D02*
X158505000Y-90255000D01*
X163505000Y-88505000D02*
X164705000Y-88505000D01*
X164705000Y-90255000D02*
X163505000Y-90255000D01*
X168505000Y-88505000D02*
X169705000Y-88505000D01*
X169705000Y-90255000D02*
X168505000Y-90255000D01*
X150450000Y-115125000D02*
X151650000Y-115125000D01*
X151650000Y-116875000D02*
X150450000Y-116875000D01*
X172550000Y-115625000D02*
X171350000Y-115625000D01*
X171350000Y-113875000D02*
X172550000Y-113875000D01*
X152525000Y-105930000D02*
X152525000Y-107930000D01*
X150375000Y-107930000D02*
X150375000Y-105930000D01*
X172075000Y-105950000D02*
X172075000Y-107950000D01*
X169925000Y-107950000D02*
X169925000Y-105950000D01*
X118525000Y-57150000D02*
X118525000Y-58350000D01*
X116775000Y-58350000D02*
X116775000Y-57150000D01*
X116045000Y-57150000D02*
X116045000Y-58350000D01*
X114295000Y-58350000D02*
X114295000Y-57150000D01*
X141615000Y-89300000D02*
X141615000Y-88100000D01*
X143365000Y-88100000D02*
X143365000Y-89300000D01*
X142610000Y-80095000D02*
X143810000Y-80095000D01*
X143810000Y-81845000D02*
X142610000Y-81845000D01*
X146465000Y-88140000D02*
X146465000Y-89340000D01*
X144715000Y-89340000D02*
X144715000Y-88140000D01*
X147340000Y-80095000D02*
X148540000Y-80095000D01*
X148540000Y-81845000D02*
X147340000Y-81845000D01*
X152755000Y-48030000D02*
X152755000Y-49230000D01*
X151005000Y-49230000D02*
X151005000Y-48030000D01*
X159025000Y-64870000D02*
X159025000Y-63670000D01*
X160775000Y-63670000D02*
X160775000Y-64870000D01*
X147035000Y-47930000D02*
X147035000Y-49130000D01*
X145285000Y-49130000D02*
X145285000Y-47930000D01*
X148465000Y-64860000D02*
X148465000Y-63660000D01*
X150215000Y-63660000D02*
X150215000Y-64860000D01*
X173065000Y-89510000D02*
X173065000Y-88310000D01*
X174815000Y-88310000D02*
X174815000Y-89510000D01*
X174210000Y-80105000D02*
X175410000Y-80105000D01*
X175410000Y-81855000D02*
X174210000Y-81855000D01*
X178085000Y-88310000D02*
X178085000Y-89510000D01*
X176335000Y-89510000D02*
X176335000Y-88310000D01*
X179050000Y-80105000D02*
X180250000Y-80105000D01*
X180250000Y-81855000D02*
X179050000Y-81855000D01*
X140385000Y-47630000D02*
X140385000Y-48830000D01*
X138635000Y-48830000D02*
X138635000Y-47630000D01*
X144835000Y-64840000D02*
X144835000Y-63640000D01*
X146585000Y-63640000D02*
X146585000Y-64840000D01*
X134525000Y-47800000D02*
X134525000Y-49000000D01*
X132775000Y-49000000D02*
X132775000Y-47800000D01*
X133955000Y-64820000D02*
X133955000Y-63620000D01*
X135705000Y-63620000D02*
X135705000Y-64820000D01*
X117225000Y-68050000D02*
X117225000Y-68025000D01*
X112575000Y-68050000D02*
X112575000Y-68025000D01*
X112575000Y-61300000D02*
X112575000Y-61325000D01*
X117225000Y-61300000D02*
X117225000Y-61325000D01*
X117225000Y-68050000D02*
X112575000Y-68050000D01*
X117225000Y-61300000D02*
X112575000Y-61300000D01*
X117225000Y-68025000D02*
X118300000Y-68025000D01*
X119114005Y-106030000D02*
G75*
G03X119114005Y-106030000I-364005J0D01*
G01*
X119550000Y-95180000D02*
X119550000Y-97630000D01*
X119550000Y-106880000D02*
X119550000Y-97680000D01*
X119550000Y-95180000D02*
X111950000Y-95180000D01*
X111950000Y-95180000D02*
X111950000Y-106880000D01*
X111950000Y-106880000D02*
X119550000Y-106880000D01*
X111099120Y-109300740D02*
X111099120Y-112699260D01*
X118599740Y-112699260D02*
X112600260Y-112699260D01*
X118599740Y-109300740D02*
X112600260Y-109300740D01*
X111099120Y-126200740D02*
X111099120Y-129599260D01*
X118599740Y-129599260D02*
X112600260Y-129599260D01*
X118599740Y-126200740D02*
X112600260Y-126200740D01*
X116309260Y-69019120D02*
X112910740Y-69019120D01*
X112910740Y-76519740D02*
X112910740Y-70520260D01*
X116309260Y-76519740D02*
X116309260Y-70520260D01*
X121809260Y-69029120D02*
X118410740Y-69029120D01*
X118410740Y-76529740D02*
X118410740Y-70530260D01*
X121809260Y-76529740D02*
X121809260Y-70530260D01*
X154569260Y-67549120D02*
X151170740Y-67549120D01*
X151170740Y-75049740D02*
X151170740Y-69050260D01*
X154569260Y-75049740D02*
X154569260Y-69050260D01*
D13*
X147025000Y-45375000D02*
X136625000Y-45375000D01*
X138925000Y-40175000D02*
X139025000Y-40175000D01*
X136625000Y-40175000D02*
X138925000Y-40175000D01*
X136625000Y-46375000D02*
X136625000Y-40175000D01*
X138925000Y-46375000D02*
X136625000Y-46375000D01*
X147025000Y-40175000D02*
X147025000Y-46375000D01*
X138925000Y-40175000D02*
X147025000Y-40175000D01*
X147025000Y-46375000D02*
X138925000Y-46375000D01*
X136625000Y-45375000D02*
X126225000Y-45375000D01*
X128525000Y-40175000D02*
X128625000Y-40175000D01*
X126225000Y-40175000D02*
X128525000Y-40175000D01*
X126225000Y-46375000D02*
X126225000Y-40175000D01*
X128525000Y-46375000D02*
X126225000Y-46375000D01*
X136625000Y-40175000D02*
X136625000Y-46375000D01*
X128525000Y-40175000D02*
X136625000Y-40175000D01*
X136625000Y-46375000D02*
X128525000Y-46375000D01*
X144566000Y-137840000D02*
X144566000Y-140050000D01*
X142534000Y-137840000D02*
X144566000Y-137840000D01*
X142534000Y-140050000D02*
X142534000Y-137840000D01*
X139486000Y-137840000D02*
X139486000Y-140050000D01*
X137454000Y-137840000D02*
X139486000Y-137840000D01*
X137454000Y-140050000D02*
X137454000Y-137840000D01*
X135930000Y-131490000D02*
X156250000Y-131490000D01*
X135930000Y-130550000D02*
X135930000Y-140050000D01*
X135930000Y-130550000D02*
X156250000Y-130550000D01*
X156250000Y-130550000D02*
X156250000Y-140050000D01*
X135930000Y-140050000D02*
X156250000Y-140050000D01*
X147614000Y-137840000D02*
X149646000Y-137840000D01*
X149646000Y-137840000D02*
X149646000Y-140050000D01*
X147614000Y-140050000D02*
X147614000Y-137840000D01*
X152694000Y-137840000D02*
X154726000Y-137840000D01*
X154726000Y-137840000D02*
X154726000Y-140050000D01*
X152694000Y-140050000D02*
X152694000Y-137840000D01*
X165016000Y-137840000D02*
X165016000Y-140050000D01*
X162984000Y-137840000D02*
X165016000Y-137840000D01*
X162984000Y-140050000D02*
X162984000Y-137840000D01*
X159936000Y-137840000D02*
X159936000Y-140050000D01*
X157904000Y-137840000D02*
X159936000Y-137840000D01*
X157904000Y-140050000D02*
X157904000Y-137840000D01*
X156380000Y-131490000D02*
X176700000Y-131490000D01*
X156380000Y-130550000D02*
X156380000Y-140050000D01*
X156380000Y-130550000D02*
X176700000Y-130550000D01*
X176700000Y-130550000D02*
X176700000Y-140050000D01*
X156380000Y-140050000D02*
X176700000Y-140050000D01*
X168064000Y-137840000D02*
X170096000Y-137840000D01*
X170096000Y-137840000D02*
X170096000Y-140050000D01*
X168064000Y-140050000D02*
X168064000Y-137840000D01*
X173144000Y-137840000D02*
X175176000Y-137840000D01*
X175176000Y-137840000D02*
X175176000Y-140050000D01*
X173144000Y-140050000D02*
X173144000Y-137840000D01*
X123996000Y-137840000D02*
X123996000Y-140050000D01*
X121964000Y-137840000D02*
X123996000Y-137840000D01*
X121964000Y-140050000D02*
X121964000Y-137840000D01*
X118916000Y-137840000D02*
X118916000Y-140050000D01*
X116884000Y-137840000D02*
X118916000Y-137840000D01*
X116884000Y-140050000D02*
X116884000Y-137840000D01*
X115360000Y-131490000D02*
X125520000Y-131490000D01*
X115360000Y-130550000D02*
X115360000Y-140050000D01*
X115360000Y-130550000D02*
X125520000Y-130550000D01*
X125520000Y-130550000D02*
X125520000Y-140050000D01*
X115360000Y-140050000D02*
X125520000Y-140050000D01*
X134286000Y-137840000D02*
X134286000Y-140050000D01*
X132254000Y-137840000D02*
X134286000Y-137840000D01*
X132254000Y-140050000D02*
X132254000Y-137840000D01*
X129206000Y-137840000D02*
X129206000Y-140050000D01*
X127174000Y-137840000D02*
X129206000Y-137840000D01*
X127174000Y-140050000D02*
X127174000Y-137840000D01*
X125650000Y-131490000D02*
X135810000Y-131490000D01*
X125650000Y-130550000D02*
X125650000Y-140050000D01*
X125650000Y-130550000D02*
X135810000Y-130550000D01*
X135810000Y-130550000D02*
X135810000Y-140050000D01*
X125650000Y-140050000D02*
X135810000Y-140050000D01*
D11*
X160610000Y-49025000D02*
X159410000Y-49025000D01*
X159410000Y-47275000D02*
X160610000Y-47275000D01*
X165680000Y-49025000D02*
X164480000Y-49025000D01*
X164480000Y-47275000D02*
X165680000Y-47275000D01*
X170940000Y-49035000D02*
X169740000Y-49035000D01*
X169740000Y-47285000D02*
X170940000Y-47285000D01*
X180330000Y-47275000D02*
X181530000Y-47275000D01*
X181530000Y-49025000D02*
X180330000Y-49025000D01*
X175000000Y-47275000D02*
X176200000Y-47275000D01*
X176200000Y-49025000D02*
X175000000Y-49025000D01*
X177520000Y-52800000D02*
G75*
G03X177520000Y-52800000I-200000J0D01*
G01*
X177800000Y-52400000D02*
X173500000Y-52400000D01*
X177800000Y-52400000D02*
X177800000Y-56400000D01*
X173500000Y-52400000D02*
X173500000Y-56400000D01*
X177800000Y-56400000D02*
X173500000Y-56400000D01*
X182810000Y-52800000D02*
G75*
G03X182810000Y-52800000I-200000J0D01*
G01*
X183090000Y-52400000D02*
X178790000Y-52400000D01*
X183090000Y-52400000D02*
X183090000Y-56400000D01*
X178790000Y-52400000D02*
X178790000Y-56400000D01*
X183090000Y-56400000D02*
X178790000Y-56400000D01*
X172205000Y-52860000D02*
G75*
G03X172205000Y-52860000I-200000J0D01*
G01*
X172485000Y-52460000D02*
X168185000Y-52460000D01*
X172485000Y-52460000D02*
X172485000Y-56460000D01*
X168185000Y-52460000D02*
X168185000Y-56460000D01*
X172485000Y-56460000D02*
X168185000Y-56460000D01*
X166980000Y-52810000D02*
G75*
G03X166980000Y-52810000I-200000J0D01*
G01*
X167260000Y-52410000D02*
X162960000Y-52410000D01*
X167260000Y-52410000D02*
X167260000Y-56410000D01*
X162960000Y-52410000D02*
X162960000Y-56410000D01*
X167260000Y-56410000D02*
X162960000Y-56410000D01*
X161850000Y-52881738D02*
G75*
G03X161850000Y-52881738I-200000J0D01*
G01*
X162130000Y-52481738D02*
X157830000Y-52481738D01*
X162130000Y-52481738D02*
X162130000Y-56481738D01*
X157830000Y-52481738D02*
X157830000Y-56481738D01*
X162130000Y-56481738D02*
X157830000Y-56481738D01*
D13*
X160580000Y-71360000D02*
X160580000Y-71060000D01*
X160580000Y-72360000D02*
X160580000Y-71960000D01*
X160580000Y-73260000D02*
X160580000Y-72960000D01*
X160580000Y-74260000D02*
X160580000Y-73860000D01*
X159180000Y-74260000D02*
X160580000Y-74260000D01*
X159180000Y-73860000D02*
X159180000Y-74260000D01*
X159180000Y-72960000D02*
X159180000Y-73260000D01*
X159180000Y-71960000D02*
X159180000Y-72360000D01*
X159180000Y-71060000D02*
X159180000Y-71360000D01*
X160580000Y-71060000D02*
X159180000Y-71060000D01*
X170440000Y-63110000D02*
X170440000Y-62360000D01*
X170440000Y-59610000D02*
X170440000Y-60360000D01*
X164440000Y-59610000D02*
X170440000Y-59610000D01*
X164440000Y-60360000D02*
X164440000Y-59610000D01*
X164440000Y-63110000D02*
X164440000Y-62360000D01*
X170440000Y-63110000D02*
X164440000Y-63110000D01*
D11*
X114280000Y-87830000D02*
X111580000Y-87830000D01*
X114280000Y-89330000D02*
X111580000Y-89330000D01*
X112780000Y-88430000D02*
X112780000Y-88680000D01*
X112780000Y-88680000D02*
X112930000Y-88530000D01*
X113030000Y-88930000D02*
X113030000Y-88230000D01*
X112680000Y-88580000D02*
X112330000Y-88580000D01*
X113030000Y-88580000D02*
X112680000Y-88930000D01*
X112680000Y-88930000D02*
X112680000Y-88230000D01*
X112680000Y-88230000D02*
X113030000Y-88580000D01*
X117580000Y-89425000D02*
X116380000Y-89425000D01*
X116380000Y-87675000D02*
X117580000Y-87675000D01*
X143265000Y-82960000D02*
X143265000Y-83160000D01*
X147915000Y-82960000D02*
X147915000Y-83160000D01*
X147915000Y-86210000D02*
X147915000Y-86010000D01*
X143265000Y-86210000D02*
X143265000Y-86010000D01*
X143265000Y-82960000D02*
X147915000Y-82960000D01*
X143265000Y-86210000D02*
X147915000Y-86210000D01*
X143265000Y-83160000D02*
X141915000Y-83160000D01*
X174885000Y-82960000D02*
X174885000Y-83160000D01*
X179535000Y-82960000D02*
X179535000Y-83160000D01*
X179535000Y-86210000D02*
X179535000Y-86010000D01*
X174885000Y-86210000D02*
X174885000Y-86010000D01*
X174885000Y-82960000D02*
X179535000Y-82960000D01*
X174885000Y-86210000D02*
X179535000Y-86210000D01*
X174885000Y-83160000D02*
X173535000Y-83160000D01*
D13*
X133830000Y-98545000D02*
X133820000Y-98595000D01*
X134110000Y-98545000D02*
X133830000Y-98545000D01*
X133840000Y-95735000D02*
X133820000Y-95695000D01*
X133840000Y-95735000D02*
X134110000Y-95735000D01*
X124520000Y-98515000D02*
X123690000Y-98515000D01*
X124100000Y-98515000D02*
X124520000Y-98515000D01*
X124100000Y-98925000D02*
X124100000Y-98515000D01*
X124240000Y-98515000D02*
X124240000Y-99275000D01*
X124380000Y-99555000D02*
X124380000Y-98515000D01*
X124520000Y-98515000D02*
X124520000Y-99775000D01*
X124520000Y-95755000D02*
X123700000Y-95755000D01*
X124520000Y-94505000D02*
X124520000Y-95755000D01*
X124390000Y-94755000D02*
X124390000Y-95745000D01*
X124260000Y-94995000D02*
X124260000Y-95745000D01*
X124130000Y-95345000D02*
X124130000Y-95745000D01*
X123982628Y-98603888D02*
G75*
G03X133820000Y-98595000I4917372J1458888D01*
G01*
X133810570Y-95668754D02*
G75*
G03X123970000Y-95735000I-4910570J-1476246D01*
G01*
D11*
X123693000Y-91938000D02*
X123693000Y-95745000D01*
X123693000Y-102352000D02*
X133345000Y-102352000D01*
X133345000Y-102352000D02*
X134107000Y-101590000D01*
X134107000Y-101590000D02*
X134107000Y-98545000D01*
X134107000Y-92700000D02*
X133345000Y-91938000D01*
X133345000Y-91938000D02*
X123693000Y-91938000D01*
X132960000Y-95215000D02*
X132198000Y-95215000D01*
X132580000Y-94805000D02*
X132580000Y-95567000D01*
X123690000Y-98548000D02*
X123690000Y-102355000D01*
X134110000Y-95735000D02*
X134110000Y-92705000D01*
D13*
X159910000Y-98505000D02*
X159900000Y-98555000D01*
X160190000Y-98505000D02*
X159910000Y-98505000D01*
X159920000Y-95695000D02*
X159900000Y-95655000D01*
X159920000Y-95695000D02*
X160190000Y-95695000D01*
X150600000Y-98475000D02*
X149770000Y-98475000D01*
X150180000Y-98475000D02*
X150600000Y-98475000D01*
X150180000Y-98885000D02*
X150180000Y-98475000D01*
X150320000Y-98475000D02*
X150320000Y-99235000D01*
X150460000Y-99515000D02*
X150460000Y-98475000D01*
X150600000Y-98475000D02*
X150600000Y-99735000D01*
X150600000Y-95715000D02*
X149780000Y-95715000D01*
X150600000Y-94465000D02*
X150600000Y-95715000D01*
X150470000Y-94715000D02*
X150470000Y-95705000D01*
X150340000Y-94955000D02*
X150340000Y-95705000D01*
X150210000Y-95305000D02*
X150210000Y-95705000D01*
X150062628Y-98563888D02*
G75*
G03X159900000Y-98555000I4917372J1458888D01*
G01*
X159890570Y-95628754D02*
G75*
G03X150050000Y-95695000I-4910570J-1476246D01*
G01*
D11*
X149773000Y-91898000D02*
X149773000Y-95705000D01*
X149773000Y-102312000D02*
X159425000Y-102312000D01*
X159425000Y-102312000D02*
X160187000Y-101550000D01*
X160187000Y-101550000D02*
X160187000Y-98505000D01*
X160187000Y-92660000D02*
X159425000Y-91898000D01*
X159425000Y-91898000D02*
X149773000Y-91898000D01*
X159040000Y-95175000D02*
X158278000Y-95175000D01*
X158660000Y-94765000D02*
X158660000Y-95527000D01*
X149770000Y-98508000D02*
X149770000Y-102315000D01*
X160190000Y-95695000D02*
X160190000Y-92665000D01*
D13*
X136780000Y-95790000D02*
X136790000Y-95740000D01*
X136500000Y-95790000D02*
X136780000Y-95790000D01*
X136770000Y-98600000D02*
X136790000Y-98640000D01*
X136770000Y-98600000D02*
X136500000Y-98600000D01*
X146090000Y-95820000D02*
X146920000Y-95820000D01*
X146510000Y-95820000D02*
X146090000Y-95820000D01*
X146510000Y-95410000D02*
X146510000Y-95820000D01*
X146370000Y-95820000D02*
X146370000Y-95060000D01*
X146230000Y-94780000D02*
X146230000Y-95820000D01*
X146090000Y-95820000D02*
X146090000Y-94560000D01*
X146090000Y-98580000D02*
X146910000Y-98580000D01*
X146090000Y-99830000D02*
X146090000Y-98580000D01*
X146220000Y-99580000D02*
X146220000Y-98590000D01*
X146350000Y-99340000D02*
X146350000Y-98590000D01*
X146480000Y-98990000D02*
X146480000Y-98590000D01*
X146627372Y-95731112D02*
G75*
G03X136790000Y-95740000I-4917372J-1458888D01*
G01*
X136799430Y-98666246D02*
G75*
G03X146640000Y-98600000I4910570J1476246D01*
G01*
D11*
X146917000Y-102397000D02*
X146917000Y-98590000D01*
X146917000Y-91983000D02*
X137265000Y-91983000D01*
X137265000Y-91983000D02*
X136503000Y-92745000D01*
X136503000Y-92745000D02*
X136503000Y-95790000D01*
X136503000Y-101635000D02*
X137265000Y-102397000D01*
X137265000Y-102397000D02*
X146917000Y-102397000D01*
X137650000Y-99120000D02*
X138412000Y-99120000D01*
X138030000Y-99530000D02*
X138030000Y-98768000D01*
X146920000Y-95787000D02*
X146920000Y-91980000D01*
X136500000Y-98600000D02*
X136500000Y-101630000D01*
D13*
X162920000Y-95730000D02*
X162930000Y-95680000D01*
X162640000Y-95730000D02*
X162920000Y-95730000D01*
X162910000Y-98540000D02*
X162930000Y-98580000D01*
X162910000Y-98540000D02*
X162640000Y-98540000D01*
X172230000Y-95760000D02*
X173060000Y-95760000D01*
X172650000Y-95760000D02*
X172230000Y-95760000D01*
X172650000Y-95350000D02*
X172650000Y-95760000D01*
X172510000Y-95760000D02*
X172510000Y-95000000D01*
X172370000Y-94720000D02*
X172370000Y-95760000D01*
X172230000Y-95760000D02*
X172230000Y-94500000D01*
X172230000Y-98520000D02*
X173050000Y-98520000D01*
X172230000Y-99770000D02*
X172230000Y-98520000D01*
X172360000Y-99520000D02*
X172360000Y-98530000D01*
X172490000Y-99280000D02*
X172490000Y-98530000D01*
X172620000Y-98930000D02*
X172620000Y-98530000D01*
X172767372Y-95671112D02*
G75*
G03X162930000Y-95680000I-4917372J-1458888D01*
G01*
X162939430Y-98606246D02*
G75*
G03X172780000Y-98540000I4910570J1476246D01*
G01*
D11*
X173057000Y-102337000D02*
X173057000Y-98530000D01*
X173057000Y-91923000D02*
X163405000Y-91923000D01*
X163405000Y-91923000D02*
X162643000Y-92685000D01*
X162643000Y-92685000D02*
X162643000Y-95730000D01*
X162643000Y-101575000D02*
X163405000Y-102337000D01*
X163405000Y-102337000D02*
X173057000Y-102337000D01*
X163790000Y-99060000D02*
X164552000Y-99060000D01*
X164170000Y-99470000D02*
X164170000Y-98708000D01*
X173060000Y-95727000D02*
X173060000Y-91920000D01*
X162640000Y-98540000D02*
X162640000Y-101570000D01*
D13*
X163950000Y-120825000D02*
X166750000Y-120825000D01*
X155750000Y-120825000D02*
X158550000Y-120825000D01*
X158550000Y-104825000D02*
X157250000Y-104825000D01*
X166750000Y-104825000D02*
X163970000Y-104825000D01*
X166750000Y-120825000D02*
X166750000Y-104825000D01*
X155750000Y-106325000D02*
X155750000Y-120825000D01*
X157250000Y-104825000D02*
X155750000Y-106325000D01*
X137700000Y-121000000D02*
X140500000Y-121000000D01*
X129500000Y-121000000D02*
X132300000Y-121000000D01*
X132300000Y-105000000D02*
X131000000Y-105000000D01*
X140500000Y-105000000D02*
X137720000Y-105000000D01*
X140500000Y-121000000D02*
X140500000Y-105000000D01*
X129500000Y-106500000D02*
X129500000Y-121000000D01*
X131000000Y-105000000D02*
X129500000Y-106500000D01*
D11*
X178060000Y-114160000D02*
X183140000Y-114160000D01*
X183140000Y-114160000D02*
X183140000Y-111620000D01*
X183140000Y-111620000D02*
X178060000Y-111620000D01*
X175240000Y-111340000D02*
X176790000Y-111340000D01*
X178060000Y-111620000D02*
X178060000Y-114160000D01*
X176790000Y-114440000D02*
X175240000Y-114440000D01*
X175240000Y-114440000D02*
X175240000Y-111340000D01*
X178060000Y-108160000D02*
X183140000Y-108160000D01*
X183140000Y-108160000D02*
X183140000Y-105620000D01*
X183140000Y-105620000D02*
X178060000Y-105620000D01*
X175240000Y-105340000D02*
X176790000Y-105340000D01*
X178060000Y-105620000D02*
X178060000Y-108160000D01*
X176790000Y-108440000D02*
X175240000Y-108440000D01*
X175240000Y-108440000D02*
X175240000Y-105340000D01*
X178060000Y-102160000D02*
X183140000Y-102160000D01*
X183140000Y-102160000D02*
X183140000Y-99620000D01*
X183140000Y-99620000D02*
X178060000Y-99620000D01*
X175240000Y-99340000D02*
X176790000Y-99340000D01*
X178060000Y-99620000D02*
X178060000Y-102160000D01*
X176790000Y-102440000D02*
X175240000Y-102440000D01*
X175240000Y-102440000D02*
X175240000Y-99340000D01*
X178030000Y-96200000D02*
X183110000Y-96200000D01*
X183110000Y-96200000D02*
X183110000Y-93660000D01*
X183110000Y-93660000D02*
X178030000Y-93660000D01*
X175210000Y-93380000D02*
X176760000Y-93380000D01*
X178030000Y-93660000D02*
X178030000Y-96200000D01*
X176760000Y-96480000D02*
X175210000Y-96480000D01*
X175210000Y-96480000D02*
X175210000Y-93380000D01*
X142795000Y-57860000D02*
X142795000Y-52780000D01*
X142795000Y-52780000D02*
X140255000Y-52780000D01*
X140255000Y-52780000D02*
X140255000Y-57860000D01*
X139975000Y-60680000D02*
X139975000Y-59130000D01*
X140255000Y-57860000D02*
X142795000Y-57860000D01*
X143075000Y-59130000D02*
X143075000Y-60680000D01*
X143075000Y-60680000D02*
X139975000Y-60680000D01*
X155250000Y-57845000D02*
X155250000Y-52765000D01*
X155250000Y-52765000D02*
X152710000Y-52765000D01*
X152710000Y-52765000D02*
X152710000Y-57845000D01*
X152430000Y-60665000D02*
X152430000Y-59115000D01*
X152710000Y-57845000D02*
X155250000Y-57845000D01*
X155530000Y-59115000D02*
X155530000Y-60665000D01*
X155530000Y-60665000D02*
X152430000Y-60665000D01*
X133105000Y-55320000D02*
X133105000Y-60400000D01*
X133105000Y-60400000D02*
X135645000Y-60400000D01*
X135645000Y-60400000D02*
X135645000Y-55320000D01*
X135925000Y-52500000D02*
X135925000Y-54050000D01*
X135645000Y-55320000D02*
X133105000Y-55320000D01*
X132825000Y-54050000D02*
X132825000Y-52500000D01*
X132825000Y-52500000D02*
X135925000Y-52500000D01*
X136680000Y-55320000D02*
X136680000Y-60400000D01*
X136680000Y-60400000D02*
X139220000Y-60400000D01*
X139220000Y-60400000D02*
X139220000Y-55320000D01*
X139500000Y-52500000D02*
X139500000Y-54050000D01*
X139220000Y-55320000D02*
X136680000Y-55320000D01*
X136400000Y-54050000D02*
X136400000Y-52500000D01*
X136400000Y-52500000D02*
X139500000Y-52500000D01*
X145560000Y-55290000D02*
X145560000Y-60370000D01*
X145560000Y-60370000D02*
X148100000Y-60370000D01*
X148100000Y-60370000D02*
X148100000Y-55290000D01*
X148380000Y-52470000D02*
X148380000Y-54020000D01*
X148100000Y-55290000D02*
X145560000Y-55290000D01*
X145280000Y-54020000D02*
X145280000Y-52470000D01*
X145280000Y-52470000D02*
X148380000Y-52470000D01*
X149135000Y-55290000D02*
X149135000Y-60370000D01*
X149135000Y-60370000D02*
X151675000Y-60370000D01*
X151675000Y-60370000D02*
X151675000Y-55290000D01*
X151955000Y-52470000D02*
X151955000Y-54020000D01*
X151675000Y-55290000D02*
X149135000Y-55290000D01*
X148855000Y-54020000D02*
X148855000Y-52470000D01*
X148855000Y-52470000D02*
X151955000Y-52470000D01*
X182690000Y-75350000D02*
X182690000Y-70270000D01*
X182970000Y-78170000D02*
X181420000Y-78170000D01*
X180150000Y-77890000D02*
X180150000Y-75350000D01*
X180150000Y-75350000D02*
X182690000Y-75350000D01*
X182690000Y-70270000D02*
X177610000Y-70270000D01*
X177610000Y-70270000D02*
X177610000Y-75350000D01*
X182970000Y-78170000D02*
X182970000Y-76620000D01*
X177610000Y-77890000D02*
X180150000Y-77890000D01*
X177610000Y-75350000D02*
X177610000Y-77890000D01*
X124070000Y-123130000D02*
X124070000Y-125670000D01*
X124350000Y-120310000D02*
X124350000Y-121860000D01*
X124070000Y-123130000D02*
X121530000Y-123130000D01*
X121250000Y-121860000D02*
X121250000Y-120310000D01*
X121250000Y-120310000D02*
X124350000Y-120310000D01*
X121530000Y-123130000D02*
X121530000Y-125670000D01*
X121530000Y-125670000D02*
X124070000Y-125670000D01*
X173695000Y-55500000D02*
X173695000Y-54500000D01*
X175045000Y-54500000D02*
X175045000Y-55500000D01*
X179025000Y-55500000D02*
X179025000Y-54500000D01*
X180375000Y-54500000D02*
X180375000Y-55500000D01*
X168395000Y-55530000D02*
X168395000Y-54530000D01*
X169745000Y-54530000D02*
X169745000Y-55530000D01*
X163155000Y-55500000D02*
X163155000Y-54500000D01*
X164505000Y-54500000D02*
X164505000Y-55500000D01*
X158095000Y-55510000D02*
X158095000Y-54510000D01*
X159445000Y-54510000D02*
X159445000Y-55510000D01*
X176855714Y-63921904D02*
X176589047Y-63540952D01*
X176398571Y-63921904D02*
X176398571Y-63121904D01*
X176703333Y-63121904D01*
X176779523Y-63160000D01*
X176817619Y-63198095D01*
X176855714Y-63274285D01*
X176855714Y-63388571D01*
X176817619Y-63464761D01*
X176779523Y-63502857D01*
X176703333Y-63540952D01*
X176398571Y-63540952D01*
X177541428Y-63388571D02*
X177541428Y-63921904D01*
X177350952Y-63083809D02*
X177160476Y-63655238D01*
X177655714Y-63655238D01*
X177998571Y-63921904D02*
X178150952Y-63921904D01*
X178227142Y-63883809D01*
X178265238Y-63845714D01*
X178341428Y-63731428D01*
X178379523Y-63579047D01*
X178379523Y-63274285D01*
X178341428Y-63198095D01*
X178303333Y-63160000D01*
X178227142Y-63121904D01*
X178074761Y-63121904D01*
X177998571Y-63160000D01*
X177960476Y-63198095D01*
X177922380Y-63274285D01*
X177922380Y-63464761D01*
X177960476Y-63540952D01*
X177998571Y-63579047D01*
X178074761Y-63617142D01*
X178227142Y-63617142D01*
X178303333Y-63579047D01*
X178341428Y-63540952D01*
X178379523Y-63464761D01*
X176845714Y-60521904D02*
X176579047Y-60140952D01*
X176388571Y-60521904D02*
X176388571Y-59721904D01*
X176693333Y-59721904D01*
X176769523Y-59760000D01*
X176807619Y-59798095D01*
X176845714Y-59874285D01*
X176845714Y-59988571D01*
X176807619Y-60064761D01*
X176769523Y-60102857D01*
X176693333Y-60140952D01*
X176388571Y-60140952D01*
X177569523Y-59721904D02*
X177188571Y-59721904D01*
X177150476Y-60102857D01*
X177188571Y-60064761D01*
X177264761Y-60026666D01*
X177455238Y-60026666D01*
X177531428Y-60064761D01*
X177569523Y-60102857D01*
X177607619Y-60179047D01*
X177607619Y-60369523D01*
X177569523Y-60445714D01*
X177531428Y-60483809D01*
X177455238Y-60521904D01*
X177264761Y-60521904D01*
X177188571Y-60483809D01*
X177150476Y-60445714D01*
X178102857Y-59721904D02*
X178179047Y-59721904D01*
X178255238Y-59760000D01*
X178293333Y-59798095D01*
X178331428Y-59874285D01*
X178369523Y-60026666D01*
X178369523Y-60217142D01*
X178331428Y-60369523D01*
X178293333Y-60445714D01*
X178255238Y-60483809D01*
X178179047Y-60521904D01*
X178102857Y-60521904D01*
X178026666Y-60483809D01*
X177988571Y-60445714D01*
X177950476Y-60369523D01*
X177912380Y-60217142D01*
X177912380Y-60026666D01*
X177950476Y-59874285D01*
X177988571Y-59798095D01*
X178026666Y-59760000D01*
X178102857Y-59721904D01*
X176855714Y-67451904D02*
X176589047Y-67070952D01*
X176398571Y-67451904D02*
X176398571Y-66651904D01*
X176703333Y-66651904D01*
X176779523Y-66690000D01*
X176817619Y-66728095D01*
X176855714Y-66804285D01*
X176855714Y-66918571D01*
X176817619Y-66994761D01*
X176779523Y-67032857D01*
X176703333Y-67070952D01*
X176398571Y-67070952D01*
X177579523Y-66651904D02*
X177198571Y-66651904D01*
X177160476Y-67032857D01*
X177198571Y-66994761D01*
X177274761Y-66956666D01*
X177465238Y-66956666D01*
X177541428Y-66994761D01*
X177579523Y-67032857D01*
X177617619Y-67109047D01*
X177617619Y-67299523D01*
X177579523Y-67375714D01*
X177541428Y-67413809D01*
X177465238Y-67451904D01*
X177274761Y-67451904D01*
X177198571Y-67413809D01*
X177160476Y-67375714D01*
X178379523Y-67451904D02*
X177922380Y-67451904D01*
X178150952Y-67451904D02*
X178150952Y-66651904D01*
X178074761Y-66766190D01*
X177998571Y-66842380D01*
X177922380Y-66880476D01*
X174075714Y-46172380D02*
X174075714Y-45172380D01*
X174456666Y-45172380D01*
X174551904Y-45220000D01*
X174599523Y-45267619D01*
X174647142Y-45362857D01*
X174647142Y-45505714D01*
X174599523Y-45600952D01*
X174551904Y-45648571D01*
X174456666Y-45696190D01*
X174075714Y-45696190D01*
X175599523Y-46172380D02*
X175028095Y-46172380D01*
X175313809Y-46172380D02*
X175313809Y-45172380D01*
X175218571Y-45315238D01*
X175123333Y-45410476D01*
X175028095Y-45458095D01*
X176504285Y-45172380D02*
X176028095Y-45172380D01*
X175980476Y-45648571D01*
X176028095Y-45600952D01*
X176123333Y-45553333D01*
X176361428Y-45553333D01*
X176456666Y-45600952D01*
X176504285Y-45648571D01*
X176551904Y-45743809D01*
X176551904Y-45981904D01*
X176504285Y-46077142D01*
X176456666Y-46124761D01*
X176361428Y-46172380D01*
X176123333Y-46172380D01*
X176028095Y-46124761D01*
X175980476Y-46077142D01*
X127651904Y-74189523D02*
X128299523Y-74189523D01*
X128375714Y-74151428D01*
X128413809Y-74113333D01*
X128451904Y-74037142D01*
X128451904Y-73884761D01*
X128413809Y-73808571D01*
X128375714Y-73770476D01*
X128299523Y-73732380D01*
X127651904Y-73732380D01*
X127728095Y-73389523D02*
X127690000Y-73351428D01*
X127651904Y-73275238D01*
X127651904Y-73084761D01*
X127690000Y-73008571D01*
X127728095Y-72970476D01*
X127804285Y-72932380D01*
X127880476Y-72932380D01*
X127994761Y-72970476D01*
X128451904Y-73427619D01*
X128451904Y-72932380D01*
X162800476Y-74451904D02*
X162800476Y-75099523D01*
X162838571Y-75175714D01*
X162876666Y-75213809D01*
X162952857Y-75251904D01*
X163105238Y-75251904D01*
X163181428Y-75213809D01*
X163219523Y-75175714D01*
X163257619Y-75099523D01*
X163257619Y-74451904D01*
X164057619Y-75251904D02*
X163600476Y-75251904D01*
X163829047Y-75251904D02*
X163829047Y-74451904D01*
X163752857Y-74566190D01*
X163676666Y-74642380D01*
X163600476Y-74680476D01*
X166075714Y-46132380D02*
X166075714Y-45132380D01*
X166456666Y-45132380D01*
X166551904Y-45180000D01*
X166599523Y-45227619D01*
X166647142Y-45322857D01*
X166647142Y-45465714D01*
X166599523Y-45560952D01*
X166551904Y-45608571D01*
X166456666Y-45656190D01*
X166075714Y-45656190D01*
X167599523Y-46132380D02*
X167028095Y-46132380D01*
X167313809Y-46132380D02*
X167313809Y-45132380D01*
X167218571Y-45275238D01*
X167123333Y-45370476D01*
X167028095Y-45418095D01*
X167980476Y-45227619D02*
X168028095Y-45180000D01*
X168123333Y-45132380D01*
X168361428Y-45132380D01*
X168456666Y-45180000D01*
X168504285Y-45227619D01*
X168551904Y-45322857D01*
X168551904Y-45418095D01*
X168504285Y-45560952D01*
X167932857Y-46132380D01*
X168551904Y-46132380D01*
X158421904Y-46142380D02*
X158421904Y-45142380D01*
X158802857Y-45142380D01*
X158898095Y-45190000D01*
X158945714Y-45237619D01*
X158993333Y-45332857D01*
X158993333Y-45475714D01*
X158945714Y-45570952D01*
X158898095Y-45618571D01*
X158802857Y-45666190D01*
X158421904Y-45666190D01*
X159326666Y-45142380D02*
X159945714Y-45142380D01*
X159612380Y-45523333D01*
X159755238Y-45523333D01*
X159850476Y-45570952D01*
X159898095Y-45618571D01*
X159945714Y-45713809D01*
X159945714Y-45951904D01*
X159898095Y-46047142D01*
X159850476Y-46094761D01*
X159755238Y-46142380D01*
X159469523Y-46142380D01*
X159374285Y-46094761D01*
X159326666Y-46047142D01*
X150371904Y-46142380D02*
X150371904Y-45142380D01*
X150752857Y-45142380D01*
X150848095Y-45190000D01*
X150895714Y-45237619D01*
X150943333Y-45332857D01*
X150943333Y-45475714D01*
X150895714Y-45570952D01*
X150848095Y-45618571D01*
X150752857Y-45666190D01*
X150371904Y-45666190D01*
X151800476Y-45475714D02*
X151800476Y-46142380D01*
X151562380Y-45094761D02*
X151324285Y-45809047D01*
X151943333Y-45809047D01*
X122695714Y-112205714D02*
X122657619Y-112243809D01*
X122543333Y-112281904D01*
X122467142Y-112281904D01*
X122352857Y-112243809D01*
X122276666Y-112167619D01*
X122238571Y-112091428D01*
X122200476Y-111939047D01*
X122200476Y-111824761D01*
X122238571Y-111672380D01*
X122276666Y-111596190D01*
X122352857Y-111520000D01*
X122467142Y-111481904D01*
X122543333Y-111481904D01*
X122657619Y-111520000D01*
X122695714Y-111558095D01*
X123457619Y-112281904D02*
X123000476Y-112281904D01*
X123229047Y-112281904D02*
X123229047Y-111481904D01*
X123152857Y-111596190D01*
X123076666Y-111672380D01*
X123000476Y-111710476D01*
X124181428Y-111481904D02*
X123800476Y-111481904D01*
X123762380Y-111862857D01*
X123800476Y-111824761D01*
X123876666Y-111786666D01*
X124067142Y-111786666D01*
X124143333Y-111824761D01*
X124181428Y-111862857D01*
X124219523Y-111939047D01*
X124219523Y-112129523D01*
X124181428Y-112205714D01*
X124143333Y-112243809D01*
X124067142Y-112281904D01*
X123876666Y-112281904D01*
X123800476Y-112243809D01*
X123762380Y-112205714D01*
X110871904Y-120853333D02*
X110871904Y-121234285D01*
X110071904Y-121234285D01*
X110148095Y-120624761D02*
X110110000Y-120586666D01*
X110071904Y-120510476D01*
X110071904Y-120320000D01*
X110110000Y-120243809D01*
X110148095Y-120205714D01*
X110224285Y-120167619D01*
X110300476Y-120167619D01*
X110414761Y-120205714D01*
X110871904Y-120662857D01*
X110871904Y-120167619D01*
X158195714Y-69823333D02*
X158233809Y-69861428D01*
X158271904Y-69975714D01*
X158271904Y-70051904D01*
X158233809Y-70166190D01*
X158157619Y-70242380D01*
X158081428Y-70280476D01*
X157929047Y-70318571D01*
X157814761Y-70318571D01*
X157662380Y-70280476D01*
X157586190Y-70242380D01*
X157510000Y-70166190D01*
X157471904Y-70051904D01*
X157471904Y-69975714D01*
X157510000Y-69861428D01*
X157548095Y-69823333D01*
X157548095Y-69518571D02*
X157510000Y-69480476D01*
X157471904Y-69404285D01*
X157471904Y-69213809D01*
X157510000Y-69137619D01*
X157548095Y-69099523D01*
X157624285Y-69061428D01*
X157700476Y-69061428D01*
X157814761Y-69099523D01*
X158271904Y-69556666D01*
X158271904Y-69061428D01*
X126795714Y-75953333D02*
X126833809Y-75991428D01*
X126871904Y-76105714D01*
X126871904Y-76181904D01*
X126833809Y-76296190D01*
X126757619Y-76372380D01*
X126681428Y-76410476D01*
X126529047Y-76448571D01*
X126414761Y-76448571D01*
X126262380Y-76410476D01*
X126186190Y-76372380D01*
X126110000Y-76296190D01*
X126071904Y-76181904D01*
X126071904Y-76105714D01*
X126110000Y-75991428D01*
X126148095Y-75953333D01*
X126338571Y-75267619D02*
X126871904Y-75267619D01*
X126033809Y-75458095D02*
X126605238Y-75648571D01*
X126605238Y-75153333D01*
X111445714Y-57903333D02*
X111483809Y-57941428D01*
X111521904Y-58055714D01*
X111521904Y-58131904D01*
X111483809Y-58246190D01*
X111407619Y-58322380D01*
X111331428Y-58360476D01*
X111179047Y-58398571D01*
X111064761Y-58398571D01*
X110912380Y-58360476D01*
X110836190Y-58322380D01*
X110760000Y-58246190D01*
X110721904Y-58131904D01*
X110721904Y-58055714D01*
X110760000Y-57941428D01*
X110798095Y-57903333D01*
X110721904Y-57179523D02*
X110721904Y-57560476D01*
X111102857Y-57598571D01*
X111064761Y-57560476D01*
X111026666Y-57484285D01*
X111026666Y-57293809D01*
X111064761Y-57217619D01*
X111102857Y-57179523D01*
X111179047Y-57141428D01*
X111369523Y-57141428D01*
X111445714Y-57179523D01*
X111483809Y-57217619D01*
X111521904Y-57293809D01*
X111521904Y-57484285D01*
X111483809Y-57560476D01*
X111445714Y-57598571D01*
X110115714Y-71573333D02*
X110153809Y-71611428D01*
X110191904Y-71725714D01*
X110191904Y-71801904D01*
X110153809Y-71916190D01*
X110077619Y-71992380D01*
X110001428Y-72030476D01*
X109849047Y-72068571D01*
X109734761Y-72068571D01*
X109582380Y-72030476D01*
X109506190Y-71992380D01*
X109430000Y-71916190D01*
X109391904Y-71801904D01*
X109391904Y-71725714D01*
X109430000Y-71611428D01*
X109468095Y-71573333D01*
X109391904Y-71306666D02*
X109391904Y-70773333D01*
X110191904Y-71116190D01*
X127666666Y-56225714D02*
X127628571Y-56263809D01*
X127514285Y-56301904D01*
X127438095Y-56301904D01*
X127323809Y-56263809D01*
X127247619Y-56187619D01*
X127209523Y-56111428D01*
X127171428Y-55959047D01*
X127171428Y-55844761D01*
X127209523Y-55692380D01*
X127247619Y-55616190D01*
X127323809Y-55540000D01*
X127438095Y-55501904D01*
X127514285Y-55501904D01*
X127628571Y-55540000D01*
X127666666Y-55578095D01*
X128123809Y-55844761D02*
X128047619Y-55806666D01*
X128009523Y-55768571D01*
X127971428Y-55692380D01*
X127971428Y-55654285D01*
X128009523Y-55578095D01*
X128047619Y-55540000D01*
X128123809Y-55501904D01*
X128276190Y-55501904D01*
X128352380Y-55540000D01*
X128390476Y-55578095D01*
X128428571Y-55654285D01*
X128428571Y-55692380D01*
X128390476Y-55768571D01*
X128352380Y-55806666D01*
X128276190Y-55844761D01*
X128123809Y-55844761D01*
X128047619Y-55882857D01*
X128009523Y-55920952D01*
X127971428Y-55997142D01*
X127971428Y-56149523D01*
X128009523Y-56225714D01*
X128047619Y-56263809D01*
X128123809Y-56301904D01*
X128276190Y-56301904D01*
X128352380Y-56263809D01*
X128390476Y-56225714D01*
X128428571Y-56149523D01*
X128428571Y-55997142D01*
X128390476Y-55920952D01*
X128352380Y-55882857D01*
X128276190Y-55844761D01*
X122206666Y-79815714D02*
X122168571Y-79853809D01*
X122054285Y-79891904D01*
X121978095Y-79891904D01*
X121863809Y-79853809D01*
X121787619Y-79777619D01*
X121749523Y-79701428D01*
X121711428Y-79549047D01*
X121711428Y-79434761D01*
X121749523Y-79282380D01*
X121787619Y-79206190D01*
X121863809Y-79130000D01*
X121978095Y-79091904D01*
X122054285Y-79091904D01*
X122168571Y-79130000D01*
X122206666Y-79168095D01*
X122587619Y-79891904D02*
X122740000Y-79891904D01*
X122816190Y-79853809D01*
X122854285Y-79815714D01*
X122930476Y-79701428D01*
X122968571Y-79549047D01*
X122968571Y-79244285D01*
X122930476Y-79168095D01*
X122892380Y-79130000D01*
X122816190Y-79091904D01*
X122663809Y-79091904D01*
X122587619Y-79130000D01*
X122549523Y-79168095D01*
X122511428Y-79244285D01*
X122511428Y-79434761D01*
X122549523Y-79510952D01*
X122587619Y-79549047D01*
X122663809Y-79587142D01*
X122816190Y-79587142D01*
X122892380Y-79549047D01*
X122930476Y-79510952D01*
X122968571Y-79434761D01*
X126825714Y-79815714D02*
X126787619Y-79853809D01*
X126673333Y-79891904D01*
X126597142Y-79891904D01*
X126482857Y-79853809D01*
X126406666Y-79777619D01*
X126368571Y-79701428D01*
X126330476Y-79549047D01*
X126330476Y-79434761D01*
X126368571Y-79282380D01*
X126406666Y-79206190D01*
X126482857Y-79130000D01*
X126597142Y-79091904D01*
X126673333Y-79091904D01*
X126787619Y-79130000D01*
X126825714Y-79168095D01*
X127587619Y-79891904D02*
X127130476Y-79891904D01*
X127359047Y-79891904D02*
X127359047Y-79091904D01*
X127282857Y-79206190D01*
X127206666Y-79282380D01*
X127130476Y-79320476D01*
X128082857Y-79091904D02*
X128159047Y-79091904D01*
X128235238Y-79130000D01*
X128273333Y-79168095D01*
X128311428Y-79244285D01*
X128349523Y-79396666D01*
X128349523Y-79587142D01*
X128311428Y-79739523D01*
X128273333Y-79815714D01*
X128235238Y-79853809D01*
X128159047Y-79891904D01*
X128082857Y-79891904D01*
X128006666Y-79853809D01*
X127968571Y-79815714D01*
X127930476Y-79739523D01*
X127892380Y-79587142D01*
X127892380Y-79396666D01*
X127930476Y-79244285D01*
X127968571Y-79168095D01*
X128006666Y-79130000D01*
X128082857Y-79091904D01*
X131835714Y-79815714D02*
X131797619Y-79853809D01*
X131683333Y-79891904D01*
X131607142Y-79891904D01*
X131492857Y-79853809D01*
X131416666Y-79777619D01*
X131378571Y-79701428D01*
X131340476Y-79549047D01*
X131340476Y-79434761D01*
X131378571Y-79282380D01*
X131416666Y-79206190D01*
X131492857Y-79130000D01*
X131607142Y-79091904D01*
X131683333Y-79091904D01*
X131797619Y-79130000D01*
X131835714Y-79168095D01*
X132597619Y-79891904D02*
X132140476Y-79891904D01*
X132369047Y-79891904D02*
X132369047Y-79091904D01*
X132292857Y-79206190D01*
X132216666Y-79282380D01*
X132140476Y-79320476D01*
X133359523Y-79891904D02*
X132902380Y-79891904D01*
X133130952Y-79891904D02*
X133130952Y-79091904D01*
X133054761Y-79206190D01*
X132978571Y-79282380D01*
X132902380Y-79320476D01*
X136935714Y-79815714D02*
X136897619Y-79853809D01*
X136783333Y-79891904D01*
X136707142Y-79891904D01*
X136592857Y-79853809D01*
X136516666Y-79777619D01*
X136478571Y-79701428D01*
X136440476Y-79549047D01*
X136440476Y-79434761D01*
X136478571Y-79282380D01*
X136516666Y-79206190D01*
X136592857Y-79130000D01*
X136707142Y-79091904D01*
X136783333Y-79091904D01*
X136897619Y-79130000D01*
X136935714Y-79168095D01*
X137697619Y-79891904D02*
X137240476Y-79891904D01*
X137469047Y-79891904D02*
X137469047Y-79091904D01*
X137392857Y-79206190D01*
X137316666Y-79282380D01*
X137240476Y-79320476D01*
X138002380Y-79168095D02*
X138040476Y-79130000D01*
X138116666Y-79091904D01*
X138307142Y-79091904D01*
X138383333Y-79130000D01*
X138421428Y-79168095D01*
X138459523Y-79244285D01*
X138459523Y-79320476D01*
X138421428Y-79434761D01*
X137964285Y-79891904D01*
X138459523Y-79891904D01*
X144475714Y-120025714D02*
X144437619Y-120063809D01*
X144323333Y-120101904D01*
X144247142Y-120101904D01*
X144132857Y-120063809D01*
X144056666Y-119987619D01*
X144018571Y-119911428D01*
X143980476Y-119759047D01*
X143980476Y-119644761D01*
X144018571Y-119492380D01*
X144056666Y-119416190D01*
X144132857Y-119340000D01*
X144247142Y-119301904D01*
X144323333Y-119301904D01*
X144437619Y-119340000D01*
X144475714Y-119378095D01*
X145237619Y-120101904D02*
X144780476Y-120101904D01*
X145009047Y-120101904D02*
X145009047Y-119301904D01*
X144932857Y-119416190D01*
X144856666Y-119492380D01*
X144780476Y-119530476D01*
X145504285Y-119301904D02*
X145999523Y-119301904D01*
X145732857Y-119606666D01*
X145847142Y-119606666D01*
X145923333Y-119644761D01*
X145961428Y-119682857D01*
X145999523Y-119759047D01*
X145999523Y-119949523D01*
X145961428Y-120025714D01*
X145923333Y-120063809D01*
X145847142Y-120101904D01*
X145618571Y-120101904D01*
X145542380Y-120063809D01*
X145504285Y-120025714D01*
X153645714Y-79705714D02*
X153607619Y-79743809D01*
X153493333Y-79781904D01*
X153417142Y-79781904D01*
X153302857Y-79743809D01*
X153226666Y-79667619D01*
X153188571Y-79591428D01*
X153150476Y-79439047D01*
X153150476Y-79324761D01*
X153188571Y-79172380D01*
X153226666Y-79096190D01*
X153302857Y-79020000D01*
X153417142Y-78981904D01*
X153493333Y-78981904D01*
X153607619Y-79020000D01*
X153645714Y-79058095D01*
X154407619Y-79781904D02*
X153950476Y-79781904D01*
X154179047Y-79781904D02*
X154179047Y-78981904D01*
X154102857Y-79096190D01*
X154026666Y-79172380D01*
X153950476Y-79210476D01*
X155093333Y-78981904D02*
X154940952Y-78981904D01*
X154864761Y-79020000D01*
X154826666Y-79058095D01*
X154750476Y-79172380D01*
X154712380Y-79324761D01*
X154712380Y-79629523D01*
X154750476Y-79705714D01*
X154788571Y-79743809D01*
X154864761Y-79781904D01*
X155017142Y-79781904D01*
X155093333Y-79743809D01*
X155131428Y-79705714D01*
X155169523Y-79629523D01*
X155169523Y-79439047D01*
X155131428Y-79362857D01*
X155093333Y-79324761D01*
X155017142Y-79286666D01*
X154864761Y-79286666D01*
X154788571Y-79324761D01*
X154750476Y-79362857D01*
X154712380Y-79439047D01*
X158605714Y-79705714D02*
X158567619Y-79743809D01*
X158453333Y-79781904D01*
X158377142Y-79781904D01*
X158262857Y-79743809D01*
X158186666Y-79667619D01*
X158148571Y-79591428D01*
X158110476Y-79439047D01*
X158110476Y-79324761D01*
X158148571Y-79172380D01*
X158186666Y-79096190D01*
X158262857Y-79020000D01*
X158377142Y-78981904D01*
X158453333Y-78981904D01*
X158567619Y-79020000D01*
X158605714Y-79058095D01*
X159367619Y-79781904D02*
X158910476Y-79781904D01*
X159139047Y-79781904D02*
X159139047Y-78981904D01*
X159062857Y-79096190D01*
X158986666Y-79172380D01*
X158910476Y-79210476D01*
X159634285Y-78981904D02*
X160167619Y-78981904D01*
X159824761Y-79781904D01*
X163675714Y-79655714D02*
X163637619Y-79693809D01*
X163523333Y-79731904D01*
X163447142Y-79731904D01*
X163332857Y-79693809D01*
X163256666Y-79617619D01*
X163218571Y-79541428D01*
X163180476Y-79389047D01*
X163180476Y-79274761D01*
X163218571Y-79122380D01*
X163256666Y-79046190D01*
X163332857Y-78970000D01*
X163447142Y-78931904D01*
X163523333Y-78931904D01*
X163637619Y-78970000D01*
X163675714Y-79008095D01*
X164437619Y-79731904D02*
X163980476Y-79731904D01*
X164209047Y-79731904D02*
X164209047Y-78931904D01*
X164132857Y-79046190D01*
X164056666Y-79122380D01*
X163980476Y-79160476D01*
X164894761Y-79274761D02*
X164818571Y-79236666D01*
X164780476Y-79198571D01*
X164742380Y-79122380D01*
X164742380Y-79084285D01*
X164780476Y-79008095D01*
X164818571Y-78970000D01*
X164894761Y-78931904D01*
X165047142Y-78931904D01*
X165123333Y-78970000D01*
X165161428Y-79008095D01*
X165199523Y-79084285D01*
X165199523Y-79122380D01*
X165161428Y-79198571D01*
X165123333Y-79236666D01*
X165047142Y-79274761D01*
X164894761Y-79274761D01*
X164818571Y-79312857D01*
X164780476Y-79350952D01*
X164742380Y-79427142D01*
X164742380Y-79579523D01*
X164780476Y-79655714D01*
X164818571Y-79693809D01*
X164894761Y-79731904D01*
X165047142Y-79731904D01*
X165123333Y-79693809D01*
X165161428Y-79655714D01*
X165199523Y-79579523D01*
X165199523Y-79427142D01*
X165161428Y-79350952D01*
X165123333Y-79312857D01*
X165047142Y-79274761D01*
X168735714Y-79605714D02*
X168697619Y-79643809D01*
X168583333Y-79681904D01*
X168507142Y-79681904D01*
X168392857Y-79643809D01*
X168316666Y-79567619D01*
X168278571Y-79491428D01*
X168240476Y-79339047D01*
X168240476Y-79224761D01*
X168278571Y-79072380D01*
X168316666Y-78996190D01*
X168392857Y-78920000D01*
X168507142Y-78881904D01*
X168583333Y-78881904D01*
X168697619Y-78920000D01*
X168735714Y-78958095D01*
X169497619Y-79681904D02*
X169040476Y-79681904D01*
X169269047Y-79681904D02*
X169269047Y-78881904D01*
X169192857Y-78996190D01*
X169116666Y-79072380D01*
X169040476Y-79110476D01*
X169878571Y-79681904D02*
X170030952Y-79681904D01*
X170107142Y-79643809D01*
X170145238Y-79605714D01*
X170221428Y-79491428D01*
X170259523Y-79339047D01*
X170259523Y-79034285D01*
X170221428Y-78958095D01*
X170183333Y-78920000D01*
X170107142Y-78881904D01*
X169954761Y-78881904D01*
X169878571Y-78920000D01*
X169840476Y-78958095D01*
X169802380Y-79034285D01*
X169802380Y-79224761D01*
X169840476Y-79300952D01*
X169878571Y-79339047D01*
X169954761Y-79377142D01*
X170107142Y-79377142D01*
X170183333Y-79339047D01*
X170221428Y-79300952D01*
X170259523Y-79224761D01*
X171415714Y-119275714D02*
X171377619Y-119313809D01*
X171263333Y-119351904D01*
X171187142Y-119351904D01*
X171072857Y-119313809D01*
X170996666Y-119237619D01*
X170958571Y-119161428D01*
X170920476Y-119009047D01*
X170920476Y-118894761D01*
X170958571Y-118742380D01*
X170996666Y-118666190D01*
X171072857Y-118590000D01*
X171187142Y-118551904D01*
X171263333Y-118551904D01*
X171377619Y-118590000D01*
X171415714Y-118628095D01*
X171720476Y-118628095D02*
X171758571Y-118590000D01*
X171834761Y-118551904D01*
X172025238Y-118551904D01*
X172101428Y-118590000D01*
X172139523Y-118628095D01*
X172177619Y-118704285D01*
X172177619Y-118780476D01*
X172139523Y-118894761D01*
X171682380Y-119351904D01*
X172177619Y-119351904D01*
X172672857Y-118551904D02*
X172749047Y-118551904D01*
X172825238Y-118590000D01*
X172863333Y-118628095D01*
X172901428Y-118704285D01*
X172939523Y-118856666D01*
X172939523Y-119047142D01*
X172901428Y-119199523D01*
X172863333Y-119275714D01*
X172825238Y-119313809D01*
X172749047Y-119351904D01*
X172672857Y-119351904D01*
X172596666Y-119313809D01*
X172558571Y-119275714D01*
X172520476Y-119199523D01*
X172482380Y-119047142D01*
X172482380Y-118856666D01*
X172520476Y-118704285D01*
X172558571Y-118628095D01*
X172596666Y-118590000D01*
X172672857Y-118551904D01*
X150045714Y-111555714D02*
X150007619Y-111593809D01*
X149893333Y-111631904D01*
X149817142Y-111631904D01*
X149702857Y-111593809D01*
X149626666Y-111517619D01*
X149588571Y-111441428D01*
X149550476Y-111289047D01*
X149550476Y-111174761D01*
X149588571Y-111022380D01*
X149626666Y-110946190D01*
X149702857Y-110870000D01*
X149817142Y-110831904D01*
X149893333Y-110831904D01*
X150007619Y-110870000D01*
X150045714Y-110908095D01*
X150350476Y-110908095D02*
X150388571Y-110870000D01*
X150464761Y-110831904D01*
X150655238Y-110831904D01*
X150731428Y-110870000D01*
X150769523Y-110908095D01*
X150807619Y-110984285D01*
X150807619Y-111060476D01*
X150769523Y-111174761D01*
X150312380Y-111631904D01*
X150807619Y-111631904D01*
X151112380Y-110908095D02*
X151150476Y-110870000D01*
X151226666Y-110831904D01*
X151417142Y-110831904D01*
X151493333Y-110870000D01*
X151531428Y-110908095D01*
X151569523Y-110984285D01*
X151569523Y-111060476D01*
X151531428Y-111174761D01*
X151074285Y-111631904D01*
X151569523Y-111631904D01*
X180935714Y-98215714D02*
X180897619Y-98253809D01*
X180783333Y-98291904D01*
X180707142Y-98291904D01*
X180592857Y-98253809D01*
X180516666Y-98177619D01*
X180478571Y-98101428D01*
X180440476Y-97949047D01*
X180440476Y-97834761D01*
X180478571Y-97682380D01*
X180516666Y-97606190D01*
X180592857Y-97530000D01*
X180707142Y-97491904D01*
X180783333Y-97491904D01*
X180897619Y-97530000D01*
X180935714Y-97568095D01*
X181240476Y-97568095D02*
X181278571Y-97530000D01*
X181354761Y-97491904D01*
X181545238Y-97491904D01*
X181621428Y-97530000D01*
X181659523Y-97568095D01*
X181697619Y-97644285D01*
X181697619Y-97720476D01*
X181659523Y-97834761D01*
X181202380Y-98291904D01*
X181697619Y-98291904D01*
X181964285Y-97491904D02*
X182459523Y-97491904D01*
X182192857Y-97796666D01*
X182307142Y-97796666D01*
X182383333Y-97834761D01*
X182421428Y-97872857D01*
X182459523Y-97949047D01*
X182459523Y-98139523D01*
X182421428Y-98215714D01*
X182383333Y-98253809D01*
X182307142Y-98291904D01*
X182078571Y-98291904D01*
X182002380Y-98253809D01*
X181964285Y-98215714D01*
X180965714Y-104225714D02*
X180927619Y-104263809D01*
X180813333Y-104301904D01*
X180737142Y-104301904D01*
X180622857Y-104263809D01*
X180546666Y-104187619D01*
X180508571Y-104111428D01*
X180470476Y-103959047D01*
X180470476Y-103844761D01*
X180508571Y-103692380D01*
X180546666Y-103616190D01*
X180622857Y-103540000D01*
X180737142Y-103501904D01*
X180813333Y-103501904D01*
X180927619Y-103540000D01*
X180965714Y-103578095D01*
X181270476Y-103578095D02*
X181308571Y-103540000D01*
X181384761Y-103501904D01*
X181575238Y-103501904D01*
X181651428Y-103540000D01*
X181689523Y-103578095D01*
X181727619Y-103654285D01*
X181727619Y-103730476D01*
X181689523Y-103844761D01*
X181232380Y-104301904D01*
X181727619Y-104301904D01*
X182413333Y-103768571D02*
X182413333Y-104301904D01*
X182222857Y-103463809D02*
X182032380Y-104035238D01*
X182527619Y-104035238D01*
X180995714Y-110185714D02*
X180957619Y-110223809D01*
X180843333Y-110261904D01*
X180767142Y-110261904D01*
X180652857Y-110223809D01*
X180576666Y-110147619D01*
X180538571Y-110071428D01*
X180500476Y-109919047D01*
X180500476Y-109804761D01*
X180538571Y-109652380D01*
X180576666Y-109576190D01*
X180652857Y-109500000D01*
X180767142Y-109461904D01*
X180843333Y-109461904D01*
X180957619Y-109500000D01*
X180995714Y-109538095D01*
X181300476Y-109538095D02*
X181338571Y-109500000D01*
X181414761Y-109461904D01*
X181605238Y-109461904D01*
X181681428Y-109500000D01*
X181719523Y-109538095D01*
X181757619Y-109614285D01*
X181757619Y-109690476D01*
X181719523Y-109804761D01*
X181262380Y-110261904D01*
X181757619Y-110261904D01*
X182481428Y-109461904D02*
X182100476Y-109461904D01*
X182062380Y-109842857D01*
X182100476Y-109804761D01*
X182176666Y-109766666D01*
X182367142Y-109766666D01*
X182443333Y-109804761D01*
X182481428Y-109842857D01*
X182519523Y-109919047D01*
X182519523Y-110109523D01*
X182481428Y-110185714D01*
X182443333Y-110223809D01*
X182367142Y-110261904D01*
X182176666Y-110261904D01*
X182100476Y-110223809D01*
X182062380Y-110185714D01*
X180945714Y-116165714D02*
X180907619Y-116203809D01*
X180793333Y-116241904D01*
X180717142Y-116241904D01*
X180602857Y-116203809D01*
X180526666Y-116127619D01*
X180488571Y-116051428D01*
X180450476Y-115899047D01*
X180450476Y-115784761D01*
X180488571Y-115632380D01*
X180526666Y-115556190D01*
X180602857Y-115480000D01*
X180717142Y-115441904D01*
X180793333Y-115441904D01*
X180907619Y-115480000D01*
X180945714Y-115518095D01*
X181250476Y-115518095D02*
X181288571Y-115480000D01*
X181364761Y-115441904D01*
X181555238Y-115441904D01*
X181631428Y-115480000D01*
X181669523Y-115518095D01*
X181707619Y-115594285D01*
X181707619Y-115670476D01*
X181669523Y-115784761D01*
X181212380Y-116241904D01*
X181707619Y-116241904D01*
X182393333Y-115441904D02*
X182240952Y-115441904D01*
X182164761Y-115480000D01*
X182126666Y-115518095D01*
X182050476Y-115632380D01*
X182012380Y-115784761D01*
X182012380Y-116089523D01*
X182050476Y-116165714D01*
X182088571Y-116203809D01*
X182164761Y-116241904D01*
X182317142Y-116241904D01*
X182393333Y-116203809D01*
X182431428Y-116165714D01*
X182469523Y-116089523D01*
X182469523Y-115899047D01*
X182431428Y-115822857D01*
X182393333Y-115784761D01*
X182317142Y-115746666D01*
X182164761Y-115746666D01*
X182088571Y-115784761D01*
X182050476Y-115822857D01*
X182012380Y-115899047D01*
X122485714Y-51615714D02*
X122447619Y-51653809D01*
X122333333Y-51691904D01*
X122257142Y-51691904D01*
X122142857Y-51653809D01*
X122066666Y-51577619D01*
X122028571Y-51501428D01*
X121990476Y-51349047D01*
X121990476Y-51234761D01*
X122028571Y-51082380D01*
X122066666Y-51006190D01*
X122142857Y-50930000D01*
X122257142Y-50891904D01*
X122333333Y-50891904D01*
X122447619Y-50930000D01*
X122485714Y-50968095D01*
X122790476Y-50968095D02*
X122828571Y-50930000D01*
X122904761Y-50891904D01*
X123095238Y-50891904D01*
X123171428Y-50930000D01*
X123209523Y-50968095D01*
X123247619Y-51044285D01*
X123247619Y-51120476D01*
X123209523Y-51234761D01*
X122752380Y-51691904D01*
X123247619Y-51691904D01*
X123514285Y-50891904D02*
X124047619Y-50891904D01*
X123704761Y-51691904D01*
X116335714Y-53544285D02*
X116373809Y-53582380D01*
X116411904Y-53696666D01*
X116411904Y-53772857D01*
X116373809Y-53887142D01*
X116297619Y-53963333D01*
X116221428Y-54001428D01*
X116069047Y-54039523D01*
X115954761Y-54039523D01*
X115802380Y-54001428D01*
X115726190Y-53963333D01*
X115650000Y-53887142D01*
X115611904Y-53772857D01*
X115611904Y-53696666D01*
X115650000Y-53582380D01*
X115688095Y-53544285D01*
X115688095Y-53239523D02*
X115650000Y-53201428D01*
X115611904Y-53125238D01*
X115611904Y-52934761D01*
X115650000Y-52858571D01*
X115688095Y-52820476D01*
X115764285Y-52782380D01*
X115840476Y-52782380D01*
X115954761Y-52820476D01*
X116411904Y-53277619D01*
X116411904Y-52782380D01*
X115954761Y-52325238D02*
X115916666Y-52401428D01*
X115878571Y-52439523D01*
X115802380Y-52477619D01*
X115764285Y-52477619D01*
X115688095Y-52439523D01*
X115650000Y-52401428D01*
X115611904Y-52325238D01*
X115611904Y-52172857D01*
X115650000Y-52096666D01*
X115688095Y-52058571D01*
X115764285Y-52020476D01*
X115802380Y-52020476D01*
X115878571Y-52058571D01*
X115916666Y-52096666D01*
X115954761Y-52172857D01*
X115954761Y-52325238D01*
X115992857Y-52401428D01*
X116030952Y-52439523D01*
X116107142Y-52477619D01*
X116259523Y-52477619D01*
X116335714Y-52439523D01*
X116373809Y-52401428D01*
X116411904Y-52325238D01*
X116411904Y-52172857D01*
X116373809Y-52096666D01*
X116335714Y-52058571D01*
X116259523Y-52020476D01*
X116107142Y-52020476D01*
X116030952Y-52058571D01*
X115992857Y-52096666D01*
X115954761Y-52172857D01*
X112575714Y-53574285D02*
X112613809Y-53612380D01*
X112651904Y-53726666D01*
X112651904Y-53802857D01*
X112613809Y-53917142D01*
X112537619Y-53993333D01*
X112461428Y-54031428D01*
X112309047Y-54069523D01*
X112194761Y-54069523D01*
X112042380Y-54031428D01*
X111966190Y-53993333D01*
X111890000Y-53917142D01*
X111851904Y-53802857D01*
X111851904Y-53726666D01*
X111890000Y-53612380D01*
X111928095Y-53574285D01*
X111928095Y-53269523D02*
X111890000Y-53231428D01*
X111851904Y-53155238D01*
X111851904Y-52964761D01*
X111890000Y-52888571D01*
X111928095Y-52850476D01*
X112004285Y-52812380D01*
X112080476Y-52812380D01*
X112194761Y-52850476D01*
X112651904Y-53307619D01*
X112651904Y-52812380D01*
X112651904Y-52431428D02*
X112651904Y-52279047D01*
X112613809Y-52202857D01*
X112575714Y-52164761D01*
X112461428Y-52088571D01*
X112309047Y-52050476D01*
X112004285Y-52050476D01*
X111928095Y-52088571D01*
X111890000Y-52126666D01*
X111851904Y-52202857D01*
X111851904Y-52355238D01*
X111890000Y-52431428D01*
X111928095Y-52469523D01*
X112004285Y-52507619D01*
X112194761Y-52507619D01*
X112270952Y-52469523D01*
X112309047Y-52431428D01*
X112347142Y-52355238D01*
X112347142Y-52202857D01*
X112309047Y-52126666D01*
X112270952Y-52088571D01*
X112194761Y-52050476D01*
X147625714Y-89344285D02*
X147663809Y-89382380D01*
X147701904Y-89496666D01*
X147701904Y-89572857D01*
X147663809Y-89687142D01*
X147587619Y-89763333D01*
X147511428Y-89801428D01*
X147359047Y-89839523D01*
X147244761Y-89839523D01*
X147092380Y-89801428D01*
X147016190Y-89763333D01*
X146940000Y-89687142D01*
X146901904Y-89572857D01*
X146901904Y-89496666D01*
X146940000Y-89382380D01*
X146978095Y-89344285D01*
X146901904Y-89077619D02*
X146901904Y-88582380D01*
X147206666Y-88849047D01*
X147206666Y-88734761D01*
X147244761Y-88658571D01*
X147282857Y-88620476D01*
X147359047Y-88582380D01*
X147549523Y-88582380D01*
X147625714Y-88620476D01*
X147663809Y-88658571D01*
X147701904Y-88734761D01*
X147701904Y-88963333D01*
X147663809Y-89039523D01*
X147625714Y-89077619D01*
X146978095Y-88277619D02*
X146940000Y-88239523D01*
X146901904Y-88163333D01*
X146901904Y-87972857D01*
X146940000Y-87896666D01*
X146978095Y-87858571D01*
X147054285Y-87820476D01*
X147130476Y-87820476D01*
X147244761Y-87858571D01*
X147701904Y-88315714D01*
X147701904Y-87820476D01*
X182615714Y-89384285D02*
X182653809Y-89422380D01*
X182691904Y-89536666D01*
X182691904Y-89612857D01*
X182653809Y-89727142D01*
X182577619Y-89803333D01*
X182501428Y-89841428D01*
X182349047Y-89879523D01*
X182234761Y-89879523D01*
X182082380Y-89841428D01*
X182006190Y-89803333D01*
X181930000Y-89727142D01*
X181891904Y-89612857D01*
X181891904Y-89536666D01*
X181930000Y-89422380D01*
X181968095Y-89384285D01*
X181891904Y-89117619D02*
X181891904Y-88622380D01*
X182196666Y-88889047D01*
X182196666Y-88774761D01*
X182234761Y-88698571D01*
X182272857Y-88660476D01*
X182349047Y-88622380D01*
X182539523Y-88622380D01*
X182615714Y-88660476D01*
X182653809Y-88698571D01*
X182691904Y-88774761D01*
X182691904Y-89003333D01*
X182653809Y-89079523D01*
X182615714Y-89117619D01*
X181891904Y-88355714D02*
X181891904Y-87860476D01*
X182196666Y-88127142D01*
X182196666Y-88012857D01*
X182234761Y-87936666D01*
X182272857Y-87898571D01*
X182349047Y-87860476D01*
X182539523Y-87860476D01*
X182615714Y-87898571D01*
X182653809Y-87936666D01*
X182691904Y-88012857D01*
X182691904Y-88241428D01*
X182653809Y-88317619D01*
X182615714Y-88355714D01*
X154165714Y-51465714D02*
X154127619Y-51503809D01*
X154013333Y-51541904D01*
X153937142Y-51541904D01*
X153822857Y-51503809D01*
X153746666Y-51427619D01*
X153708571Y-51351428D01*
X153670476Y-51199047D01*
X153670476Y-51084761D01*
X153708571Y-50932380D01*
X153746666Y-50856190D01*
X153822857Y-50780000D01*
X153937142Y-50741904D01*
X154013333Y-50741904D01*
X154127619Y-50780000D01*
X154165714Y-50818095D01*
X154432380Y-50741904D02*
X154927619Y-50741904D01*
X154660952Y-51046666D01*
X154775238Y-51046666D01*
X154851428Y-51084761D01*
X154889523Y-51122857D01*
X154927619Y-51199047D01*
X154927619Y-51389523D01*
X154889523Y-51465714D01*
X154851428Y-51503809D01*
X154775238Y-51541904D01*
X154546666Y-51541904D01*
X154470476Y-51503809D01*
X154432380Y-51465714D01*
X155613333Y-51008571D02*
X155613333Y-51541904D01*
X155422857Y-50703809D02*
X155232380Y-51275238D01*
X155727619Y-51275238D01*
X148525714Y-51455714D02*
X148487619Y-51493809D01*
X148373333Y-51531904D01*
X148297142Y-51531904D01*
X148182857Y-51493809D01*
X148106666Y-51417619D01*
X148068571Y-51341428D01*
X148030476Y-51189047D01*
X148030476Y-51074761D01*
X148068571Y-50922380D01*
X148106666Y-50846190D01*
X148182857Y-50770000D01*
X148297142Y-50731904D01*
X148373333Y-50731904D01*
X148487619Y-50770000D01*
X148525714Y-50808095D01*
X148792380Y-50731904D02*
X149287619Y-50731904D01*
X149020952Y-51036666D01*
X149135238Y-51036666D01*
X149211428Y-51074761D01*
X149249523Y-51112857D01*
X149287619Y-51189047D01*
X149287619Y-51379523D01*
X149249523Y-51455714D01*
X149211428Y-51493809D01*
X149135238Y-51531904D01*
X148906666Y-51531904D01*
X148830476Y-51493809D01*
X148792380Y-51455714D01*
X150011428Y-50731904D02*
X149630476Y-50731904D01*
X149592380Y-51112857D01*
X149630476Y-51074761D01*
X149706666Y-51036666D01*
X149897142Y-51036666D01*
X149973333Y-51074761D01*
X150011428Y-51112857D01*
X150049523Y-51189047D01*
X150049523Y-51379523D01*
X150011428Y-51455714D01*
X149973333Y-51493809D01*
X149897142Y-51531904D01*
X149706666Y-51531904D01*
X149630476Y-51493809D01*
X149592380Y-51455714D01*
X142075714Y-51425714D02*
X142037619Y-51463809D01*
X141923333Y-51501904D01*
X141847142Y-51501904D01*
X141732857Y-51463809D01*
X141656666Y-51387619D01*
X141618571Y-51311428D01*
X141580476Y-51159047D01*
X141580476Y-51044761D01*
X141618571Y-50892380D01*
X141656666Y-50816190D01*
X141732857Y-50740000D01*
X141847142Y-50701904D01*
X141923333Y-50701904D01*
X142037619Y-50740000D01*
X142075714Y-50778095D01*
X142342380Y-50701904D02*
X142837619Y-50701904D01*
X142570952Y-51006666D01*
X142685238Y-51006666D01*
X142761428Y-51044761D01*
X142799523Y-51082857D01*
X142837619Y-51159047D01*
X142837619Y-51349523D01*
X142799523Y-51425714D01*
X142761428Y-51463809D01*
X142685238Y-51501904D01*
X142456666Y-51501904D01*
X142380476Y-51463809D01*
X142342380Y-51425714D01*
X143523333Y-50701904D02*
X143370952Y-50701904D01*
X143294761Y-50740000D01*
X143256666Y-50778095D01*
X143180476Y-50892380D01*
X143142380Y-51044761D01*
X143142380Y-51349523D01*
X143180476Y-51425714D01*
X143218571Y-51463809D01*
X143294761Y-51501904D01*
X143447142Y-51501904D01*
X143523333Y-51463809D01*
X143561428Y-51425714D01*
X143599523Y-51349523D01*
X143599523Y-51159047D01*
X143561428Y-51082857D01*
X143523333Y-51044761D01*
X143447142Y-51006666D01*
X143294761Y-51006666D01*
X143218571Y-51044761D01*
X143180476Y-51082857D01*
X143142380Y-51159047D01*
X136045714Y-51385714D02*
X136007619Y-51423809D01*
X135893333Y-51461904D01*
X135817142Y-51461904D01*
X135702857Y-51423809D01*
X135626666Y-51347619D01*
X135588571Y-51271428D01*
X135550476Y-51119047D01*
X135550476Y-51004761D01*
X135588571Y-50852380D01*
X135626666Y-50776190D01*
X135702857Y-50700000D01*
X135817142Y-50661904D01*
X135893333Y-50661904D01*
X136007619Y-50700000D01*
X136045714Y-50738095D01*
X136312380Y-50661904D02*
X136807619Y-50661904D01*
X136540952Y-50966666D01*
X136655238Y-50966666D01*
X136731428Y-51004761D01*
X136769523Y-51042857D01*
X136807619Y-51119047D01*
X136807619Y-51309523D01*
X136769523Y-51385714D01*
X136731428Y-51423809D01*
X136655238Y-51461904D01*
X136426666Y-51461904D01*
X136350476Y-51423809D01*
X136312380Y-51385714D01*
X137074285Y-50661904D02*
X137607619Y-50661904D01*
X137264761Y-51461904D01*
X121749523Y-84061904D02*
X121749523Y-83261904D01*
X121940000Y-83261904D01*
X122054285Y-83300000D01*
X122130476Y-83376190D01*
X122168571Y-83452380D01*
X122206666Y-83604761D01*
X122206666Y-83719047D01*
X122168571Y-83871428D01*
X122130476Y-83947619D01*
X122054285Y-84023809D01*
X121940000Y-84061904D01*
X121749523Y-84061904D01*
X122473333Y-83261904D02*
X122968571Y-83261904D01*
X122701904Y-83566666D01*
X122816190Y-83566666D01*
X122892380Y-83604761D01*
X122930476Y-83642857D01*
X122968571Y-83719047D01*
X122968571Y-83909523D01*
X122930476Y-83985714D01*
X122892380Y-84023809D01*
X122816190Y-84061904D01*
X122587619Y-84061904D01*
X122511428Y-84023809D01*
X122473333Y-83985714D01*
X126739523Y-84051904D02*
X126739523Y-83251904D01*
X126930000Y-83251904D01*
X127044285Y-83290000D01*
X127120476Y-83366190D01*
X127158571Y-83442380D01*
X127196666Y-83594761D01*
X127196666Y-83709047D01*
X127158571Y-83861428D01*
X127120476Y-83937619D01*
X127044285Y-84013809D01*
X126930000Y-84051904D01*
X126739523Y-84051904D01*
X127882380Y-83518571D02*
X127882380Y-84051904D01*
X127691904Y-83213809D02*
X127501428Y-83785238D01*
X127996666Y-83785238D01*
X131749523Y-84051904D02*
X131749523Y-83251904D01*
X131940000Y-83251904D01*
X132054285Y-83290000D01*
X132130476Y-83366190D01*
X132168571Y-83442380D01*
X132206666Y-83594761D01*
X132206666Y-83709047D01*
X132168571Y-83861428D01*
X132130476Y-83937619D01*
X132054285Y-84013809D01*
X131940000Y-84051904D01*
X131749523Y-84051904D01*
X132930476Y-83251904D02*
X132549523Y-83251904D01*
X132511428Y-83632857D01*
X132549523Y-83594761D01*
X132625714Y-83556666D01*
X132816190Y-83556666D01*
X132892380Y-83594761D01*
X132930476Y-83632857D01*
X132968571Y-83709047D01*
X132968571Y-83899523D01*
X132930476Y-83975714D01*
X132892380Y-84013809D01*
X132816190Y-84051904D01*
X132625714Y-84051904D01*
X132549523Y-84013809D01*
X132511428Y-83975714D01*
X136839523Y-84051904D02*
X136839523Y-83251904D01*
X137030000Y-83251904D01*
X137144285Y-83290000D01*
X137220476Y-83366190D01*
X137258571Y-83442380D01*
X137296666Y-83594761D01*
X137296666Y-83709047D01*
X137258571Y-83861428D01*
X137220476Y-83937619D01*
X137144285Y-84013809D01*
X137030000Y-84051904D01*
X136839523Y-84051904D01*
X137982380Y-83251904D02*
X137830000Y-83251904D01*
X137753809Y-83290000D01*
X137715714Y-83328095D01*
X137639523Y-83442380D01*
X137601428Y-83594761D01*
X137601428Y-83899523D01*
X137639523Y-83975714D01*
X137677619Y-84013809D01*
X137753809Y-84051904D01*
X137906190Y-84051904D01*
X137982380Y-84013809D01*
X138020476Y-83975714D01*
X138058571Y-83899523D01*
X138058571Y-83709047D01*
X138020476Y-83632857D01*
X137982380Y-83594761D01*
X137906190Y-83556666D01*
X137753809Y-83556666D01*
X137677619Y-83594761D01*
X137639523Y-83632857D01*
X137601428Y-83709047D01*
X134629523Y-128351904D02*
X134629523Y-127551904D01*
X134820000Y-127551904D01*
X134934285Y-127590000D01*
X135010476Y-127666190D01*
X135048571Y-127742380D01*
X135086666Y-127894761D01*
X135086666Y-128009047D01*
X135048571Y-128161428D01*
X135010476Y-128237619D01*
X134934285Y-128313809D01*
X134820000Y-128351904D01*
X134629523Y-128351904D01*
X135543809Y-127894761D02*
X135467619Y-127856666D01*
X135429523Y-127818571D01*
X135391428Y-127742380D01*
X135391428Y-127704285D01*
X135429523Y-127628095D01*
X135467619Y-127590000D01*
X135543809Y-127551904D01*
X135696190Y-127551904D01*
X135772380Y-127590000D01*
X135810476Y-127628095D01*
X135848571Y-127704285D01*
X135848571Y-127742380D01*
X135810476Y-127818571D01*
X135772380Y-127856666D01*
X135696190Y-127894761D01*
X135543809Y-127894761D01*
X135467619Y-127932857D01*
X135429523Y-127970952D01*
X135391428Y-128047142D01*
X135391428Y-128199523D01*
X135429523Y-128275714D01*
X135467619Y-128313809D01*
X135543809Y-128351904D01*
X135696190Y-128351904D01*
X135772380Y-128313809D01*
X135810476Y-128275714D01*
X135848571Y-128199523D01*
X135848571Y-128047142D01*
X135810476Y-127970952D01*
X135772380Y-127932857D01*
X135696190Y-127894761D01*
X134618571Y-125351904D02*
X134618571Y-124551904D01*
X134809047Y-124551904D01*
X134923333Y-124590000D01*
X134999523Y-124666190D01*
X135037619Y-124742380D01*
X135075714Y-124894761D01*
X135075714Y-125009047D01*
X135037619Y-125161428D01*
X134999523Y-125237619D01*
X134923333Y-125313809D01*
X134809047Y-125351904D01*
X134618571Y-125351904D01*
X135837619Y-125351904D02*
X135380476Y-125351904D01*
X135609047Y-125351904D02*
X135609047Y-124551904D01*
X135532857Y-124666190D01*
X135456666Y-124742380D01*
X135380476Y-124780476D01*
X136332857Y-124551904D02*
X136409047Y-124551904D01*
X136485238Y-124590000D01*
X136523333Y-124628095D01*
X136561428Y-124704285D01*
X136599523Y-124856666D01*
X136599523Y-125047142D01*
X136561428Y-125199523D01*
X136523333Y-125275714D01*
X136485238Y-125313809D01*
X136409047Y-125351904D01*
X136332857Y-125351904D01*
X136256666Y-125313809D01*
X136218571Y-125275714D01*
X136180476Y-125199523D01*
X136142380Y-125047142D01*
X136142380Y-124856666D01*
X136180476Y-124704285D01*
X136218571Y-124628095D01*
X136256666Y-124590000D01*
X136332857Y-124551904D01*
X145528571Y-128361904D02*
X145528571Y-127561904D01*
X145719047Y-127561904D01*
X145833333Y-127600000D01*
X145909523Y-127676190D01*
X145947619Y-127752380D01*
X145985714Y-127904761D01*
X145985714Y-128019047D01*
X145947619Y-128171428D01*
X145909523Y-128247619D01*
X145833333Y-128323809D01*
X145719047Y-128361904D01*
X145528571Y-128361904D01*
X146747619Y-128361904D02*
X146290476Y-128361904D01*
X146519047Y-128361904D02*
X146519047Y-127561904D01*
X146442857Y-127676190D01*
X146366666Y-127752380D01*
X146290476Y-127790476D01*
X147052380Y-127638095D02*
X147090476Y-127600000D01*
X147166666Y-127561904D01*
X147357142Y-127561904D01*
X147433333Y-127600000D01*
X147471428Y-127638095D01*
X147509523Y-127714285D01*
X147509523Y-127790476D01*
X147471428Y-127904761D01*
X147014285Y-128361904D01*
X147509523Y-128361904D01*
X145528571Y-125361904D02*
X145528571Y-124561904D01*
X145719047Y-124561904D01*
X145833333Y-124600000D01*
X145909523Y-124676190D01*
X145947619Y-124752380D01*
X145985714Y-124904761D01*
X145985714Y-125019047D01*
X145947619Y-125171428D01*
X145909523Y-125247619D01*
X145833333Y-125323809D01*
X145719047Y-125361904D01*
X145528571Y-125361904D01*
X146747619Y-125361904D02*
X146290476Y-125361904D01*
X146519047Y-125361904D02*
X146519047Y-124561904D01*
X146442857Y-124676190D01*
X146366666Y-124752380D01*
X146290476Y-124790476D01*
X147433333Y-124828571D02*
X147433333Y-125361904D01*
X147242857Y-124523809D02*
X147052380Y-125095238D01*
X147547619Y-125095238D01*
X153148571Y-84091904D02*
X153148571Y-83291904D01*
X153339047Y-83291904D01*
X153453333Y-83330000D01*
X153529523Y-83406190D01*
X153567619Y-83482380D01*
X153605714Y-83634761D01*
X153605714Y-83749047D01*
X153567619Y-83901428D01*
X153529523Y-83977619D01*
X153453333Y-84053809D01*
X153339047Y-84091904D01*
X153148571Y-84091904D01*
X154367619Y-84091904D02*
X153910476Y-84091904D01*
X154139047Y-84091904D02*
X154139047Y-83291904D01*
X154062857Y-83406190D01*
X153986666Y-83482380D01*
X153910476Y-83520476D01*
X155091428Y-83291904D02*
X154710476Y-83291904D01*
X154672380Y-83672857D01*
X154710476Y-83634761D01*
X154786666Y-83596666D01*
X154977142Y-83596666D01*
X155053333Y-83634761D01*
X155091428Y-83672857D01*
X155129523Y-83749047D01*
X155129523Y-83939523D01*
X155091428Y-84015714D01*
X155053333Y-84053809D01*
X154977142Y-84091904D01*
X154786666Y-84091904D01*
X154710476Y-84053809D01*
X154672380Y-84015714D01*
X158188571Y-84081904D02*
X158188571Y-83281904D01*
X158379047Y-83281904D01*
X158493333Y-83320000D01*
X158569523Y-83396190D01*
X158607619Y-83472380D01*
X158645714Y-83624761D01*
X158645714Y-83739047D01*
X158607619Y-83891428D01*
X158569523Y-83967619D01*
X158493333Y-84043809D01*
X158379047Y-84081904D01*
X158188571Y-84081904D01*
X159407619Y-84081904D02*
X158950476Y-84081904D01*
X159179047Y-84081904D02*
X159179047Y-83281904D01*
X159102857Y-83396190D01*
X159026666Y-83472380D01*
X158950476Y-83510476D01*
X160093333Y-83281904D02*
X159940952Y-83281904D01*
X159864761Y-83320000D01*
X159826666Y-83358095D01*
X159750476Y-83472380D01*
X159712380Y-83624761D01*
X159712380Y-83929523D01*
X159750476Y-84005714D01*
X159788571Y-84043809D01*
X159864761Y-84081904D01*
X160017142Y-84081904D01*
X160093333Y-84043809D01*
X160131428Y-84005714D01*
X160169523Y-83929523D01*
X160169523Y-83739047D01*
X160131428Y-83662857D01*
X160093333Y-83624761D01*
X160017142Y-83586666D01*
X159864761Y-83586666D01*
X159788571Y-83624761D01*
X159750476Y-83662857D01*
X159712380Y-83739047D01*
X163238571Y-84091904D02*
X163238571Y-83291904D01*
X163429047Y-83291904D01*
X163543333Y-83330000D01*
X163619523Y-83406190D01*
X163657619Y-83482380D01*
X163695714Y-83634761D01*
X163695714Y-83749047D01*
X163657619Y-83901428D01*
X163619523Y-83977619D01*
X163543333Y-84053809D01*
X163429047Y-84091904D01*
X163238571Y-84091904D01*
X164457619Y-84091904D02*
X164000476Y-84091904D01*
X164229047Y-84091904D02*
X164229047Y-83291904D01*
X164152857Y-83406190D01*
X164076666Y-83482380D01*
X164000476Y-83520476D01*
X164724285Y-83291904D02*
X165257619Y-83291904D01*
X164914761Y-84091904D01*
X168228571Y-84081904D02*
X168228571Y-83281904D01*
X168419047Y-83281904D01*
X168533333Y-83320000D01*
X168609523Y-83396190D01*
X168647619Y-83472380D01*
X168685714Y-83624761D01*
X168685714Y-83739047D01*
X168647619Y-83891428D01*
X168609523Y-83967619D01*
X168533333Y-84043809D01*
X168419047Y-84081904D01*
X168228571Y-84081904D01*
X169447619Y-84081904D02*
X168990476Y-84081904D01*
X169219047Y-84081904D02*
X169219047Y-83281904D01*
X169142857Y-83396190D01*
X169066666Y-83472380D01*
X168990476Y-83510476D01*
X169904761Y-83624761D02*
X169828571Y-83586666D01*
X169790476Y-83548571D01*
X169752380Y-83472380D01*
X169752380Y-83434285D01*
X169790476Y-83358095D01*
X169828571Y-83320000D01*
X169904761Y-83281904D01*
X170057142Y-83281904D01*
X170133333Y-83320000D01*
X170171428Y-83358095D01*
X170209523Y-83434285D01*
X170209523Y-83472380D01*
X170171428Y-83548571D01*
X170133333Y-83586666D01*
X170057142Y-83624761D01*
X169904761Y-83624761D01*
X169828571Y-83662857D01*
X169790476Y-83700952D01*
X169752380Y-83777142D01*
X169752380Y-83929523D01*
X169790476Y-84005714D01*
X169828571Y-84043809D01*
X169904761Y-84081904D01*
X170057142Y-84081904D01*
X170133333Y-84043809D01*
X170171428Y-84005714D01*
X170209523Y-83929523D01*
X170209523Y-83777142D01*
X170171428Y-83700952D01*
X170133333Y-83662857D01*
X170057142Y-83624761D01*
X159308571Y-128341904D02*
X159308571Y-127541904D01*
X159499047Y-127541904D01*
X159613333Y-127580000D01*
X159689523Y-127656190D01*
X159727619Y-127732380D01*
X159765714Y-127884761D01*
X159765714Y-127999047D01*
X159727619Y-128151428D01*
X159689523Y-128227619D01*
X159613333Y-128303809D01*
X159499047Y-128341904D01*
X159308571Y-128341904D01*
X160070476Y-127618095D02*
X160108571Y-127580000D01*
X160184761Y-127541904D01*
X160375238Y-127541904D01*
X160451428Y-127580000D01*
X160489523Y-127618095D01*
X160527619Y-127694285D01*
X160527619Y-127770476D01*
X160489523Y-127884761D01*
X160032380Y-128341904D01*
X160527619Y-128341904D01*
X161022857Y-127541904D02*
X161099047Y-127541904D01*
X161175238Y-127580000D01*
X161213333Y-127618095D01*
X161251428Y-127694285D01*
X161289523Y-127846666D01*
X161289523Y-128037142D01*
X161251428Y-128189523D01*
X161213333Y-128265714D01*
X161175238Y-128303809D01*
X161099047Y-128341904D01*
X161022857Y-128341904D01*
X160946666Y-128303809D01*
X160908571Y-128265714D01*
X160870476Y-128189523D01*
X160832380Y-128037142D01*
X160832380Y-127846666D01*
X160870476Y-127694285D01*
X160908571Y-127618095D01*
X160946666Y-127580000D01*
X161022857Y-127541904D01*
X159298571Y-125341904D02*
X159298571Y-124541904D01*
X159489047Y-124541904D01*
X159603333Y-124580000D01*
X159679523Y-124656190D01*
X159717619Y-124732380D01*
X159755714Y-124884761D01*
X159755714Y-124999047D01*
X159717619Y-125151428D01*
X159679523Y-125227619D01*
X159603333Y-125303809D01*
X159489047Y-125341904D01*
X159298571Y-125341904D01*
X160060476Y-124618095D02*
X160098571Y-124580000D01*
X160174761Y-124541904D01*
X160365238Y-124541904D01*
X160441428Y-124580000D01*
X160479523Y-124618095D01*
X160517619Y-124694285D01*
X160517619Y-124770476D01*
X160479523Y-124884761D01*
X160022380Y-125341904D01*
X160517619Y-125341904D01*
X160822380Y-124618095D02*
X160860476Y-124580000D01*
X160936666Y-124541904D01*
X161127142Y-124541904D01*
X161203333Y-124580000D01*
X161241428Y-124618095D01*
X161279523Y-124694285D01*
X161279523Y-124770476D01*
X161241428Y-124884761D01*
X160784285Y-125341904D01*
X161279523Y-125341904D01*
X171348571Y-128331904D02*
X171348571Y-127531904D01*
X171539047Y-127531904D01*
X171653333Y-127570000D01*
X171729523Y-127646190D01*
X171767619Y-127722380D01*
X171805714Y-127874761D01*
X171805714Y-127989047D01*
X171767619Y-128141428D01*
X171729523Y-128217619D01*
X171653333Y-128293809D01*
X171539047Y-128331904D01*
X171348571Y-128331904D01*
X172110476Y-127608095D02*
X172148571Y-127570000D01*
X172224761Y-127531904D01*
X172415238Y-127531904D01*
X172491428Y-127570000D01*
X172529523Y-127608095D01*
X172567619Y-127684285D01*
X172567619Y-127760476D01*
X172529523Y-127874761D01*
X172072380Y-128331904D01*
X172567619Y-128331904D01*
X173253333Y-127798571D02*
X173253333Y-128331904D01*
X173062857Y-127493809D02*
X172872380Y-128065238D01*
X173367619Y-128065238D01*
X171338571Y-125331904D02*
X171338571Y-124531904D01*
X171529047Y-124531904D01*
X171643333Y-124570000D01*
X171719523Y-124646190D01*
X171757619Y-124722380D01*
X171795714Y-124874761D01*
X171795714Y-124989047D01*
X171757619Y-125141428D01*
X171719523Y-125217619D01*
X171643333Y-125293809D01*
X171529047Y-125331904D01*
X171338571Y-125331904D01*
X172100476Y-124608095D02*
X172138571Y-124570000D01*
X172214761Y-124531904D01*
X172405238Y-124531904D01*
X172481428Y-124570000D01*
X172519523Y-124608095D01*
X172557619Y-124684285D01*
X172557619Y-124760476D01*
X172519523Y-124874761D01*
X172062380Y-125331904D01*
X172557619Y-125331904D01*
X173243333Y-124531904D02*
X173090952Y-124531904D01*
X173014761Y-124570000D01*
X172976666Y-124608095D01*
X172900476Y-124722380D01*
X172862380Y-124874761D01*
X172862380Y-125179523D01*
X172900476Y-125255714D01*
X172938571Y-125293809D01*
X173014761Y-125331904D01*
X173167142Y-125331904D01*
X173243333Y-125293809D01*
X173281428Y-125255714D01*
X173319523Y-125179523D01*
X173319523Y-124989047D01*
X173281428Y-124912857D01*
X173243333Y-124874761D01*
X173167142Y-124836666D01*
X173014761Y-124836666D01*
X172938571Y-124874761D01*
X172900476Y-124912857D01*
X172862380Y-124989047D01*
X122108571Y-67971904D02*
X122108571Y-67171904D01*
X122299047Y-67171904D01*
X122413333Y-67210000D01*
X122489523Y-67286190D01*
X122527619Y-67362380D01*
X122565714Y-67514761D01*
X122565714Y-67629047D01*
X122527619Y-67781428D01*
X122489523Y-67857619D01*
X122413333Y-67933809D01*
X122299047Y-67971904D01*
X122108571Y-67971904D01*
X122870476Y-67248095D02*
X122908571Y-67210000D01*
X122984761Y-67171904D01*
X123175238Y-67171904D01*
X123251428Y-67210000D01*
X123289523Y-67248095D01*
X123327619Y-67324285D01*
X123327619Y-67400476D01*
X123289523Y-67514761D01*
X122832380Y-67971904D01*
X123327619Y-67971904D01*
X123594285Y-67171904D02*
X124127619Y-67171904D01*
X123784761Y-67971904D01*
X155181904Y-65231428D02*
X154381904Y-65231428D01*
X154381904Y-65040952D01*
X154420000Y-64926666D01*
X154496190Y-64850476D01*
X154572380Y-64812380D01*
X154724761Y-64774285D01*
X154839047Y-64774285D01*
X154991428Y-64812380D01*
X155067619Y-64850476D01*
X155143809Y-64926666D01*
X155181904Y-65040952D01*
X155181904Y-65231428D01*
X154458095Y-64469523D02*
X154420000Y-64431428D01*
X154381904Y-64355238D01*
X154381904Y-64164761D01*
X154420000Y-64088571D01*
X154458095Y-64050476D01*
X154534285Y-64012380D01*
X154610476Y-64012380D01*
X154724761Y-64050476D01*
X155181904Y-64507619D01*
X155181904Y-64012380D01*
X154724761Y-63555238D02*
X154686666Y-63631428D01*
X154648571Y-63669523D01*
X154572380Y-63707619D01*
X154534285Y-63707619D01*
X154458095Y-63669523D01*
X154420000Y-63631428D01*
X154381904Y-63555238D01*
X154381904Y-63402857D01*
X154420000Y-63326666D01*
X154458095Y-63288571D01*
X154534285Y-63250476D01*
X154572380Y-63250476D01*
X154648571Y-63288571D01*
X154686666Y-63326666D01*
X154724761Y-63402857D01*
X154724761Y-63555238D01*
X154762857Y-63631428D01*
X154800952Y-63669523D01*
X154877142Y-63707619D01*
X155029523Y-63707619D01*
X155105714Y-63669523D01*
X155143809Y-63631428D01*
X155181904Y-63555238D01*
X155181904Y-63402857D01*
X155143809Y-63326666D01*
X155105714Y-63288571D01*
X155029523Y-63250476D01*
X154877142Y-63250476D01*
X154800952Y-63288571D01*
X154762857Y-63326666D01*
X154724761Y-63402857D01*
X151641904Y-64411428D02*
X150841904Y-64411428D01*
X150841904Y-64220952D01*
X150880000Y-64106666D01*
X150956190Y-64030476D01*
X151032380Y-63992380D01*
X151184761Y-63954285D01*
X151299047Y-63954285D01*
X151451428Y-63992380D01*
X151527619Y-64030476D01*
X151603809Y-64106666D01*
X151641904Y-64220952D01*
X151641904Y-64411428D01*
X150918095Y-63649523D02*
X150880000Y-63611428D01*
X150841904Y-63535238D01*
X150841904Y-63344761D01*
X150880000Y-63268571D01*
X150918095Y-63230476D01*
X150994285Y-63192380D01*
X151070476Y-63192380D01*
X151184761Y-63230476D01*
X151641904Y-63687619D01*
X151641904Y-63192380D01*
X151641904Y-62811428D02*
X151641904Y-62659047D01*
X151603809Y-62582857D01*
X151565714Y-62544761D01*
X151451428Y-62468571D01*
X151299047Y-62430476D01*
X150994285Y-62430476D01*
X150918095Y-62468571D01*
X150880000Y-62506666D01*
X150841904Y-62582857D01*
X150841904Y-62735238D01*
X150880000Y-62811428D01*
X150918095Y-62849523D01*
X150994285Y-62887619D01*
X151184761Y-62887619D01*
X151260952Y-62849523D01*
X151299047Y-62811428D01*
X151337142Y-62735238D01*
X151337142Y-62582857D01*
X151299047Y-62506666D01*
X151260952Y-62468571D01*
X151184761Y-62430476D01*
X140911904Y-65221428D02*
X140111904Y-65221428D01*
X140111904Y-65030952D01*
X140150000Y-64916666D01*
X140226190Y-64840476D01*
X140302380Y-64802380D01*
X140454761Y-64764285D01*
X140569047Y-64764285D01*
X140721428Y-64802380D01*
X140797619Y-64840476D01*
X140873809Y-64916666D01*
X140911904Y-65030952D01*
X140911904Y-65221428D01*
X140111904Y-64497619D02*
X140111904Y-64002380D01*
X140416666Y-64269047D01*
X140416666Y-64154761D01*
X140454761Y-64078571D01*
X140492857Y-64040476D01*
X140569047Y-64002380D01*
X140759523Y-64002380D01*
X140835714Y-64040476D01*
X140873809Y-64078571D01*
X140911904Y-64154761D01*
X140911904Y-64383333D01*
X140873809Y-64459523D01*
X140835714Y-64497619D01*
X140111904Y-63507142D02*
X140111904Y-63430952D01*
X140150000Y-63354761D01*
X140188095Y-63316666D01*
X140264285Y-63278571D01*
X140416666Y-63240476D01*
X140607142Y-63240476D01*
X140759523Y-63278571D01*
X140835714Y-63316666D01*
X140873809Y-63354761D01*
X140911904Y-63430952D01*
X140911904Y-63507142D01*
X140873809Y-63583333D01*
X140835714Y-63621428D01*
X140759523Y-63659523D01*
X140607142Y-63697619D01*
X140416666Y-63697619D01*
X140264285Y-63659523D01*
X140188095Y-63621428D01*
X140150000Y-63583333D01*
X140111904Y-63507142D01*
X137311904Y-65211428D02*
X136511904Y-65211428D01*
X136511904Y-65020952D01*
X136550000Y-64906666D01*
X136626190Y-64830476D01*
X136702380Y-64792380D01*
X136854761Y-64754285D01*
X136969047Y-64754285D01*
X137121428Y-64792380D01*
X137197619Y-64830476D01*
X137273809Y-64906666D01*
X137311904Y-65020952D01*
X137311904Y-65211428D01*
X136511904Y-64487619D02*
X136511904Y-63992380D01*
X136816666Y-64259047D01*
X136816666Y-64144761D01*
X136854761Y-64068571D01*
X136892857Y-64030476D01*
X136969047Y-63992380D01*
X137159523Y-63992380D01*
X137235714Y-64030476D01*
X137273809Y-64068571D01*
X137311904Y-64144761D01*
X137311904Y-64373333D01*
X137273809Y-64449523D01*
X137235714Y-64487619D01*
X137311904Y-63230476D02*
X137311904Y-63687619D01*
X137311904Y-63459047D02*
X136511904Y-63459047D01*
X136626190Y-63535238D01*
X136702380Y-63611428D01*
X136740476Y-63687619D01*
X120042857Y-60286666D02*
X120042857Y-60553333D01*
X120461904Y-60553333D02*
X119661904Y-60553333D01*
X119661904Y-60172380D01*
X120461904Y-59448571D02*
X120461904Y-59905714D01*
X120461904Y-59677142D02*
X119661904Y-59677142D01*
X119776190Y-59753333D01*
X119852380Y-59829523D01*
X119890476Y-59905714D01*
X120901904Y-55123333D02*
X120901904Y-55504285D01*
X120101904Y-55504285D01*
X120901904Y-54437619D02*
X120901904Y-54894761D01*
X120901904Y-54666190D02*
X120101904Y-54666190D01*
X120216190Y-54742380D01*
X120292380Y-54818571D01*
X120330476Y-54894761D01*
X118415714Y-43282380D02*
X118415714Y-42282380D01*
X118796666Y-42282380D01*
X118891904Y-42330000D01*
X118939523Y-42377619D01*
X118987142Y-42472857D01*
X118987142Y-42615714D01*
X118939523Y-42710952D01*
X118891904Y-42758571D01*
X118796666Y-42806190D01*
X118415714Y-42806190D01*
X119939523Y-43282380D02*
X119368095Y-43282380D01*
X119653809Y-43282380D02*
X119653809Y-42282380D01*
X119558571Y-42425238D01*
X119463333Y-42520476D01*
X119368095Y-42568095D01*
X120796666Y-42615714D02*
X120796666Y-43282380D01*
X120558571Y-42234761D02*
X120320476Y-42949047D01*
X120939523Y-42949047D01*
X130276666Y-56311904D02*
X130010000Y-55930952D01*
X129819523Y-56311904D02*
X129819523Y-55511904D01*
X130124285Y-55511904D01*
X130200476Y-55550000D01*
X130238571Y-55588095D01*
X130276666Y-55664285D01*
X130276666Y-55778571D01*
X130238571Y-55854761D01*
X130200476Y-55892857D01*
X130124285Y-55930952D01*
X129819523Y-55930952D01*
X131038571Y-56311904D02*
X130581428Y-56311904D01*
X130810000Y-56311904D02*
X130810000Y-55511904D01*
X130733809Y-55626190D01*
X130657619Y-55702380D01*
X130581428Y-55740476D01*
X145871904Y-74553333D02*
X145490952Y-74820000D01*
X145871904Y-75010476D02*
X145071904Y-75010476D01*
X145071904Y-74705714D01*
X145110000Y-74629523D01*
X145148095Y-74591428D01*
X145224285Y-74553333D01*
X145338571Y-74553333D01*
X145414761Y-74591428D01*
X145452857Y-74629523D01*
X145490952Y-74705714D01*
X145490952Y-75010476D01*
X145148095Y-74248571D02*
X145110000Y-74210476D01*
X145071904Y-74134285D01*
X145071904Y-73943809D01*
X145110000Y-73867619D01*
X145148095Y-73829523D01*
X145224285Y-73791428D01*
X145300476Y-73791428D01*
X145414761Y-73829523D01*
X145871904Y-74286666D01*
X145871904Y-73791428D01*
X148371904Y-74543333D02*
X147990952Y-74810000D01*
X148371904Y-75000476D02*
X147571904Y-75000476D01*
X147571904Y-74695714D01*
X147610000Y-74619523D01*
X147648095Y-74581428D01*
X147724285Y-74543333D01*
X147838571Y-74543333D01*
X147914761Y-74581428D01*
X147952857Y-74619523D01*
X147990952Y-74695714D01*
X147990952Y-75000476D01*
X147571904Y-74276666D02*
X147571904Y-73781428D01*
X147876666Y-74048095D01*
X147876666Y-73933809D01*
X147914761Y-73857619D01*
X147952857Y-73819523D01*
X148029047Y-73781428D01*
X148219523Y-73781428D01*
X148295714Y-73819523D01*
X148333809Y-73857619D01*
X148371904Y-73933809D01*
X148371904Y-74162380D01*
X148333809Y-74238571D01*
X148295714Y-74276666D01*
X143501904Y-74513333D02*
X143120952Y-74780000D01*
X143501904Y-74970476D02*
X142701904Y-74970476D01*
X142701904Y-74665714D01*
X142740000Y-74589523D01*
X142778095Y-74551428D01*
X142854285Y-74513333D01*
X142968571Y-74513333D01*
X143044761Y-74551428D01*
X143082857Y-74589523D01*
X143120952Y-74665714D01*
X143120952Y-74970476D01*
X142968571Y-73827619D02*
X143501904Y-73827619D01*
X142663809Y-74018095D02*
X143235238Y-74208571D01*
X143235238Y-73713333D01*
X129761904Y-64413333D02*
X129380952Y-64680000D01*
X129761904Y-64870476D02*
X128961904Y-64870476D01*
X128961904Y-64565714D01*
X129000000Y-64489523D01*
X129038095Y-64451428D01*
X129114285Y-64413333D01*
X129228571Y-64413333D01*
X129304761Y-64451428D01*
X129342857Y-64489523D01*
X129380952Y-64565714D01*
X129380952Y-64870476D01*
X128961904Y-63689523D02*
X128961904Y-64070476D01*
X129342857Y-64108571D01*
X129304761Y-64070476D01*
X129266666Y-63994285D01*
X129266666Y-63803809D01*
X129304761Y-63727619D01*
X129342857Y-63689523D01*
X129419047Y-63651428D01*
X129609523Y-63651428D01*
X129685714Y-63689523D01*
X129723809Y-63727619D01*
X129761904Y-63803809D01*
X129761904Y-63994285D01*
X129723809Y-64070476D01*
X129685714Y-64108571D01*
X126091904Y-64383333D02*
X125710952Y-64650000D01*
X126091904Y-64840476D02*
X125291904Y-64840476D01*
X125291904Y-64535714D01*
X125330000Y-64459523D01*
X125368095Y-64421428D01*
X125444285Y-64383333D01*
X125558571Y-64383333D01*
X125634761Y-64421428D01*
X125672857Y-64459523D01*
X125710952Y-64535714D01*
X125710952Y-64840476D01*
X125291904Y-63697619D02*
X125291904Y-63850000D01*
X125330000Y-63926190D01*
X125368095Y-63964285D01*
X125482380Y-64040476D01*
X125634761Y-64078571D01*
X125939523Y-64078571D01*
X126015714Y-64040476D01*
X126053809Y-64002380D01*
X126091904Y-63926190D01*
X126091904Y-63773809D01*
X126053809Y-63697619D01*
X126015714Y-63659523D01*
X125939523Y-63621428D01*
X125749047Y-63621428D01*
X125672857Y-63659523D01*
X125634761Y-63697619D01*
X125596666Y-63773809D01*
X125596666Y-63926190D01*
X125634761Y-64002380D01*
X125672857Y-64040476D01*
X125749047Y-64078571D01*
X116776666Y-82811904D02*
X116510000Y-82430952D01*
X116319523Y-82811904D02*
X116319523Y-82011904D01*
X116624285Y-82011904D01*
X116700476Y-82050000D01*
X116738571Y-82088095D01*
X116776666Y-82164285D01*
X116776666Y-82278571D01*
X116738571Y-82354761D01*
X116700476Y-82392857D01*
X116624285Y-82430952D01*
X116319523Y-82430952D01*
X117043333Y-82011904D02*
X117576666Y-82011904D01*
X117233809Y-82811904D01*
X116816666Y-78811904D02*
X116550000Y-78430952D01*
X116359523Y-78811904D02*
X116359523Y-78011904D01*
X116664285Y-78011904D01*
X116740476Y-78050000D01*
X116778571Y-78088095D01*
X116816666Y-78164285D01*
X116816666Y-78278571D01*
X116778571Y-78354761D01*
X116740476Y-78392857D01*
X116664285Y-78430952D01*
X116359523Y-78430952D01*
X117273809Y-78354761D02*
X117197619Y-78316666D01*
X117159523Y-78278571D01*
X117121428Y-78202380D01*
X117121428Y-78164285D01*
X117159523Y-78088095D01*
X117197619Y-78050000D01*
X117273809Y-78011904D01*
X117426190Y-78011904D01*
X117502380Y-78050000D01*
X117540476Y-78088095D01*
X117578571Y-78164285D01*
X117578571Y-78202380D01*
X117540476Y-78278571D01*
X117502380Y-78316666D01*
X117426190Y-78354761D01*
X117273809Y-78354761D01*
X117197619Y-78392857D01*
X117159523Y-78430952D01*
X117121428Y-78507142D01*
X117121428Y-78659523D01*
X117159523Y-78735714D01*
X117197619Y-78773809D01*
X117273809Y-78811904D01*
X117426190Y-78811904D01*
X117502380Y-78773809D01*
X117540476Y-78735714D01*
X117578571Y-78659523D01*
X117578571Y-78507142D01*
X117540476Y-78430952D01*
X117502380Y-78392857D01*
X117426190Y-78354761D01*
X123856666Y-118281904D02*
X123590000Y-117900952D01*
X123399523Y-118281904D02*
X123399523Y-117481904D01*
X123704285Y-117481904D01*
X123780476Y-117520000D01*
X123818571Y-117558095D01*
X123856666Y-117634285D01*
X123856666Y-117748571D01*
X123818571Y-117824761D01*
X123780476Y-117862857D01*
X123704285Y-117900952D01*
X123399523Y-117900952D01*
X124237619Y-118281904D02*
X124390000Y-118281904D01*
X124466190Y-118243809D01*
X124504285Y-118205714D01*
X124580476Y-118091428D01*
X124618571Y-117939047D01*
X124618571Y-117634285D01*
X124580476Y-117558095D01*
X124542380Y-117520000D01*
X124466190Y-117481904D01*
X124313809Y-117481904D01*
X124237619Y-117520000D01*
X124199523Y-117558095D01*
X124161428Y-117634285D01*
X124161428Y-117824761D01*
X124199523Y-117900952D01*
X124237619Y-117939047D01*
X124313809Y-117977142D01*
X124466190Y-117977142D01*
X124542380Y-117939047D01*
X124580476Y-117900952D01*
X124618571Y-117824761D01*
X147791904Y-115514285D02*
X147410952Y-115780952D01*
X147791904Y-115971428D02*
X146991904Y-115971428D01*
X146991904Y-115666666D01*
X147030000Y-115590476D01*
X147068095Y-115552380D01*
X147144285Y-115514285D01*
X147258571Y-115514285D01*
X147334761Y-115552380D01*
X147372857Y-115590476D01*
X147410952Y-115666666D01*
X147410952Y-115971428D01*
X147791904Y-114752380D02*
X147791904Y-115209523D01*
X147791904Y-114980952D02*
X146991904Y-114980952D01*
X147106190Y-115057142D01*
X147182380Y-115133333D01*
X147220476Y-115209523D01*
X146991904Y-114257142D02*
X146991904Y-114180952D01*
X147030000Y-114104761D01*
X147068095Y-114066666D01*
X147144285Y-114028571D01*
X147296666Y-113990476D01*
X147487142Y-113990476D01*
X147639523Y-114028571D01*
X147715714Y-114066666D01*
X147753809Y-114104761D01*
X147791904Y-114180952D01*
X147791904Y-114257142D01*
X147753809Y-114333333D01*
X147715714Y-114371428D01*
X147639523Y-114409523D01*
X147487142Y-114447619D01*
X147296666Y-114447619D01*
X147144285Y-114409523D01*
X147068095Y-114371428D01*
X147030000Y-114333333D01*
X146991904Y-114257142D01*
X121965714Y-88051904D02*
X121699047Y-87670952D01*
X121508571Y-88051904D02*
X121508571Y-87251904D01*
X121813333Y-87251904D01*
X121889523Y-87290000D01*
X121927619Y-87328095D01*
X121965714Y-87404285D01*
X121965714Y-87518571D01*
X121927619Y-87594761D01*
X121889523Y-87632857D01*
X121813333Y-87670952D01*
X121508571Y-87670952D01*
X122727619Y-88051904D02*
X122270476Y-88051904D01*
X122499047Y-88051904D02*
X122499047Y-87251904D01*
X122422857Y-87366190D01*
X122346666Y-87442380D01*
X122270476Y-87480476D01*
X123489523Y-88051904D02*
X123032380Y-88051904D01*
X123260952Y-88051904D02*
X123260952Y-87251904D01*
X123184761Y-87366190D01*
X123108571Y-87442380D01*
X123032380Y-87480476D01*
X126765714Y-88061904D02*
X126499047Y-87680952D01*
X126308571Y-88061904D02*
X126308571Y-87261904D01*
X126613333Y-87261904D01*
X126689523Y-87300000D01*
X126727619Y-87338095D01*
X126765714Y-87414285D01*
X126765714Y-87528571D01*
X126727619Y-87604761D01*
X126689523Y-87642857D01*
X126613333Y-87680952D01*
X126308571Y-87680952D01*
X127527619Y-88061904D02*
X127070476Y-88061904D01*
X127299047Y-88061904D02*
X127299047Y-87261904D01*
X127222857Y-87376190D01*
X127146666Y-87452380D01*
X127070476Y-87490476D01*
X127832380Y-87338095D02*
X127870476Y-87300000D01*
X127946666Y-87261904D01*
X128137142Y-87261904D01*
X128213333Y-87300000D01*
X128251428Y-87338095D01*
X128289523Y-87414285D01*
X128289523Y-87490476D01*
X128251428Y-87604761D01*
X127794285Y-88061904D01*
X128289523Y-88061904D01*
X131665714Y-88091904D02*
X131399047Y-87710952D01*
X131208571Y-88091904D02*
X131208571Y-87291904D01*
X131513333Y-87291904D01*
X131589523Y-87330000D01*
X131627619Y-87368095D01*
X131665714Y-87444285D01*
X131665714Y-87558571D01*
X131627619Y-87634761D01*
X131589523Y-87672857D01*
X131513333Y-87710952D01*
X131208571Y-87710952D01*
X132427619Y-88091904D02*
X131970476Y-88091904D01*
X132199047Y-88091904D02*
X132199047Y-87291904D01*
X132122857Y-87406190D01*
X132046666Y-87482380D01*
X131970476Y-87520476D01*
X132694285Y-87291904D02*
X133189523Y-87291904D01*
X132922857Y-87596666D01*
X133037142Y-87596666D01*
X133113333Y-87634761D01*
X133151428Y-87672857D01*
X133189523Y-87749047D01*
X133189523Y-87939523D01*
X133151428Y-88015714D01*
X133113333Y-88053809D01*
X133037142Y-88091904D01*
X132808571Y-88091904D01*
X132732380Y-88053809D01*
X132694285Y-88015714D01*
X136385714Y-88081904D02*
X136119047Y-87700952D01*
X135928571Y-88081904D02*
X135928571Y-87281904D01*
X136233333Y-87281904D01*
X136309523Y-87320000D01*
X136347619Y-87358095D01*
X136385714Y-87434285D01*
X136385714Y-87548571D01*
X136347619Y-87624761D01*
X136309523Y-87662857D01*
X136233333Y-87700952D01*
X135928571Y-87700952D01*
X137147619Y-88081904D02*
X136690476Y-88081904D01*
X136919047Y-88081904D02*
X136919047Y-87281904D01*
X136842857Y-87396190D01*
X136766666Y-87472380D01*
X136690476Y-87510476D01*
X137833333Y-87548571D02*
X137833333Y-88081904D01*
X137642857Y-87243809D02*
X137452380Y-87815238D01*
X137947619Y-87815238D01*
X123601904Y-105564285D02*
X123220952Y-105830952D01*
X123601904Y-106021428D02*
X122801904Y-106021428D01*
X122801904Y-105716666D01*
X122840000Y-105640476D01*
X122878095Y-105602380D01*
X122954285Y-105564285D01*
X123068571Y-105564285D01*
X123144761Y-105602380D01*
X123182857Y-105640476D01*
X123220952Y-105716666D01*
X123220952Y-106021428D01*
X123601904Y-104802380D02*
X123601904Y-105259523D01*
X123601904Y-105030952D02*
X122801904Y-105030952D01*
X122916190Y-105107142D01*
X122992380Y-105183333D01*
X123030476Y-105259523D01*
X122801904Y-104078571D02*
X122801904Y-104459523D01*
X123182857Y-104497619D01*
X123144761Y-104459523D01*
X123106666Y-104383333D01*
X123106666Y-104192857D01*
X123144761Y-104116666D01*
X123182857Y-104078571D01*
X123259047Y-104040476D01*
X123449523Y-104040476D01*
X123525714Y-104078571D01*
X123563809Y-104116666D01*
X123601904Y-104192857D01*
X123601904Y-104383333D01*
X123563809Y-104459523D01*
X123525714Y-104497619D01*
X147331904Y-107194285D02*
X146950952Y-107460952D01*
X147331904Y-107651428D02*
X146531904Y-107651428D01*
X146531904Y-107346666D01*
X146570000Y-107270476D01*
X146608095Y-107232380D01*
X146684285Y-107194285D01*
X146798571Y-107194285D01*
X146874761Y-107232380D01*
X146912857Y-107270476D01*
X146950952Y-107346666D01*
X146950952Y-107651428D01*
X147331904Y-106432380D02*
X147331904Y-106889523D01*
X147331904Y-106660952D02*
X146531904Y-106660952D01*
X146646190Y-106737142D01*
X146722380Y-106813333D01*
X146760476Y-106889523D01*
X146531904Y-105746666D02*
X146531904Y-105899047D01*
X146570000Y-105975238D01*
X146608095Y-106013333D01*
X146722380Y-106089523D01*
X146874761Y-106127619D01*
X147179523Y-106127619D01*
X147255714Y-106089523D01*
X147293809Y-106051428D01*
X147331904Y-105975238D01*
X147331904Y-105822857D01*
X147293809Y-105746666D01*
X147255714Y-105708571D01*
X147179523Y-105670476D01*
X146989047Y-105670476D01*
X146912857Y-105708571D01*
X146874761Y-105746666D01*
X146836666Y-105822857D01*
X146836666Y-105975238D01*
X146874761Y-106051428D01*
X146912857Y-106089523D01*
X146989047Y-106127619D01*
X153965714Y-88081904D02*
X153699047Y-87700952D01*
X153508571Y-88081904D02*
X153508571Y-87281904D01*
X153813333Y-87281904D01*
X153889523Y-87320000D01*
X153927619Y-87358095D01*
X153965714Y-87434285D01*
X153965714Y-87548571D01*
X153927619Y-87624761D01*
X153889523Y-87662857D01*
X153813333Y-87700952D01*
X153508571Y-87700952D01*
X154727619Y-88081904D02*
X154270476Y-88081904D01*
X154499047Y-88081904D02*
X154499047Y-87281904D01*
X154422857Y-87396190D01*
X154346666Y-87472380D01*
X154270476Y-87510476D01*
X154994285Y-87281904D02*
X155527619Y-87281904D01*
X155184761Y-88081904D01*
X158595714Y-88151904D02*
X158329047Y-87770952D01*
X158138571Y-88151904D02*
X158138571Y-87351904D01*
X158443333Y-87351904D01*
X158519523Y-87390000D01*
X158557619Y-87428095D01*
X158595714Y-87504285D01*
X158595714Y-87618571D01*
X158557619Y-87694761D01*
X158519523Y-87732857D01*
X158443333Y-87770952D01*
X158138571Y-87770952D01*
X159357619Y-88151904D02*
X158900476Y-88151904D01*
X159129047Y-88151904D02*
X159129047Y-87351904D01*
X159052857Y-87466190D01*
X158976666Y-87542380D01*
X158900476Y-87580476D01*
X159814761Y-87694761D02*
X159738571Y-87656666D01*
X159700476Y-87618571D01*
X159662380Y-87542380D01*
X159662380Y-87504285D01*
X159700476Y-87428095D01*
X159738571Y-87390000D01*
X159814761Y-87351904D01*
X159967142Y-87351904D01*
X160043333Y-87390000D01*
X160081428Y-87428095D01*
X160119523Y-87504285D01*
X160119523Y-87542380D01*
X160081428Y-87618571D01*
X160043333Y-87656666D01*
X159967142Y-87694761D01*
X159814761Y-87694761D01*
X159738571Y-87732857D01*
X159700476Y-87770952D01*
X159662380Y-87847142D01*
X159662380Y-87999523D01*
X159700476Y-88075714D01*
X159738571Y-88113809D01*
X159814761Y-88151904D01*
X159967142Y-88151904D01*
X160043333Y-88113809D01*
X160081428Y-88075714D01*
X160119523Y-87999523D01*
X160119523Y-87847142D01*
X160081428Y-87770952D01*
X160043333Y-87732857D01*
X159967142Y-87694761D01*
X163595714Y-88051904D02*
X163329047Y-87670952D01*
X163138571Y-88051904D02*
X163138571Y-87251904D01*
X163443333Y-87251904D01*
X163519523Y-87290000D01*
X163557619Y-87328095D01*
X163595714Y-87404285D01*
X163595714Y-87518571D01*
X163557619Y-87594761D01*
X163519523Y-87632857D01*
X163443333Y-87670952D01*
X163138571Y-87670952D01*
X164357619Y-88051904D02*
X163900476Y-88051904D01*
X164129047Y-88051904D02*
X164129047Y-87251904D01*
X164052857Y-87366190D01*
X163976666Y-87442380D01*
X163900476Y-87480476D01*
X164738571Y-88051904D02*
X164890952Y-88051904D01*
X164967142Y-88013809D01*
X165005238Y-87975714D01*
X165081428Y-87861428D01*
X165119523Y-87709047D01*
X165119523Y-87404285D01*
X165081428Y-87328095D01*
X165043333Y-87290000D01*
X164967142Y-87251904D01*
X164814761Y-87251904D01*
X164738571Y-87290000D01*
X164700476Y-87328095D01*
X164662380Y-87404285D01*
X164662380Y-87594761D01*
X164700476Y-87670952D01*
X164738571Y-87709047D01*
X164814761Y-87747142D01*
X164967142Y-87747142D01*
X165043333Y-87709047D01*
X165081428Y-87670952D01*
X165119523Y-87594761D01*
X168605714Y-88061904D02*
X168339047Y-87680952D01*
X168148571Y-88061904D02*
X168148571Y-87261904D01*
X168453333Y-87261904D01*
X168529523Y-87300000D01*
X168567619Y-87338095D01*
X168605714Y-87414285D01*
X168605714Y-87528571D01*
X168567619Y-87604761D01*
X168529523Y-87642857D01*
X168453333Y-87680952D01*
X168148571Y-87680952D01*
X168910476Y-87338095D02*
X168948571Y-87300000D01*
X169024761Y-87261904D01*
X169215238Y-87261904D01*
X169291428Y-87300000D01*
X169329523Y-87338095D01*
X169367619Y-87414285D01*
X169367619Y-87490476D01*
X169329523Y-87604761D01*
X168872380Y-88061904D01*
X169367619Y-88061904D01*
X169862857Y-87261904D02*
X169939047Y-87261904D01*
X170015238Y-87300000D01*
X170053333Y-87338095D01*
X170091428Y-87414285D01*
X170129523Y-87566666D01*
X170129523Y-87757142D01*
X170091428Y-87909523D01*
X170053333Y-87985714D01*
X170015238Y-88023809D01*
X169939047Y-88061904D01*
X169862857Y-88061904D01*
X169786666Y-88023809D01*
X169748571Y-87985714D01*
X169710476Y-87909523D01*
X169672380Y-87757142D01*
X169672380Y-87566666D01*
X169710476Y-87414285D01*
X169748571Y-87338095D01*
X169786666Y-87300000D01*
X169862857Y-87261904D01*
X150625714Y-118131904D02*
X150359047Y-117750952D01*
X150168571Y-118131904D02*
X150168571Y-117331904D01*
X150473333Y-117331904D01*
X150549523Y-117370000D01*
X150587619Y-117408095D01*
X150625714Y-117484285D01*
X150625714Y-117598571D01*
X150587619Y-117674761D01*
X150549523Y-117712857D01*
X150473333Y-117750952D01*
X150168571Y-117750952D01*
X150930476Y-117408095D02*
X150968571Y-117370000D01*
X151044761Y-117331904D01*
X151235238Y-117331904D01*
X151311428Y-117370000D01*
X151349523Y-117408095D01*
X151387619Y-117484285D01*
X151387619Y-117560476D01*
X151349523Y-117674761D01*
X150892380Y-118131904D01*
X151387619Y-118131904D01*
X152149523Y-118131904D02*
X151692380Y-118131904D01*
X151920952Y-118131904D02*
X151920952Y-117331904D01*
X151844761Y-117446190D01*
X151768571Y-117522380D01*
X151692380Y-117560476D01*
X172005714Y-113481904D02*
X171739047Y-113100952D01*
X171548571Y-113481904D02*
X171548571Y-112681904D01*
X171853333Y-112681904D01*
X171929523Y-112720000D01*
X171967619Y-112758095D01*
X172005714Y-112834285D01*
X172005714Y-112948571D01*
X171967619Y-113024761D01*
X171929523Y-113062857D01*
X171853333Y-113100952D01*
X171548571Y-113100952D01*
X172310476Y-112758095D02*
X172348571Y-112720000D01*
X172424761Y-112681904D01*
X172615238Y-112681904D01*
X172691428Y-112720000D01*
X172729523Y-112758095D01*
X172767619Y-112834285D01*
X172767619Y-112910476D01*
X172729523Y-113024761D01*
X172272380Y-113481904D01*
X172767619Y-113481904D01*
X173072380Y-112758095D02*
X173110476Y-112720000D01*
X173186666Y-112681904D01*
X173377142Y-112681904D01*
X173453333Y-112720000D01*
X173491428Y-112758095D01*
X173529523Y-112834285D01*
X173529523Y-112910476D01*
X173491428Y-113024761D01*
X173034285Y-113481904D01*
X173529523Y-113481904D01*
X149931904Y-107444285D02*
X149550952Y-107710952D01*
X149931904Y-107901428D02*
X149131904Y-107901428D01*
X149131904Y-107596666D01*
X149170000Y-107520476D01*
X149208095Y-107482380D01*
X149284285Y-107444285D01*
X149398571Y-107444285D01*
X149474761Y-107482380D01*
X149512857Y-107520476D01*
X149550952Y-107596666D01*
X149550952Y-107901428D01*
X149208095Y-107139523D02*
X149170000Y-107101428D01*
X149131904Y-107025238D01*
X149131904Y-106834761D01*
X149170000Y-106758571D01*
X149208095Y-106720476D01*
X149284285Y-106682380D01*
X149360476Y-106682380D01*
X149474761Y-106720476D01*
X149931904Y-107177619D01*
X149931904Y-106682380D01*
X149131904Y-106415714D02*
X149131904Y-105920476D01*
X149436666Y-106187142D01*
X149436666Y-106072857D01*
X149474761Y-105996666D01*
X149512857Y-105958571D01*
X149589047Y-105920476D01*
X149779523Y-105920476D01*
X149855714Y-105958571D01*
X149893809Y-105996666D01*
X149931904Y-106072857D01*
X149931904Y-106301428D01*
X149893809Y-106377619D01*
X149855714Y-106415714D01*
X173321904Y-107454285D02*
X172940952Y-107720952D01*
X173321904Y-107911428D02*
X172521904Y-107911428D01*
X172521904Y-107606666D01*
X172560000Y-107530476D01*
X172598095Y-107492380D01*
X172674285Y-107454285D01*
X172788571Y-107454285D01*
X172864761Y-107492380D01*
X172902857Y-107530476D01*
X172940952Y-107606666D01*
X172940952Y-107911428D01*
X172598095Y-107149523D02*
X172560000Y-107111428D01*
X172521904Y-107035238D01*
X172521904Y-106844761D01*
X172560000Y-106768571D01*
X172598095Y-106730476D01*
X172674285Y-106692380D01*
X172750476Y-106692380D01*
X172864761Y-106730476D01*
X173321904Y-107187619D01*
X173321904Y-106692380D01*
X172788571Y-106006666D02*
X173321904Y-106006666D01*
X172483809Y-106197142D02*
X173055238Y-106387619D01*
X173055238Y-105892380D01*
X119751904Y-58244285D02*
X119370952Y-58510952D01*
X119751904Y-58701428D02*
X118951904Y-58701428D01*
X118951904Y-58396666D01*
X118990000Y-58320476D01*
X119028095Y-58282380D01*
X119104285Y-58244285D01*
X119218571Y-58244285D01*
X119294761Y-58282380D01*
X119332857Y-58320476D01*
X119370952Y-58396666D01*
X119370952Y-58701428D01*
X119028095Y-57939523D02*
X118990000Y-57901428D01*
X118951904Y-57825238D01*
X118951904Y-57634761D01*
X118990000Y-57558571D01*
X119028095Y-57520476D01*
X119104285Y-57482380D01*
X119180476Y-57482380D01*
X119294761Y-57520476D01*
X119751904Y-57977619D01*
X119751904Y-57482380D01*
X118951904Y-56758571D02*
X118951904Y-57139523D01*
X119332857Y-57177619D01*
X119294761Y-57139523D01*
X119256666Y-57063333D01*
X119256666Y-56872857D01*
X119294761Y-56796666D01*
X119332857Y-56758571D01*
X119409047Y-56720476D01*
X119599523Y-56720476D01*
X119675714Y-56758571D01*
X119713809Y-56796666D01*
X119751904Y-56872857D01*
X119751904Y-57063333D01*
X119713809Y-57139523D01*
X119675714Y-57177619D01*
X114635714Y-60451904D02*
X114369047Y-60070952D01*
X114178571Y-60451904D02*
X114178571Y-59651904D01*
X114483333Y-59651904D01*
X114559523Y-59690000D01*
X114597619Y-59728095D01*
X114635714Y-59804285D01*
X114635714Y-59918571D01*
X114597619Y-59994761D01*
X114559523Y-60032857D01*
X114483333Y-60070952D01*
X114178571Y-60070952D01*
X114940476Y-59728095D02*
X114978571Y-59690000D01*
X115054761Y-59651904D01*
X115245238Y-59651904D01*
X115321428Y-59690000D01*
X115359523Y-59728095D01*
X115397619Y-59804285D01*
X115397619Y-59880476D01*
X115359523Y-59994761D01*
X114902380Y-60451904D01*
X115397619Y-60451904D01*
X116083333Y-59651904D02*
X115930952Y-59651904D01*
X115854761Y-59690000D01*
X115816666Y-59728095D01*
X115740476Y-59842380D01*
X115702380Y-59994761D01*
X115702380Y-60299523D01*
X115740476Y-60375714D01*
X115778571Y-60413809D01*
X115854761Y-60451904D01*
X116007142Y-60451904D01*
X116083333Y-60413809D01*
X116121428Y-60375714D01*
X116159523Y-60299523D01*
X116159523Y-60109047D01*
X116121428Y-60032857D01*
X116083333Y-59994761D01*
X116007142Y-59956666D01*
X115854761Y-59956666D01*
X115778571Y-59994761D01*
X115740476Y-60032857D01*
X115702380Y-60109047D01*
X141271904Y-89214285D02*
X140890952Y-89480952D01*
X141271904Y-89671428D02*
X140471904Y-89671428D01*
X140471904Y-89366666D01*
X140510000Y-89290476D01*
X140548095Y-89252380D01*
X140624285Y-89214285D01*
X140738571Y-89214285D01*
X140814761Y-89252380D01*
X140852857Y-89290476D01*
X140890952Y-89366666D01*
X140890952Y-89671428D01*
X140548095Y-88909523D02*
X140510000Y-88871428D01*
X140471904Y-88795238D01*
X140471904Y-88604761D01*
X140510000Y-88528571D01*
X140548095Y-88490476D01*
X140624285Y-88452380D01*
X140700476Y-88452380D01*
X140814761Y-88490476D01*
X141271904Y-88947619D01*
X141271904Y-88452380D01*
X140471904Y-88185714D02*
X140471904Y-87652380D01*
X141271904Y-87995238D01*
X142705714Y-79641904D02*
X142439047Y-79260952D01*
X142248571Y-79641904D02*
X142248571Y-78841904D01*
X142553333Y-78841904D01*
X142629523Y-78880000D01*
X142667619Y-78918095D01*
X142705714Y-78994285D01*
X142705714Y-79108571D01*
X142667619Y-79184761D01*
X142629523Y-79222857D01*
X142553333Y-79260952D01*
X142248571Y-79260952D01*
X143010476Y-78918095D02*
X143048571Y-78880000D01*
X143124761Y-78841904D01*
X143315238Y-78841904D01*
X143391428Y-78880000D01*
X143429523Y-78918095D01*
X143467619Y-78994285D01*
X143467619Y-79070476D01*
X143429523Y-79184761D01*
X142972380Y-79641904D01*
X143467619Y-79641904D01*
X143924761Y-79184761D02*
X143848571Y-79146666D01*
X143810476Y-79108571D01*
X143772380Y-79032380D01*
X143772380Y-78994285D01*
X143810476Y-78918095D01*
X143848571Y-78880000D01*
X143924761Y-78841904D01*
X144077142Y-78841904D01*
X144153333Y-78880000D01*
X144191428Y-78918095D01*
X144229523Y-78994285D01*
X144229523Y-79032380D01*
X144191428Y-79108571D01*
X144153333Y-79146666D01*
X144077142Y-79184761D01*
X143924761Y-79184761D01*
X143848571Y-79222857D01*
X143810476Y-79260952D01*
X143772380Y-79337142D01*
X143772380Y-79489523D01*
X143810476Y-79565714D01*
X143848571Y-79603809D01*
X143924761Y-79641904D01*
X144077142Y-79641904D01*
X144153333Y-79603809D01*
X144191428Y-79565714D01*
X144229523Y-79489523D01*
X144229523Y-79337142D01*
X144191428Y-79260952D01*
X144153333Y-79222857D01*
X144077142Y-79184761D01*
X144431904Y-89234285D02*
X144050952Y-89500952D01*
X144431904Y-89691428D02*
X143631904Y-89691428D01*
X143631904Y-89386666D01*
X143670000Y-89310476D01*
X143708095Y-89272380D01*
X143784285Y-89234285D01*
X143898571Y-89234285D01*
X143974761Y-89272380D01*
X144012857Y-89310476D01*
X144050952Y-89386666D01*
X144050952Y-89691428D01*
X143708095Y-88929523D02*
X143670000Y-88891428D01*
X143631904Y-88815238D01*
X143631904Y-88624761D01*
X143670000Y-88548571D01*
X143708095Y-88510476D01*
X143784285Y-88472380D01*
X143860476Y-88472380D01*
X143974761Y-88510476D01*
X144431904Y-88967619D01*
X144431904Y-88472380D01*
X144431904Y-88091428D02*
X144431904Y-87939047D01*
X144393809Y-87862857D01*
X144355714Y-87824761D01*
X144241428Y-87748571D01*
X144089047Y-87710476D01*
X143784285Y-87710476D01*
X143708095Y-87748571D01*
X143670000Y-87786666D01*
X143631904Y-87862857D01*
X143631904Y-88015238D01*
X143670000Y-88091428D01*
X143708095Y-88129523D01*
X143784285Y-88167619D01*
X143974761Y-88167619D01*
X144050952Y-88129523D01*
X144089047Y-88091428D01*
X144127142Y-88015238D01*
X144127142Y-87862857D01*
X144089047Y-87786666D01*
X144050952Y-87748571D01*
X143974761Y-87710476D01*
X147415714Y-79641904D02*
X147149047Y-79260952D01*
X146958571Y-79641904D02*
X146958571Y-78841904D01*
X147263333Y-78841904D01*
X147339523Y-78880000D01*
X147377619Y-78918095D01*
X147415714Y-78994285D01*
X147415714Y-79108571D01*
X147377619Y-79184761D01*
X147339523Y-79222857D01*
X147263333Y-79260952D01*
X146958571Y-79260952D01*
X147682380Y-78841904D02*
X148177619Y-78841904D01*
X147910952Y-79146666D01*
X148025238Y-79146666D01*
X148101428Y-79184761D01*
X148139523Y-79222857D01*
X148177619Y-79299047D01*
X148177619Y-79489523D01*
X148139523Y-79565714D01*
X148101428Y-79603809D01*
X148025238Y-79641904D01*
X147796666Y-79641904D01*
X147720476Y-79603809D01*
X147682380Y-79565714D01*
X148672857Y-78841904D02*
X148749047Y-78841904D01*
X148825238Y-78880000D01*
X148863333Y-78918095D01*
X148901428Y-78994285D01*
X148939523Y-79146666D01*
X148939523Y-79337142D01*
X148901428Y-79489523D01*
X148863333Y-79565714D01*
X148825238Y-79603809D01*
X148749047Y-79641904D01*
X148672857Y-79641904D01*
X148596666Y-79603809D01*
X148558571Y-79565714D01*
X148520476Y-79489523D01*
X148482380Y-79337142D01*
X148482380Y-79146666D01*
X148520476Y-78994285D01*
X148558571Y-78918095D01*
X148596666Y-78880000D01*
X148672857Y-78841904D01*
X151385714Y-51531904D02*
X151119047Y-51150952D01*
X150928571Y-51531904D02*
X150928571Y-50731904D01*
X151233333Y-50731904D01*
X151309523Y-50770000D01*
X151347619Y-50808095D01*
X151385714Y-50884285D01*
X151385714Y-50998571D01*
X151347619Y-51074761D01*
X151309523Y-51112857D01*
X151233333Y-51150952D01*
X150928571Y-51150952D01*
X151652380Y-50731904D02*
X152147619Y-50731904D01*
X151880952Y-51036666D01*
X151995238Y-51036666D01*
X152071428Y-51074761D01*
X152109523Y-51112857D01*
X152147619Y-51189047D01*
X152147619Y-51379523D01*
X152109523Y-51455714D01*
X152071428Y-51493809D01*
X151995238Y-51531904D01*
X151766666Y-51531904D01*
X151690476Y-51493809D01*
X151652380Y-51455714D01*
X152909523Y-51531904D02*
X152452380Y-51531904D01*
X152680952Y-51531904D02*
X152680952Y-50731904D01*
X152604761Y-50846190D01*
X152528571Y-50922380D01*
X152452380Y-50960476D01*
X158571904Y-64784285D02*
X158190952Y-65050952D01*
X158571904Y-65241428D02*
X157771904Y-65241428D01*
X157771904Y-64936666D01*
X157810000Y-64860476D01*
X157848095Y-64822380D01*
X157924285Y-64784285D01*
X158038571Y-64784285D01*
X158114761Y-64822380D01*
X158152857Y-64860476D01*
X158190952Y-64936666D01*
X158190952Y-65241428D01*
X157771904Y-64517619D02*
X157771904Y-64022380D01*
X158076666Y-64289047D01*
X158076666Y-64174761D01*
X158114761Y-64098571D01*
X158152857Y-64060476D01*
X158229047Y-64022380D01*
X158419523Y-64022380D01*
X158495714Y-64060476D01*
X158533809Y-64098571D01*
X158571904Y-64174761D01*
X158571904Y-64403333D01*
X158533809Y-64479523D01*
X158495714Y-64517619D01*
X157848095Y-63717619D02*
X157810000Y-63679523D01*
X157771904Y-63603333D01*
X157771904Y-63412857D01*
X157810000Y-63336666D01*
X157848095Y-63298571D01*
X157924285Y-63260476D01*
X158000476Y-63260476D01*
X158114761Y-63298571D01*
X158571904Y-63755714D01*
X158571904Y-63260476D01*
X145625714Y-51491904D02*
X145359047Y-51110952D01*
X145168571Y-51491904D02*
X145168571Y-50691904D01*
X145473333Y-50691904D01*
X145549523Y-50730000D01*
X145587619Y-50768095D01*
X145625714Y-50844285D01*
X145625714Y-50958571D01*
X145587619Y-51034761D01*
X145549523Y-51072857D01*
X145473333Y-51110952D01*
X145168571Y-51110952D01*
X145892380Y-50691904D02*
X146387619Y-50691904D01*
X146120952Y-50996666D01*
X146235238Y-50996666D01*
X146311428Y-51034761D01*
X146349523Y-51072857D01*
X146387619Y-51149047D01*
X146387619Y-51339523D01*
X146349523Y-51415714D01*
X146311428Y-51453809D01*
X146235238Y-51491904D01*
X146006666Y-51491904D01*
X145930476Y-51453809D01*
X145892380Y-51415714D01*
X146654285Y-50691904D02*
X147149523Y-50691904D01*
X146882857Y-50996666D01*
X146997142Y-50996666D01*
X147073333Y-51034761D01*
X147111428Y-51072857D01*
X147149523Y-51149047D01*
X147149523Y-51339523D01*
X147111428Y-51415714D01*
X147073333Y-51453809D01*
X146997142Y-51491904D01*
X146768571Y-51491904D01*
X146692380Y-51453809D01*
X146654285Y-51415714D01*
X148011904Y-65624285D02*
X147630952Y-65890952D01*
X148011904Y-66081428D02*
X147211904Y-66081428D01*
X147211904Y-65776666D01*
X147250000Y-65700476D01*
X147288095Y-65662380D01*
X147364285Y-65624285D01*
X147478571Y-65624285D01*
X147554761Y-65662380D01*
X147592857Y-65700476D01*
X147630952Y-65776666D01*
X147630952Y-66081428D01*
X147211904Y-65357619D02*
X147211904Y-64862380D01*
X147516666Y-65129047D01*
X147516666Y-65014761D01*
X147554761Y-64938571D01*
X147592857Y-64900476D01*
X147669047Y-64862380D01*
X147859523Y-64862380D01*
X147935714Y-64900476D01*
X147973809Y-64938571D01*
X148011904Y-65014761D01*
X148011904Y-65243333D01*
X147973809Y-65319523D01*
X147935714Y-65357619D01*
X147478571Y-64176666D02*
X148011904Y-64176666D01*
X147173809Y-64367142D02*
X147745238Y-64557619D01*
X147745238Y-64062380D01*
X172611904Y-89424285D02*
X172230952Y-89690952D01*
X172611904Y-89881428D02*
X171811904Y-89881428D01*
X171811904Y-89576666D01*
X171850000Y-89500476D01*
X171888095Y-89462380D01*
X171964285Y-89424285D01*
X172078571Y-89424285D01*
X172154761Y-89462380D01*
X172192857Y-89500476D01*
X172230952Y-89576666D01*
X172230952Y-89881428D01*
X171811904Y-89157619D02*
X171811904Y-88662380D01*
X172116666Y-88929047D01*
X172116666Y-88814761D01*
X172154761Y-88738571D01*
X172192857Y-88700476D01*
X172269047Y-88662380D01*
X172459523Y-88662380D01*
X172535714Y-88700476D01*
X172573809Y-88738571D01*
X172611904Y-88814761D01*
X172611904Y-89043333D01*
X172573809Y-89119523D01*
X172535714Y-89157619D01*
X171811904Y-87938571D02*
X171811904Y-88319523D01*
X172192857Y-88357619D01*
X172154761Y-88319523D01*
X172116666Y-88243333D01*
X172116666Y-88052857D01*
X172154761Y-87976666D01*
X172192857Y-87938571D01*
X172269047Y-87900476D01*
X172459523Y-87900476D01*
X172535714Y-87938571D01*
X172573809Y-87976666D01*
X172611904Y-88052857D01*
X172611904Y-88243333D01*
X172573809Y-88319523D01*
X172535714Y-88357619D01*
X174795714Y-79661904D02*
X174529047Y-79280952D01*
X174338571Y-79661904D02*
X174338571Y-78861904D01*
X174643333Y-78861904D01*
X174719523Y-78900000D01*
X174757619Y-78938095D01*
X174795714Y-79014285D01*
X174795714Y-79128571D01*
X174757619Y-79204761D01*
X174719523Y-79242857D01*
X174643333Y-79280952D01*
X174338571Y-79280952D01*
X175062380Y-78861904D02*
X175557619Y-78861904D01*
X175290952Y-79166666D01*
X175405238Y-79166666D01*
X175481428Y-79204761D01*
X175519523Y-79242857D01*
X175557619Y-79319047D01*
X175557619Y-79509523D01*
X175519523Y-79585714D01*
X175481428Y-79623809D01*
X175405238Y-79661904D01*
X175176666Y-79661904D01*
X175100476Y-79623809D01*
X175062380Y-79585714D01*
X176243333Y-78861904D02*
X176090952Y-78861904D01*
X176014761Y-78900000D01*
X175976666Y-78938095D01*
X175900476Y-79052380D01*
X175862380Y-79204761D01*
X175862380Y-79509523D01*
X175900476Y-79585714D01*
X175938571Y-79623809D01*
X176014761Y-79661904D01*
X176167142Y-79661904D01*
X176243333Y-79623809D01*
X176281428Y-79585714D01*
X176319523Y-79509523D01*
X176319523Y-79319047D01*
X176281428Y-79242857D01*
X176243333Y-79204761D01*
X176167142Y-79166666D01*
X176014761Y-79166666D01*
X175938571Y-79204761D01*
X175900476Y-79242857D01*
X175862380Y-79319047D01*
X179331904Y-89404285D02*
X178950952Y-89670952D01*
X179331904Y-89861428D02*
X178531904Y-89861428D01*
X178531904Y-89556666D01*
X178570000Y-89480476D01*
X178608095Y-89442380D01*
X178684285Y-89404285D01*
X178798571Y-89404285D01*
X178874761Y-89442380D01*
X178912857Y-89480476D01*
X178950952Y-89556666D01*
X178950952Y-89861428D01*
X178531904Y-89137619D02*
X178531904Y-88642380D01*
X178836666Y-88909047D01*
X178836666Y-88794761D01*
X178874761Y-88718571D01*
X178912857Y-88680476D01*
X178989047Y-88642380D01*
X179179523Y-88642380D01*
X179255714Y-88680476D01*
X179293809Y-88718571D01*
X179331904Y-88794761D01*
X179331904Y-89023333D01*
X179293809Y-89099523D01*
X179255714Y-89137619D01*
X178531904Y-88375714D02*
X178531904Y-87842380D01*
X179331904Y-88185238D01*
X178335714Y-79651904D02*
X178069047Y-79270952D01*
X177878571Y-79651904D02*
X177878571Y-78851904D01*
X178183333Y-78851904D01*
X178259523Y-78890000D01*
X178297619Y-78928095D01*
X178335714Y-79004285D01*
X178335714Y-79118571D01*
X178297619Y-79194761D01*
X178259523Y-79232857D01*
X178183333Y-79270952D01*
X177878571Y-79270952D01*
X178602380Y-78851904D02*
X179097619Y-78851904D01*
X178830952Y-79156666D01*
X178945238Y-79156666D01*
X179021428Y-79194761D01*
X179059523Y-79232857D01*
X179097619Y-79309047D01*
X179097619Y-79499523D01*
X179059523Y-79575714D01*
X179021428Y-79613809D01*
X178945238Y-79651904D01*
X178716666Y-79651904D01*
X178640476Y-79613809D01*
X178602380Y-79575714D01*
X179554761Y-79194761D02*
X179478571Y-79156666D01*
X179440476Y-79118571D01*
X179402380Y-79042380D01*
X179402380Y-79004285D01*
X179440476Y-78928095D01*
X179478571Y-78890000D01*
X179554761Y-78851904D01*
X179707142Y-78851904D01*
X179783333Y-78890000D01*
X179821428Y-78928095D01*
X179859523Y-79004285D01*
X179859523Y-79042380D01*
X179821428Y-79118571D01*
X179783333Y-79156666D01*
X179707142Y-79194761D01*
X179554761Y-79194761D01*
X179478571Y-79232857D01*
X179440476Y-79270952D01*
X179402380Y-79347142D01*
X179402380Y-79499523D01*
X179440476Y-79575714D01*
X179478571Y-79613809D01*
X179554761Y-79651904D01*
X179707142Y-79651904D01*
X179783333Y-79613809D01*
X179821428Y-79575714D01*
X179859523Y-79499523D01*
X179859523Y-79347142D01*
X179821428Y-79270952D01*
X179783333Y-79232857D01*
X179707142Y-79194761D01*
X138995714Y-51491904D02*
X138729047Y-51110952D01*
X138538571Y-51491904D02*
X138538571Y-50691904D01*
X138843333Y-50691904D01*
X138919523Y-50730000D01*
X138957619Y-50768095D01*
X138995714Y-50844285D01*
X138995714Y-50958571D01*
X138957619Y-51034761D01*
X138919523Y-51072857D01*
X138843333Y-51110952D01*
X138538571Y-51110952D01*
X139262380Y-50691904D02*
X139757619Y-50691904D01*
X139490952Y-50996666D01*
X139605238Y-50996666D01*
X139681428Y-51034761D01*
X139719523Y-51072857D01*
X139757619Y-51149047D01*
X139757619Y-51339523D01*
X139719523Y-51415714D01*
X139681428Y-51453809D01*
X139605238Y-51491904D01*
X139376666Y-51491904D01*
X139300476Y-51453809D01*
X139262380Y-51415714D01*
X140138571Y-51491904D02*
X140290952Y-51491904D01*
X140367142Y-51453809D01*
X140405238Y-51415714D01*
X140481428Y-51301428D01*
X140519523Y-51149047D01*
X140519523Y-50844285D01*
X140481428Y-50768095D01*
X140443333Y-50730000D01*
X140367142Y-50691904D01*
X140214761Y-50691904D01*
X140138571Y-50730000D01*
X140100476Y-50768095D01*
X140062380Y-50844285D01*
X140062380Y-51034761D01*
X140100476Y-51110952D01*
X140138571Y-51149047D01*
X140214761Y-51187142D01*
X140367142Y-51187142D01*
X140443333Y-51149047D01*
X140481428Y-51110952D01*
X140519523Y-51034761D01*
X144381904Y-64754285D02*
X144000952Y-65020952D01*
X144381904Y-65211428D02*
X143581904Y-65211428D01*
X143581904Y-64906666D01*
X143620000Y-64830476D01*
X143658095Y-64792380D01*
X143734285Y-64754285D01*
X143848571Y-64754285D01*
X143924761Y-64792380D01*
X143962857Y-64830476D01*
X144000952Y-64906666D01*
X144000952Y-65211428D01*
X143848571Y-64068571D02*
X144381904Y-64068571D01*
X143543809Y-64259047D02*
X144115238Y-64449523D01*
X144115238Y-63954285D01*
X143581904Y-63497142D02*
X143581904Y-63420952D01*
X143620000Y-63344761D01*
X143658095Y-63306666D01*
X143734285Y-63268571D01*
X143886666Y-63230476D01*
X144077142Y-63230476D01*
X144229523Y-63268571D01*
X144305714Y-63306666D01*
X144343809Y-63344761D01*
X144381904Y-63420952D01*
X144381904Y-63497142D01*
X144343809Y-63573333D01*
X144305714Y-63611428D01*
X144229523Y-63649523D01*
X144077142Y-63687619D01*
X143886666Y-63687619D01*
X143734285Y-63649523D01*
X143658095Y-63611428D01*
X143620000Y-63573333D01*
X143581904Y-63497142D01*
X133125714Y-51461904D02*
X132859047Y-51080952D01*
X132668571Y-51461904D02*
X132668571Y-50661904D01*
X132973333Y-50661904D01*
X133049523Y-50700000D01*
X133087619Y-50738095D01*
X133125714Y-50814285D01*
X133125714Y-50928571D01*
X133087619Y-51004761D01*
X133049523Y-51042857D01*
X132973333Y-51080952D01*
X132668571Y-51080952D01*
X133811428Y-50928571D02*
X133811428Y-51461904D01*
X133620952Y-50623809D02*
X133430476Y-51195238D01*
X133925714Y-51195238D01*
X134649523Y-51461904D02*
X134192380Y-51461904D01*
X134420952Y-51461904D02*
X134420952Y-50661904D01*
X134344761Y-50776190D01*
X134268571Y-50852380D01*
X134192380Y-50890476D01*
X133501904Y-64744285D02*
X133120952Y-65010952D01*
X133501904Y-65201428D02*
X132701904Y-65201428D01*
X132701904Y-64896666D01*
X132740000Y-64820476D01*
X132778095Y-64782380D01*
X132854285Y-64744285D01*
X132968571Y-64744285D01*
X133044761Y-64782380D01*
X133082857Y-64820476D01*
X133120952Y-64896666D01*
X133120952Y-65201428D01*
X132968571Y-64058571D02*
X133501904Y-64058571D01*
X132663809Y-64249047D02*
X133235238Y-64439523D01*
X133235238Y-63944285D01*
X132778095Y-63677619D02*
X132740000Y-63639523D01*
X132701904Y-63563333D01*
X132701904Y-63372857D01*
X132740000Y-63296666D01*
X132778095Y-63258571D01*
X132854285Y-63220476D01*
X132930476Y-63220476D01*
X133044761Y-63258571D01*
X133501904Y-63715714D01*
X133501904Y-63220476D01*
X109951904Y-67539523D02*
X110599523Y-67539523D01*
X110675714Y-67501428D01*
X110713809Y-67463333D01*
X110751904Y-67387142D01*
X110751904Y-67234761D01*
X110713809Y-67158571D01*
X110675714Y-67120476D01*
X110599523Y-67082380D01*
X109951904Y-67082380D01*
X109951904Y-66777619D02*
X109951904Y-66282380D01*
X110256666Y-66549047D01*
X110256666Y-66434761D01*
X110294761Y-66358571D01*
X110332857Y-66320476D01*
X110409047Y-66282380D01*
X110599523Y-66282380D01*
X110675714Y-66320476D01*
X110713809Y-66358571D01*
X110751904Y-66434761D01*
X110751904Y-66663333D01*
X110713809Y-66739523D01*
X110675714Y-66777619D01*
X110311904Y-96429523D02*
X110959523Y-96429523D01*
X111035714Y-96391428D01*
X111073809Y-96353333D01*
X111111904Y-96277142D01*
X111111904Y-96124761D01*
X111073809Y-96048571D01*
X111035714Y-96010476D01*
X110959523Y-95972380D01*
X110311904Y-95972380D01*
X110311904Y-95248571D02*
X110311904Y-95400952D01*
X110350000Y-95477142D01*
X110388095Y-95515238D01*
X110502380Y-95591428D01*
X110654761Y-95629523D01*
X110959523Y-95629523D01*
X111035714Y-95591428D01*
X111073809Y-95553333D01*
X111111904Y-95477142D01*
X111111904Y-95324761D01*
X111073809Y-95248571D01*
X111035714Y-95210476D01*
X110959523Y-95172380D01*
X110769047Y-95172380D01*
X110692857Y-95210476D01*
X110654761Y-95248571D01*
X110616666Y-95324761D01*
X110616666Y-95477142D01*
X110654761Y-95553333D01*
X110692857Y-95591428D01*
X110769047Y-95629523D01*
X115105714Y-108575714D02*
X115067619Y-108613809D01*
X114953333Y-108651904D01*
X114877142Y-108651904D01*
X114762857Y-108613809D01*
X114686666Y-108537619D01*
X114648571Y-108461428D01*
X114610476Y-108309047D01*
X114610476Y-108194761D01*
X114648571Y-108042380D01*
X114686666Y-107966190D01*
X114762857Y-107890000D01*
X114877142Y-107851904D01*
X114953333Y-107851904D01*
X115067619Y-107890000D01*
X115105714Y-107928095D01*
X115372380Y-107851904D02*
X115867619Y-107851904D01*
X115600952Y-108156666D01*
X115715238Y-108156666D01*
X115791428Y-108194761D01*
X115829523Y-108232857D01*
X115867619Y-108309047D01*
X115867619Y-108499523D01*
X115829523Y-108575714D01*
X115791428Y-108613809D01*
X115715238Y-108651904D01*
X115486666Y-108651904D01*
X115410476Y-108613809D01*
X115372380Y-108575714D01*
X116629523Y-108651904D02*
X116172380Y-108651904D01*
X116400952Y-108651904D02*
X116400952Y-107851904D01*
X116324761Y-107966190D01*
X116248571Y-108042380D01*
X116172380Y-108080476D01*
X111469047Y-108421428D02*
X112230952Y-108421428D01*
X111850000Y-108802380D02*
X111850000Y-108040476D01*
X115065714Y-125445714D02*
X115027619Y-125483809D01*
X114913333Y-125521904D01*
X114837142Y-125521904D01*
X114722857Y-125483809D01*
X114646666Y-125407619D01*
X114608571Y-125331428D01*
X114570476Y-125179047D01*
X114570476Y-125064761D01*
X114608571Y-124912380D01*
X114646666Y-124836190D01*
X114722857Y-124760000D01*
X114837142Y-124721904D01*
X114913333Y-124721904D01*
X115027619Y-124760000D01*
X115065714Y-124798095D01*
X115332380Y-124721904D02*
X115827619Y-124721904D01*
X115560952Y-125026666D01*
X115675238Y-125026666D01*
X115751428Y-125064761D01*
X115789523Y-125102857D01*
X115827619Y-125179047D01*
X115827619Y-125369523D01*
X115789523Y-125445714D01*
X115751428Y-125483809D01*
X115675238Y-125521904D01*
X115446666Y-125521904D01*
X115370476Y-125483809D01*
X115332380Y-125445714D01*
X116322857Y-124721904D02*
X116399047Y-124721904D01*
X116475238Y-124760000D01*
X116513333Y-124798095D01*
X116551428Y-124874285D01*
X116589523Y-125026666D01*
X116589523Y-125217142D01*
X116551428Y-125369523D01*
X116513333Y-125445714D01*
X116475238Y-125483809D01*
X116399047Y-125521904D01*
X116322857Y-125521904D01*
X116246666Y-125483809D01*
X116208571Y-125445714D01*
X116170476Y-125369523D01*
X116132380Y-125217142D01*
X116132380Y-125026666D01*
X116170476Y-124874285D01*
X116208571Y-124798095D01*
X116246666Y-124760000D01*
X116322857Y-124721904D01*
X111419047Y-125221428D02*
X112180952Y-125221428D01*
X111800000Y-125602380D02*
X111800000Y-124840476D01*
X117585714Y-73633333D02*
X117623809Y-73671428D01*
X117661904Y-73785714D01*
X117661904Y-73861904D01*
X117623809Y-73976190D01*
X117547619Y-74052380D01*
X117471428Y-74090476D01*
X117319047Y-74128571D01*
X117204761Y-74128571D01*
X117052380Y-74090476D01*
X116976190Y-74052380D01*
X116900000Y-73976190D01*
X116861904Y-73861904D01*
X116861904Y-73785714D01*
X116900000Y-73671428D01*
X116938095Y-73633333D01*
X116861904Y-72947619D02*
X116861904Y-73100000D01*
X116900000Y-73176190D01*
X116938095Y-73214285D01*
X117052380Y-73290476D01*
X117204761Y-73328571D01*
X117509523Y-73328571D01*
X117585714Y-73290476D01*
X117623809Y-73252380D01*
X117661904Y-73176190D01*
X117661904Y-73023809D01*
X117623809Y-72947619D01*
X117585714Y-72909523D01*
X117509523Y-72871428D01*
X117319047Y-72871428D01*
X117242857Y-72909523D01*
X117204761Y-72947619D01*
X117166666Y-73023809D01*
X117166666Y-73176190D01*
X117204761Y-73252380D01*
X117242857Y-73290476D01*
X117319047Y-73328571D01*
X116921428Y-69880952D02*
X116921428Y-69119047D01*
X117302380Y-69500000D02*
X116540476Y-69500000D01*
X123185714Y-73663333D02*
X123223809Y-73701428D01*
X123261904Y-73815714D01*
X123261904Y-73891904D01*
X123223809Y-74006190D01*
X123147619Y-74082380D01*
X123071428Y-74120476D01*
X122919047Y-74158571D01*
X122804761Y-74158571D01*
X122652380Y-74120476D01*
X122576190Y-74082380D01*
X122500000Y-74006190D01*
X122461904Y-73891904D01*
X122461904Y-73815714D01*
X122500000Y-73701428D01*
X122538095Y-73663333D01*
X122461904Y-73396666D02*
X122461904Y-72901428D01*
X122766666Y-73168095D01*
X122766666Y-73053809D01*
X122804761Y-72977619D01*
X122842857Y-72939523D01*
X122919047Y-72901428D01*
X123109523Y-72901428D01*
X123185714Y-72939523D01*
X123223809Y-72977619D01*
X123261904Y-73053809D01*
X123261904Y-73282380D01*
X123223809Y-73358571D01*
X123185714Y-73396666D01*
X122391428Y-69900952D02*
X122391428Y-69139047D01*
X122772380Y-69520000D02*
X122010476Y-69520000D01*
X150635714Y-72173333D02*
X150673809Y-72211428D01*
X150711904Y-72325714D01*
X150711904Y-72401904D01*
X150673809Y-72516190D01*
X150597619Y-72592380D01*
X150521428Y-72630476D01*
X150369047Y-72668571D01*
X150254761Y-72668571D01*
X150102380Y-72630476D01*
X150026190Y-72592380D01*
X149950000Y-72516190D01*
X149911904Y-72401904D01*
X149911904Y-72325714D01*
X149950000Y-72211428D01*
X149988095Y-72173333D01*
X150711904Y-71411428D02*
X150711904Y-71868571D01*
X150711904Y-71640000D02*
X149911904Y-71640000D01*
X150026190Y-71716190D01*
X150102380Y-71792380D01*
X150140476Y-71868571D01*
X150581428Y-68520952D02*
X150581428Y-67759047D01*
X150962380Y-68140000D02*
X150200476Y-68140000D01*
X141031904Y-41472380D02*
X141031904Y-40472380D01*
X141412857Y-40472380D01*
X141508095Y-40520000D01*
X141555714Y-40567619D01*
X141603333Y-40662857D01*
X141603333Y-40805714D01*
X141555714Y-40900952D01*
X141508095Y-40948571D01*
X141412857Y-40996190D01*
X141031904Y-40996190D01*
X142555714Y-41472380D02*
X141984285Y-41472380D01*
X142270000Y-41472380D02*
X142270000Y-40472380D01*
X142174761Y-40615238D01*
X142079523Y-40710476D01*
X141984285Y-40758095D01*
X130651904Y-41472380D02*
X130651904Y-40472380D01*
X131032857Y-40472380D01*
X131128095Y-40520000D01*
X131175714Y-40567619D01*
X131223333Y-40662857D01*
X131223333Y-40805714D01*
X131175714Y-40900952D01*
X131128095Y-40948571D01*
X131032857Y-40996190D01*
X130651904Y-40996190D01*
X131604285Y-40567619D02*
X131651904Y-40520000D01*
X131747142Y-40472380D01*
X131985238Y-40472380D01*
X132080476Y-40520000D01*
X132128095Y-40567619D01*
X132175714Y-40662857D01*
X132175714Y-40758095D01*
X132128095Y-40900952D01*
X131556666Y-41472380D01*
X132175714Y-41472380D01*
X145381904Y-138322380D02*
X145381904Y-137322380D01*
X145762857Y-137322380D01*
X145858095Y-137370000D01*
X145905714Y-137417619D01*
X145953333Y-137512857D01*
X145953333Y-137655714D01*
X145905714Y-137750952D01*
X145858095Y-137798571D01*
X145762857Y-137846190D01*
X145381904Y-137846190D01*
X146429523Y-138322380D02*
X146620000Y-138322380D01*
X146715238Y-138274761D01*
X146762857Y-138227142D01*
X146858095Y-138084285D01*
X146905714Y-137893809D01*
X146905714Y-137512857D01*
X146858095Y-137417619D01*
X146810476Y-137370000D01*
X146715238Y-137322380D01*
X146524761Y-137322380D01*
X146429523Y-137370000D01*
X146381904Y-137417619D01*
X146334285Y-137512857D01*
X146334285Y-137750952D01*
X146381904Y-137846190D01*
X146429523Y-137893809D01*
X146524761Y-137941428D01*
X146715238Y-137941428D01*
X146810476Y-137893809D01*
X146858095Y-137846190D01*
X146905714Y-137750952D01*
X165295714Y-138312380D02*
X165295714Y-137312380D01*
X165676666Y-137312380D01*
X165771904Y-137360000D01*
X165819523Y-137407619D01*
X165867142Y-137502857D01*
X165867142Y-137645714D01*
X165819523Y-137740952D01*
X165771904Y-137788571D01*
X165676666Y-137836190D01*
X165295714Y-137836190D01*
X166819523Y-138312380D02*
X166248095Y-138312380D01*
X166533809Y-138312380D02*
X166533809Y-137312380D01*
X166438571Y-137455238D01*
X166343333Y-137550476D01*
X166248095Y-137598095D01*
X167438571Y-137312380D02*
X167533809Y-137312380D01*
X167629047Y-137360000D01*
X167676666Y-137407619D01*
X167724285Y-137502857D01*
X167771904Y-137693333D01*
X167771904Y-137931428D01*
X167724285Y-138121904D01*
X167676666Y-138217142D01*
X167629047Y-138264761D01*
X167533809Y-138312380D01*
X167438571Y-138312380D01*
X167343333Y-138264761D01*
X167295714Y-138217142D01*
X167248095Y-138121904D01*
X167200476Y-137931428D01*
X167200476Y-137693333D01*
X167248095Y-137502857D01*
X167295714Y-137407619D01*
X167343333Y-137360000D01*
X167438571Y-137312380D01*
X119205714Y-138312380D02*
X119205714Y-137312380D01*
X119586666Y-137312380D01*
X119681904Y-137360000D01*
X119729523Y-137407619D01*
X119777142Y-137502857D01*
X119777142Y-137645714D01*
X119729523Y-137740952D01*
X119681904Y-137788571D01*
X119586666Y-137836190D01*
X119205714Y-137836190D01*
X120729523Y-138312380D02*
X120158095Y-138312380D01*
X120443809Y-138312380D02*
X120443809Y-137312380D01*
X120348571Y-137455238D01*
X120253333Y-137550476D01*
X120158095Y-137598095D01*
X121681904Y-138312380D02*
X121110476Y-138312380D01*
X121396190Y-138312380D02*
X121396190Y-137312380D01*
X121300952Y-137455238D01*
X121205714Y-137550476D01*
X121110476Y-137598095D01*
X129475714Y-138462380D02*
X129475714Y-137462380D01*
X129856666Y-137462380D01*
X129951904Y-137510000D01*
X129999523Y-137557619D01*
X130047142Y-137652857D01*
X130047142Y-137795714D01*
X129999523Y-137890952D01*
X129951904Y-137938571D01*
X129856666Y-137986190D01*
X129475714Y-137986190D01*
X130999523Y-138462380D02*
X130428095Y-138462380D01*
X130713809Y-138462380D02*
X130713809Y-137462380D01*
X130618571Y-137605238D01*
X130523333Y-137700476D01*
X130428095Y-137748095D01*
X131332857Y-137462380D02*
X131951904Y-137462380D01*
X131618571Y-137843333D01*
X131761428Y-137843333D01*
X131856666Y-137890952D01*
X131904285Y-137938571D01*
X131951904Y-138033809D01*
X131951904Y-138271904D01*
X131904285Y-138367142D01*
X131856666Y-138414761D01*
X131761428Y-138462380D01*
X131475714Y-138462380D01*
X131380476Y-138414761D01*
X131332857Y-138367142D01*
X162811904Y-48674285D02*
X162430952Y-48940952D01*
X162811904Y-49131428D02*
X162011904Y-49131428D01*
X162011904Y-48826666D01*
X162050000Y-48750476D01*
X162088095Y-48712380D01*
X162164285Y-48674285D01*
X162278571Y-48674285D01*
X162354761Y-48712380D01*
X162392857Y-48750476D01*
X162430952Y-48826666D01*
X162430952Y-49131428D01*
X162278571Y-47988571D02*
X162811904Y-47988571D01*
X161973809Y-48179047D02*
X162545238Y-48369523D01*
X162545238Y-47874285D01*
X162011904Y-47645714D02*
X162011904Y-47150476D01*
X162316666Y-47417142D01*
X162316666Y-47302857D01*
X162354761Y-47226666D01*
X162392857Y-47188571D01*
X162469047Y-47150476D01*
X162659523Y-47150476D01*
X162735714Y-47188571D01*
X162773809Y-47226666D01*
X162811904Y-47302857D01*
X162811904Y-47531428D01*
X162773809Y-47607619D01*
X162735714Y-47645714D01*
X167921904Y-48674285D02*
X167540952Y-48940952D01*
X167921904Y-49131428D02*
X167121904Y-49131428D01*
X167121904Y-48826666D01*
X167160000Y-48750476D01*
X167198095Y-48712380D01*
X167274285Y-48674285D01*
X167388571Y-48674285D01*
X167464761Y-48712380D01*
X167502857Y-48750476D01*
X167540952Y-48826666D01*
X167540952Y-49131428D01*
X167388571Y-47988571D02*
X167921904Y-47988571D01*
X167083809Y-48179047D02*
X167655238Y-48369523D01*
X167655238Y-47874285D01*
X167388571Y-47226666D02*
X167921904Y-47226666D01*
X167083809Y-47417142D02*
X167655238Y-47607619D01*
X167655238Y-47112380D01*
X173181904Y-48684285D02*
X172800952Y-48950952D01*
X173181904Y-49141428D02*
X172381904Y-49141428D01*
X172381904Y-48836666D01*
X172420000Y-48760476D01*
X172458095Y-48722380D01*
X172534285Y-48684285D01*
X172648571Y-48684285D01*
X172724761Y-48722380D01*
X172762857Y-48760476D01*
X172800952Y-48836666D01*
X172800952Y-49141428D01*
X172648571Y-47998571D02*
X173181904Y-47998571D01*
X172343809Y-48189047D02*
X172915238Y-48379523D01*
X172915238Y-47884285D01*
X172381904Y-47198571D02*
X172381904Y-47579523D01*
X172762857Y-47617619D01*
X172724761Y-47579523D01*
X172686666Y-47503333D01*
X172686666Y-47312857D01*
X172724761Y-47236666D01*
X172762857Y-47198571D01*
X172839047Y-47160476D01*
X173029523Y-47160476D01*
X173105714Y-47198571D01*
X173143809Y-47236666D01*
X173181904Y-47312857D01*
X173181904Y-47503333D01*
X173143809Y-47579523D01*
X173105714Y-47617619D01*
X183771904Y-48684285D02*
X183390952Y-48950952D01*
X183771904Y-49141428D02*
X182971904Y-49141428D01*
X182971904Y-48836666D01*
X183010000Y-48760476D01*
X183048095Y-48722380D01*
X183124285Y-48684285D01*
X183238571Y-48684285D01*
X183314761Y-48722380D01*
X183352857Y-48760476D01*
X183390952Y-48836666D01*
X183390952Y-49141428D01*
X183238571Y-47998571D02*
X183771904Y-47998571D01*
X182933809Y-48189047D02*
X183505238Y-48379523D01*
X183505238Y-47884285D01*
X182971904Y-47236666D02*
X182971904Y-47389047D01*
X183010000Y-47465238D01*
X183048095Y-47503333D01*
X183162380Y-47579523D01*
X183314761Y-47617619D01*
X183619523Y-47617619D01*
X183695714Y-47579523D01*
X183733809Y-47541428D01*
X183771904Y-47465238D01*
X183771904Y-47312857D01*
X183733809Y-47236666D01*
X183695714Y-47198571D01*
X183619523Y-47160476D01*
X183429047Y-47160476D01*
X183352857Y-47198571D01*
X183314761Y-47236666D01*
X183276666Y-47312857D01*
X183276666Y-47465238D01*
X183314761Y-47541428D01*
X183352857Y-47579523D01*
X183429047Y-47617619D01*
X178441904Y-48674285D02*
X178060952Y-48940952D01*
X178441904Y-49131428D02*
X177641904Y-49131428D01*
X177641904Y-48826666D01*
X177680000Y-48750476D01*
X177718095Y-48712380D01*
X177794285Y-48674285D01*
X177908571Y-48674285D01*
X177984761Y-48712380D01*
X178022857Y-48750476D01*
X178060952Y-48826666D01*
X178060952Y-49131428D01*
X177908571Y-47988571D02*
X178441904Y-47988571D01*
X177603809Y-48179047D02*
X178175238Y-48369523D01*
X178175238Y-47874285D01*
X177641904Y-47645714D02*
X177641904Y-47112380D01*
X178441904Y-47455238D01*
X174669523Y-49631904D02*
X174669523Y-50279523D01*
X174707619Y-50355714D01*
X174745714Y-50393809D01*
X174821904Y-50431904D01*
X174974285Y-50431904D01*
X175050476Y-50393809D01*
X175088571Y-50355714D01*
X175126666Y-50279523D01*
X175126666Y-49631904D01*
X175926666Y-50431904D02*
X175469523Y-50431904D01*
X175698095Y-50431904D02*
X175698095Y-49631904D01*
X175621904Y-49746190D01*
X175545714Y-49822380D01*
X175469523Y-49860476D01*
X176193333Y-49631904D02*
X176688571Y-49631904D01*
X176421904Y-49936666D01*
X176536190Y-49936666D01*
X176612380Y-49974761D01*
X176650476Y-50012857D01*
X176688571Y-50089047D01*
X176688571Y-50279523D01*
X176650476Y-50355714D01*
X176612380Y-50393809D01*
X176536190Y-50431904D01*
X176307619Y-50431904D01*
X176231428Y-50393809D01*
X176193333Y-50355714D01*
X179979523Y-49621904D02*
X179979523Y-50269523D01*
X180017619Y-50345714D01*
X180055714Y-50383809D01*
X180131904Y-50421904D01*
X180284285Y-50421904D01*
X180360476Y-50383809D01*
X180398571Y-50345714D01*
X180436666Y-50269523D01*
X180436666Y-49621904D01*
X181236666Y-50421904D02*
X180779523Y-50421904D01*
X181008095Y-50421904D02*
X181008095Y-49621904D01*
X180931904Y-49736190D01*
X180855714Y-49812380D01*
X180779523Y-49850476D01*
X181541428Y-49698095D02*
X181579523Y-49660000D01*
X181655714Y-49621904D01*
X181846190Y-49621904D01*
X181922380Y-49660000D01*
X181960476Y-49698095D01*
X181998571Y-49774285D01*
X181998571Y-49850476D01*
X181960476Y-49964761D01*
X181503333Y-50421904D01*
X181998571Y-50421904D01*
X169349523Y-49691904D02*
X169349523Y-50339523D01*
X169387619Y-50415714D01*
X169425714Y-50453809D01*
X169501904Y-50491904D01*
X169654285Y-50491904D01*
X169730476Y-50453809D01*
X169768571Y-50415714D01*
X169806666Y-50339523D01*
X169806666Y-49691904D01*
X170606666Y-50491904D02*
X170149523Y-50491904D01*
X170378095Y-50491904D02*
X170378095Y-49691904D01*
X170301904Y-49806190D01*
X170225714Y-49882380D01*
X170149523Y-49920476D01*
X171368571Y-50491904D02*
X170911428Y-50491904D01*
X171140000Y-50491904D02*
X171140000Y-49691904D01*
X171063809Y-49806190D01*
X170987619Y-49882380D01*
X170911428Y-49920476D01*
X164129523Y-49641904D02*
X164129523Y-50289523D01*
X164167619Y-50365714D01*
X164205714Y-50403809D01*
X164281904Y-50441904D01*
X164434285Y-50441904D01*
X164510476Y-50403809D01*
X164548571Y-50365714D01*
X164586666Y-50289523D01*
X164586666Y-49641904D01*
X165386666Y-50441904D02*
X164929523Y-50441904D01*
X165158095Y-50441904D02*
X165158095Y-49641904D01*
X165081904Y-49756190D01*
X165005714Y-49832380D01*
X164929523Y-49870476D01*
X165881904Y-49641904D02*
X165958095Y-49641904D01*
X166034285Y-49680000D01*
X166072380Y-49718095D01*
X166110476Y-49794285D01*
X166148571Y-49946666D01*
X166148571Y-50137142D01*
X166110476Y-50289523D01*
X166072380Y-50365714D01*
X166034285Y-50403809D01*
X165958095Y-50441904D01*
X165881904Y-50441904D01*
X165805714Y-50403809D01*
X165767619Y-50365714D01*
X165729523Y-50289523D01*
X165691428Y-50137142D01*
X165691428Y-49946666D01*
X165729523Y-49794285D01*
X165767619Y-49718095D01*
X165805714Y-49680000D01*
X165881904Y-49641904D01*
X159410476Y-49691904D02*
X159410476Y-50339523D01*
X159448571Y-50415714D01*
X159486666Y-50453809D01*
X159562857Y-50491904D01*
X159715238Y-50491904D01*
X159791428Y-50453809D01*
X159829523Y-50415714D01*
X159867619Y-50339523D01*
X159867619Y-49691904D01*
X160286666Y-50491904D02*
X160439047Y-50491904D01*
X160515238Y-50453809D01*
X160553333Y-50415714D01*
X160629523Y-50301428D01*
X160667619Y-50149047D01*
X160667619Y-49844285D01*
X160629523Y-49768095D01*
X160591428Y-49730000D01*
X160515238Y-49691904D01*
X160362857Y-49691904D01*
X160286666Y-49730000D01*
X160248571Y-49768095D01*
X160210476Y-49844285D01*
X160210476Y-50034761D01*
X160248571Y-50110952D01*
X160286666Y-50149047D01*
X160362857Y-50187142D01*
X160515238Y-50187142D01*
X160591428Y-50149047D01*
X160629523Y-50110952D01*
X160667619Y-50034761D01*
X159529047Y-75240952D02*
X159529047Y-75621904D01*
X159262380Y-74821904D02*
X159529047Y-75240952D01*
X159795714Y-74821904D01*
X160481428Y-75621904D02*
X160024285Y-75621904D01*
X160252857Y-75621904D02*
X160252857Y-74821904D01*
X160176666Y-74936190D01*
X160100476Y-75012380D01*
X160024285Y-75050476D01*
X166413333Y-61673809D02*
X166527619Y-61711904D01*
X166718095Y-61711904D01*
X166794285Y-61673809D01*
X166832380Y-61635714D01*
X166870476Y-61559523D01*
X166870476Y-61483333D01*
X166832380Y-61407142D01*
X166794285Y-61369047D01*
X166718095Y-61330952D01*
X166565714Y-61292857D01*
X166489523Y-61254761D01*
X166451428Y-61216666D01*
X166413333Y-61140476D01*
X166413333Y-61064285D01*
X166451428Y-60988095D01*
X166489523Y-60950000D01*
X166565714Y-60911904D01*
X166756190Y-60911904D01*
X166870476Y-60950000D01*
X167137142Y-60911904D02*
X167327619Y-61711904D01*
X167480000Y-61140476D01*
X167632380Y-61711904D01*
X167822857Y-60911904D01*
X168546666Y-61711904D02*
X168089523Y-61711904D01*
X168318095Y-61711904D02*
X168318095Y-60911904D01*
X168241904Y-61026190D01*
X168165714Y-61102380D01*
X168089523Y-61140476D01*
X116465714Y-87131904D02*
X116199047Y-86750952D01*
X116008571Y-87131904D02*
X116008571Y-86331904D01*
X116313333Y-86331904D01*
X116389523Y-86370000D01*
X116427619Y-86408095D01*
X116465714Y-86484285D01*
X116465714Y-86598571D01*
X116427619Y-86674761D01*
X116389523Y-86712857D01*
X116313333Y-86750952D01*
X116008571Y-86750952D01*
X117151428Y-86598571D02*
X117151428Y-87131904D01*
X116960952Y-86293809D02*
X116770476Y-86865238D01*
X117265714Y-86865238D01*
X117684761Y-86674761D02*
X117608571Y-86636666D01*
X117570476Y-86598571D01*
X117532380Y-86522380D01*
X117532380Y-86484285D01*
X117570476Y-86408095D01*
X117608571Y-86370000D01*
X117684761Y-86331904D01*
X117837142Y-86331904D01*
X117913333Y-86370000D01*
X117951428Y-86408095D01*
X117989523Y-86484285D01*
X117989523Y-86522380D01*
X117951428Y-86598571D01*
X117913333Y-86636666D01*
X117837142Y-86674761D01*
X117684761Y-86674761D01*
X117608571Y-86712857D01*
X117570476Y-86750952D01*
X117532380Y-86827142D01*
X117532380Y-86979523D01*
X117570476Y-87055714D01*
X117608571Y-87093809D01*
X117684761Y-87131904D01*
X117837142Y-87131904D01*
X117913333Y-87093809D01*
X117951428Y-87055714D01*
X117989523Y-86979523D01*
X117989523Y-86827142D01*
X117951428Y-86750952D01*
X117913333Y-86712857D01*
X117837142Y-86674761D01*
X144940476Y-81711904D02*
X144940476Y-82359523D01*
X144978571Y-82435714D01*
X145016666Y-82473809D01*
X145092857Y-82511904D01*
X145245238Y-82511904D01*
X145321428Y-82473809D01*
X145359523Y-82435714D01*
X145397619Y-82359523D01*
X145397619Y-81711904D01*
X145702380Y-81711904D02*
X146235714Y-81711904D01*
X145892857Y-82511904D01*
X176610476Y-81711904D02*
X176610476Y-82359523D01*
X176648571Y-82435714D01*
X176686666Y-82473809D01*
X176762857Y-82511904D01*
X176915238Y-82511904D01*
X176991428Y-82473809D01*
X177029523Y-82435714D01*
X177067619Y-82359523D01*
X177067619Y-81711904D01*
X177562857Y-82054761D02*
X177486666Y-82016666D01*
X177448571Y-81978571D01*
X177410476Y-81902380D01*
X177410476Y-81864285D01*
X177448571Y-81788095D01*
X177486666Y-81750000D01*
X177562857Y-81711904D01*
X177715238Y-81711904D01*
X177791428Y-81750000D01*
X177829523Y-81788095D01*
X177867619Y-81864285D01*
X177867619Y-81902380D01*
X177829523Y-81978571D01*
X177791428Y-82016666D01*
X177715238Y-82054761D01*
X177562857Y-82054761D01*
X177486666Y-82092857D01*
X177448571Y-82130952D01*
X177410476Y-82207142D01*
X177410476Y-82359523D01*
X177448571Y-82435714D01*
X177486666Y-82473809D01*
X177562857Y-82511904D01*
X177715238Y-82511904D01*
X177791428Y-82473809D01*
X177829523Y-82435714D01*
X177867619Y-82359523D01*
X177867619Y-82207142D01*
X177829523Y-82130952D01*
X177791428Y-82092857D01*
X177715238Y-82054761D01*
X128395714Y-91070714D02*
X128357619Y-91108809D01*
X128243333Y-91146904D01*
X128167142Y-91146904D01*
X128052857Y-91108809D01*
X127976666Y-91032619D01*
X127938571Y-90956428D01*
X127900476Y-90804047D01*
X127900476Y-90689761D01*
X127938571Y-90537380D01*
X127976666Y-90461190D01*
X128052857Y-90385000D01*
X128167142Y-90346904D01*
X128243333Y-90346904D01*
X128357619Y-90385000D01*
X128395714Y-90423095D01*
X129157619Y-91146904D02*
X128700476Y-91146904D01*
X128929047Y-91146904D02*
X128929047Y-90346904D01*
X128852857Y-90461190D01*
X128776666Y-90537380D01*
X128700476Y-90575476D01*
X129843333Y-90613571D02*
X129843333Y-91146904D01*
X129652857Y-90308809D02*
X129462380Y-90880238D01*
X129957619Y-90880238D01*
X152335714Y-103635714D02*
X152297619Y-103673809D01*
X152183333Y-103711904D01*
X152107142Y-103711904D01*
X151992857Y-103673809D01*
X151916666Y-103597619D01*
X151878571Y-103521428D01*
X151840476Y-103369047D01*
X151840476Y-103254761D01*
X151878571Y-103102380D01*
X151916666Y-103026190D01*
X151992857Y-102950000D01*
X152107142Y-102911904D01*
X152183333Y-102911904D01*
X152297619Y-102950000D01*
X152335714Y-102988095D01*
X152640476Y-102988095D02*
X152678571Y-102950000D01*
X152754761Y-102911904D01*
X152945238Y-102911904D01*
X153021428Y-102950000D01*
X153059523Y-102988095D01*
X153097619Y-103064285D01*
X153097619Y-103140476D01*
X153059523Y-103254761D01*
X152602380Y-103711904D01*
X153097619Y-103711904D01*
X153859523Y-103711904D02*
X153402380Y-103711904D01*
X153630952Y-103711904D02*
X153630952Y-102911904D01*
X153554761Y-103026190D01*
X153478571Y-103102380D01*
X153402380Y-103140476D01*
X141185714Y-103835714D02*
X141147619Y-103873809D01*
X141033333Y-103911904D01*
X140957142Y-103911904D01*
X140842857Y-103873809D01*
X140766666Y-103797619D01*
X140728571Y-103721428D01*
X140690476Y-103569047D01*
X140690476Y-103454761D01*
X140728571Y-103302380D01*
X140766666Y-103226190D01*
X140842857Y-103150000D01*
X140957142Y-103111904D01*
X141033333Y-103111904D01*
X141147619Y-103150000D01*
X141185714Y-103188095D01*
X141452380Y-103111904D02*
X141947619Y-103111904D01*
X141680952Y-103416666D01*
X141795238Y-103416666D01*
X141871428Y-103454761D01*
X141909523Y-103492857D01*
X141947619Y-103569047D01*
X141947619Y-103759523D01*
X141909523Y-103835714D01*
X141871428Y-103873809D01*
X141795238Y-103911904D01*
X141566666Y-103911904D01*
X141490476Y-103873809D01*
X141452380Y-103835714D01*
X142404761Y-103454761D02*
X142328571Y-103416666D01*
X142290476Y-103378571D01*
X142252380Y-103302380D01*
X142252380Y-103264285D01*
X142290476Y-103188095D01*
X142328571Y-103150000D01*
X142404761Y-103111904D01*
X142557142Y-103111904D01*
X142633333Y-103150000D01*
X142671428Y-103188095D01*
X142709523Y-103264285D01*
X142709523Y-103302380D01*
X142671428Y-103378571D01*
X142633333Y-103416666D01*
X142557142Y-103454761D01*
X142404761Y-103454761D01*
X142328571Y-103492857D01*
X142290476Y-103530952D01*
X142252380Y-103607142D01*
X142252380Y-103759523D01*
X142290476Y-103835714D01*
X142328571Y-103873809D01*
X142404761Y-103911904D01*
X142557142Y-103911904D01*
X142633333Y-103873809D01*
X142671428Y-103835714D01*
X142709523Y-103759523D01*
X142709523Y-103607142D01*
X142671428Y-103530952D01*
X142633333Y-103492857D01*
X142557142Y-103454761D01*
X167325714Y-103775714D02*
X167287619Y-103813809D01*
X167173333Y-103851904D01*
X167097142Y-103851904D01*
X166982857Y-103813809D01*
X166906666Y-103737619D01*
X166868571Y-103661428D01*
X166830476Y-103509047D01*
X166830476Y-103394761D01*
X166868571Y-103242380D01*
X166906666Y-103166190D01*
X166982857Y-103090000D01*
X167097142Y-103051904D01*
X167173333Y-103051904D01*
X167287619Y-103090000D01*
X167325714Y-103128095D01*
X167592380Y-103051904D02*
X168087619Y-103051904D01*
X167820952Y-103356666D01*
X167935238Y-103356666D01*
X168011428Y-103394761D01*
X168049523Y-103432857D01*
X168087619Y-103509047D01*
X168087619Y-103699523D01*
X168049523Y-103775714D01*
X168011428Y-103813809D01*
X167935238Y-103851904D01*
X167706666Y-103851904D01*
X167630476Y-103813809D01*
X167592380Y-103775714D01*
X168468571Y-103851904D02*
X168620952Y-103851904D01*
X168697142Y-103813809D01*
X168735238Y-103775714D01*
X168811428Y-103661428D01*
X168849523Y-103509047D01*
X168849523Y-103204285D01*
X168811428Y-103128095D01*
X168773333Y-103090000D01*
X168697142Y-103051904D01*
X168544761Y-103051904D01*
X168468571Y-103090000D01*
X168430476Y-103128095D01*
X168392380Y-103204285D01*
X168392380Y-103394761D01*
X168430476Y-103470952D01*
X168468571Y-103509047D01*
X168544761Y-103547142D01*
X168697142Y-103547142D01*
X168773333Y-103509047D01*
X168811428Y-103470952D01*
X168849523Y-103394761D01*
X166450476Y-121456904D02*
X166450476Y-122104523D01*
X166488571Y-122180714D01*
X166526666Y-122218809D01*
X166602857Y-122256904D01*
X166755238Y-122256904D01*
X166831428Y-122218809D01*
X166869523Y-122180714D01*
X166907619Y-122104523D01*
X166907619Y-121456904D01*
X167669523Y-121456904D02*
X167288571Y-121456904D01*
X167250476Y-121837857D01*
X167288571Y-121799761D01*
X167364761Y-121761666D01*
X167555238Y-121761666D01*
X167631428Y-121799761D01*
X167669523Y-121837857D01*
X167707619Y-121914047D01*
X167707619Y-122104523D01*
X167669523Y-122180714D01*
X167631428Y-122218809D01*
X167555238Y-122256904D01*
X167364761Y-122256904D01*
X167288571Y-122218809D01*
X167250476Y-122180714D01*
X140200476Y-121631904D02*
X140200476Y-122279523D01*
X140238571Y-122355714D01*
X140276666Y-122393809D01*
X140352857Y-122431904D01*
X140505238Y-122431904D01*
X140581428Y-122393809D01*
X140619523Y-122355714D01*
X140657619Y-122279523D01*
X140657619Y-121631904D01*
X141381428Y-121898571D02*
X141381428Y-122431904D01*
X141190952Y-121593809D02*
X141000476Y-122165238D01*
X141495714Y-122165238D01*
X184451904Y-113480476D02*
X183651904Y-113480476D01*
X183651904Y-113175714D01*
X183690000Y-113099523D01*
X183728095Y-113061428D01*
X183804285Y-113023333D01*
X183918571Y-113023333D01*
X183994761Y-113061428D01*
X184032857Y-113099523D01*
X184070952Y-113175714D01*
X184070952Y-113480476D01*
X183994761Y-112566190D02*
X183956666Y-112642380D01*
X183918571Y-112680476D01*
X183842380Y-112718571D01*
X183804285Y-112718571D01*
X183728095Y-112680476D01*
X183690000Y-112642380D01*
X183651904Y-112566190D01*
X183651904Y-112413809D01*
X183690000Y-112337619D01*
X183728095Y-112299523D01*
X183804285Y-112261428D01*
X183842380Y-112261428D01*
X183918571Y-112299523D01*
X183956666Y-112337619D01*
X183994761Y-112413809D01*
X183994761Y-112566190D01*
X184032857Y-112642380D01*
X184070952Y-112680476D01*
X184147142Y-112718571D01*
X184299523Y-112718571D01*
X184375714Y-112680476D01*
X184413809Y-112642380D01*
X184451904Y-112566190D01*
X184451904Y-112413809D01*
X184413809Y-112337619D01*
X184375714Y-112299523D01*
X184299523Y-112261428D01*
X184147142Y-112261428D01*
X184070952Y-112299523D01*
X184032857Y-112337619D01*
X183994761Y-112413809D01*
X184451904Y-107480476D02*
X183651904Y-107480476D01*
X183651904Y-107175714D01*
X183690000Y-107099523D01*
X183728095Y-107061428D01*
X183804285Y-107023333D01*
X183918571Y-107023333D01*
X183994761Y-107061428D01*
X184032857Y-107099523D01*
X184070952Y-107175714D01*
X184070952Y-107480476D01*
X183651904Y-106756666D02*
X183651904Y-106223333D01*
X184451904Y-106566190D01*
X184451904Y-101480476D02*
X183651904Y-101480476D01*
X183651904Y-101175714D01*
X183690000Y-101099523D01*
X183728095Y-101061428D01*
X183804285Y-101023333D01*
X183918571Y-101023333D01*
X183994761Y-101061428D01*
X184032857Y-101099523D01*
X184070952Y-101175714D01*
X184070952Y-101480476D01*
X183651904Y-100337619D02*
X183651904Y-100490000D01*
X183690000Y-100566190D01*
X183728095Y-100604285D01*
X183842380Y-100680476D01*
X183994761Y-100718571D01*
X184299523Y-100718571D01*
X184375714Y-100680476D01*
X184413809Y-100642380D01*
X184451904Y-100566190D01*
X184451904Y-100413809D01*
X184413809Y-100337619D01*
X184375714Y-100299523D01*
X184299523Y-100261428D01*
X184109047Y-100261428D01*
X184032857Y-100299523D01*
X183994761Y-100337619D01*
X183956666Y-100413809D01*
X183956666Y-100566190D01*
X183994761Y-100642380D01*
X184032857Y-100680476D01*
X184109047Y-100718571D01*
X184421904Y-95520476D02*
X183621904Y-95520476D01*
X183621904Y-95215714D01*
X183660000Y-95139523D01*
X183698095Y-95101428D01*
X183774285Y-95063333D01*
X183888571Y-95063333D01*
X183964761Y-95101428D01*
X184002857Y-95139523D01*
X184040952Y-95215714D01*
X184040952Y-95520476D01*
X183621904Y-94339523D02*
X183621904Y-94720476D01*
X184002857Y-94758571D01*
X183964761Y-94720476D01*
X183926666Y-94644285D01*
X183926666Y-94453809D01*
X183964761Y-94377619D01*
X184002857Y-94339523D01*
X184079047Y-94301428D01*
X184269523Y-94301428D01*
X184345714Y-94339523D01*
X184383809Y-94377619D01*
X184421904Y-94453809D01*
X184421904Y-94644285D01*
X184383809Y-94720476D01*
X184345714Y-94758571D01*
X140823333Y-60881904D02*
X140823333Y-61453333D01*
X140785238Y-61567619D01*
X140709047Y-61643809D01*
X140594761Y-61681904D01*
X140518571Y-61681904D01*
X141204285Y-61681904D02*
X141204285Y-60881904D01*
X141509047Y-60881904D01*
X141585238Y-60920000D01*
X141623333Y-60958095D01*
X141661428Y-61034285D01*
X141661428Y-61148571D01*
X141623333Y-61224761D01*
X141585238Y-61262857D01*
X141509047Y-61300952D01*
X141204285Y-61300952D01*
X142347142Y-60881904D02*
X142194761Y-60881904D01*
X142118571Y-60920000D01*
X142080476Y-60958095D01*
X142004285Y-61072380D01*
X141966190Y-61224761D01*
X141966190Y-61529523D01*
X142004285Y-61605714D01*
X142042380Y-61643809D01*
X142118571Y-61681904D01*
X142270952Y-61681904D01*
X142347142Y-61643809D01*
X142385238Y-61605714D01*
X142423333Y-61529523D01*
X142423333Y-61339047D01*
X142385238Y-61262857D01*
X142347142Y-61224761D01*
X142270952Y-61186666D01*
X142118571Y-61186666D01*
X142042380Y-61224761D01*
X142004285Y-61262857D01*
X141966190Y-61339047D01*
X153263333Y-60881904D02*
X153263333Y-61453333D01*
X153225238Y-61567619D01*
X153149047Y-61643809D01*
X153034761Y-61681904D01*
X152958571Y-61681904D01*
X153644285Y-61681904D02*
X153644285Y-60881904D01*
X153949047Y-60881904D01*
X154025238Y-60920000D01*
X154063333Y-60958095D01*
X154101428Y-61034285D01*
X154101428Y-61148571D01*
X154063333Y-61224761D01*
X154025238Y-61262857D01*
X153949047Y-61300952D01*
X153644285Y-61300952D01*
X154825238Y-60881904D02*
X154444285Y-60881904D01*
X154406190Y-61262857D01*
X154444285Y-61224761D01*
X154520476Y-61186666D01*
X154710952Y-61186666D01*
X154787142Y-61224761D01*
X154825238Y-61262857D01*
X154863333Y-61339047D01*
X154863333Y-61529523D01*
X154825238Y-61605714D01*
X154787142Y-61643809D01*
X154710952Y-61681904D01*
X154520476Y-61681904D01*
X154444285Y-61643809D01*
X154406190Y-61605714D01*
X133708333Y-60911904D02*
X133708333Y-61483333D01*
X133670238Y-61597619D01*
X133594047Y-61673809D01*
X133479761Y-61711904D01*
X133403571Y-61711904D01*
X134089285Y-61711904D02*
X134089285Y-60911904D01*
X134394047Y-60911904D01*
X134470238Y-60950000D01*
X134508333Y-60988095D01*
X134546428Y-61064285D01*
X134546428Y-61178571D01*
X134508333Y-61254761D01*
X134470238Y-61292857D01*
X134394047Y-61330952D01*
X134089285Y-61330952D01*
X135232142Y-61178571D02*
X135232142Y-61711904D01*
X135041666Y-60873809D02*
X134851190Y-61445238D01*
X135346428Y-61445238D01*
X137283333Y-60911904D02*
X137283333Y-61483333D01*
X137245238Y-61597619D01*
X137169047Y-61673809D01*
X137054761Y-61711904D01*
X136978571Y-61711904D01*
X137664285Y-61711904D02*
X137664285Y-60911904D01*
X137969047Y-60911904D01*
X138045238Y-60950000D01*
X138083333Y-60988095D01*
X138121428Y-61064285D01*
X138121428Y-61178571D01*
X138083333Y-61254761D01*
X138045238Y-61292857D01*
X137969047Y-61330952D01*
X137664285Y-61330952D01*
X138388095Y-60911904D02*
X138883333Y-60911904D01*
X138616666Y-61216666D01*
X138730952Y-61216666D01*
X138807142Y-61254761D01*
X138845238Y-61292857D01*
X138883333Y-61369047D01*
X138883333Y-61559523D01*
X138845238Y-61635714D01*
X138807142Y-61673809D01*
X138730952Y-61711904D01*
X138502380Y-61711904D01*
X138426190Y-61673809D01*
X138388095Y-61635714D01*
X146163333Y-60881904D02*
X146163333Y-61453333D01*
X146125238Y-61567619D01*
X146049047Y-61643809D01*
X145934761Y-61681904D01*
X145858571Y-61681904D01*
X146544285Y-61681904D02*
X146544285Y-60881904D01*
X146849047Y-60881904D01*
X146925238Y-60920000D01*
X146963333Y-60958095D01*
X147001428Y-61034285D01*
X147001428Y-61148571D01*
X146963333Y-61224761D01*
X146925238Y-61262857D01*
X146849047Y-61300952D01*
X146544285Y-61300952D01*
X147306190Y-60958095D02*
X147344285Y-60920000D01*
X147420476Y-60881904D01*
X147610952Y-60881904D01*
X147687142Y-60920000D01*
X147725238Y-60958095D01*
X147763333Y-61034285D01*
X147763333Y-61110476D01*
X147725238Y-61224761D01*
X147268095Y-61681904D01*
X147763333Y-61681904D01*
X149738333Y-60881904D02*
X149738333Y-61453333D01*
X149700238Y-61567619D01*
X149624047Y-61643809D01*
X149509761Y-61681904D01*
X149433571Y-61681904D01*
X150119285Y-61681904D02*
X150119285Y-60881904D01*
X150424047Y-60881904D01*
X150500238Y-60920000D01*
X150538333Y-60958095D01*
X150576428Y-61034285D01*
X150576428Y-61148571D01*
X150538333Y-61224761D01*
X150500238Y-61262857D01*
X150424047Y-61300952D01*
X150119285Y-61300952D01*
X151338333Y-61681904D02*
X150881190Y-61681904D01*
X151109761Y-61681904D02*
X151109761Y-60881904D01*
X151033571Y-60996190D01*
X150957380Y-61072380D01*
X150881190Y-61110476D01*
X177001904Y-77331428D02*
X176201904Y-77331428D01*
X176201904Y-77026666D01*
X176240000Y-76950476D01*
X176278095Y-76912380D01*
X176354285Y-76874285D01*
X176468571Y-76874285D01*
X176544761Y-76912380D01*
X176582857Y-76950476D01*
X176620952Y-77026666D01*
X176620952Y-77331428D01*
X177001904Y-76112380D02*
X177001904Y-76569523D01*
X177001904Y-76340952D02*
X176201904Y-76340952D01*
X176316190Y-76417142D01*
X176392380Y-76493333D01*
X176430476Y-76569523D01*
X176201904Y-75426666D02*
X176201904Y-75579047D01*
X176240000Y-75655238D01*
X176278095Y-75693333D01*
X176392380Y-75769523D01*
X176544761Y-75807619D01*
X176849523Y-75807619D01*
X176925714Y-75769523D01*
X176963809Y-75731428D01*
X177001904Y-75655238D01*
X177001904Y-75502857D01*
X176963809Y-75426666D01*
X176925714Y-75388571D01*
X176849523Y-75350476D01*
X176659047Y-75350476D01*
X176582857Y-75388571D01*
X176544761Y-75426666D01*
X176506666Y-75502857D01*
X176506666Y-75655238D01*
X176544761Y-75731428D01*
X176582857Y-75769523D01*
X176659047Y-75807619D01*
X122133333Y-126811904D02*
X122133333Y-127383333D01*
X122095238Y-127497619D01*
X122019047Y-127573809D01*
X121904761Y-127611904D01*
X121828571Y-127611904D01*
X122514285Y-127611904D02*
X122514285Y-126811904D01*
X122819047Y-126811904D01*
X122895238Y-126850000D01*
X122933333Y-126888095D01*
X122971428Y-126964285D01*
X122971428Y-127078571D01*
X122933333Y-127154761D01*
X122895238Y-127192857D01*
X122819047Y-127230952D01*
X122514285Y-127230952D01*
X123238095Y-126811904D02*
X123771428Y-126811904D01*
X123428571Y-127611904D01*
X175722380Y-56309523D02*
X176436666Y-56309523D01*
X176579523Y-56357142D01*
X176674761Y-56452380D01*
X176722380Y-56595238D01*
X176722380Y-56690476D01*
X176722380Y-55833333D02*
X175722380Y-55833333D01*
X175722380Y-55452380D01*
X175770000Y-55357142D01*
X175817619Y-55309523D01*
X175912857Y-55261904D01*
X176055714Y-55261904D01*
X176150952Y-55309523D01*
X176198571Y-55357142D01*
X176246190Y-55452380D01*
X176246190Y-55833333D01*
X176722380Y-54309523D02*
X176722380Y-54880952D01*
X176722380Y-54595238D02*
X175722380Y-54595238D01*
X175865238Y-54690476D01*
X175960476Y-54785714D01*
X176008095Y-54880952D01*
X175817619Y-53928571D02*
X175770000Y-53880952D01*
X175722380Y-53785714D01*
X175722380Y-53547619D01*
X175770000Y-53452380D01*
X175817619Y-53404761D01*
X175912857Y-53357142D01*
X176008095Y-53357142D01*
X176150952Y-53404761D01*
X176722380Y-53976190D01*
X176722380Y-53357142D01*
X181052380Y-56309523D02*
X181766666Y-56309523D01*
X181909523Y-56357142D01*
X182004761Y-56452380D01*
X182052380Y-56595238D01*
X182052380Y-56690476D01*
X182052380Y-55833333D02*
X181052380Y-55833333D01*
X181052380Y-55452380D01*
X181100000Y-55357142D01*
X181147619Y-55309523D01*
X181242857Y-55261904D01*
X181385714Y-55261904D01*
X181480952Y-55309523D01*
X181528571Y-55357142D01*
X181576190Y-55452380D01*
X181576190Y-55833333D01*
X182052380Y-54309523D02*
X182052380Y-54880952D01*
X182052380Y-54595238D02*
X181052380Y-54595238D01*
X181195238Y-54690476D01*
X181290476Y-54785714D01*
X181338095Y-54880952D01*
X182052380Y-53357142D02*
X182052380Y-53928571D01*
X182052380Y-53642857D02*
X181052380Y-53642857D01*
X181195238Y-53738095D01*
X181290476Y-53833333D01*
X181338095Y-53928571D01*
X170422380Y-56339523D02*
X171136666Y-56339523D01*
X171279523Y-56387142D01*
X171374761Y-56482380D01*
X171422380Y-56625238D01*
X171422380Y-56720476D01*
X171422380Y-55863333D02*
X170422380Y-55863333D01*
X170422380Y-55482380D01*
X170470000Y-55387142D01*
X170517619Y-55339523D01*
X170612857Y-55291904D01*
X170755714Y-55291904D01*
X170850952Y-55339523D01*
X170898571Y-55387142D01*
X170946190Y-55482380D01*
X170946190Y-55863333D01*
X171422380Y-54339523D02*
X171422380Y-54910952D01*
X171422380Y-54625238D02*
X170422380Y-54625238D01*
X170565238Y-54720476D01*
X170660476Y-54815714D01*
X170708095Y-54910952D01*
X170422380Y-53720476D02*
X170422380Y-53625238D01*
X170470000Y-53530000D01*
X170517619Y-53482380D01*
X170612857Y-53434761D01*
X170803333Y-53387142D01*
X171041428Y-53387142D01*
X171231904Y-53434761D01*
X171327142Y-53482380D01*
X171374761Y-53530000D01*
X171422380Y-53625238D01*
X171422380Y-53720476D01*
X171374761Y-53815714D01*
X171327142Y-53863333D01*
X171231904Y-53910952D01*
X171041428Y-53958571D01*
X170803333Y-53958571D01*
X170612857Y-53910952D01*
X170517619Y-53863333D01*
X170470000Y-53815714D01*
X170422380Y-53720476D01*
X165182380Y-55833333D02*
X165896666Y-55833333D01*
X166039523Y-55880952D01*
X166134761Y-55976190D01*
X166182380Y-56119047D01*
X166182380Y-56214285D01*
X166182380Y-55357142D02*
X165182380Y-55357142D01*
X165182380Y-54976190D01*
X165230000Y-54880952D01*
X165277619Y-54833333D01*
X165372857Y-54785714D01*
X165515714Y-54785714D01*
X165610952Y-54833333D01*
X165658571Y-54880952D01*
X165706190Y-54976190D01*
X165706190Y-55357142D01*
X166182380Y-54309523D02*
X166182380Y-54119047D01*
X166134761Y-54023809D01*
X166087142Y-53976190D01*
X165944285Y-53880952D01*
X165753809Y-53833333D01*
X165372857Y-53833333D01*
X165277619Y-53880952D01*
X165230000Y-53928571D01*
X165182380Y-54023809D01*
X165182380Y-54214285D01*
X165230000Y-54309523D01*
X165277619Y-54357142D01*
X165372857Y-54404761D01*
X165610952Y-54404761D01*
X165706190Y-54357142D01*
X165753809Y-54309523D01*
X165801428Y-54214285D01*
X165801428Y-54023809D01*
X165753809Y-53928571D01*
X165706190Y-53880952D01*
X165610952Y-53833333D01*
X160122380Y-55843333D02*
X160836666Y-55843333D01*
X160979523Y-55890952D01*
X161074761Y-55986190D01*
X161122380Y-56129047D01*
X161122380Y-56224285D01*
X161122380Y-55367142D02*
X160122380Y-55367142D01*
X160122380Y-54986190D01*
X160170000Y-54890952D01*
X160217619Y-54843333D01*
X160312857Y-54795714D01*
X160455714Y-54795714D01*
X160550952Y-54843333D01*
X160598571Y-54890952D01*
X160646190Y-54986190D01*
X160646190Y-55367142D01*
X160550952Y-54224285D02*
X160503333Y-54319523D01*
X160455714Y-54367142D01*
X160360476Y-54414761D01*
X160312857Y-54414761D01*
X160217619Y-54367142D01*
X160170000Y-54319523D01*
X160122380Y-54224285D01*
X160122380Y-54033809D01*
X160170000Y-53938571D01*
X160217619Y-53890952D01*
X160312857Y-53843333D01*
X160360476Y-53843333D01*
X160455714Y-53890952D01*
X160503333Y-53938571D01*
X160550952Y-54033809D01*
X160550952Y-54224285D01*
X160598571Y-54319523D01*
X160646190Y-54367142D01*
X160741428Y-54414761D01*
X160931904Y-54414761D01*
X161027142Y-54367142D01*
X161074761Y-54319523D01*
X161122380Y-54224285D01*
X161122380Y-54033809D01*
X161074761Y-53938571D01*
X161027142Y-53890952D01*
X160931904Y-53843333D01*
X160741428Y-53843333D01*
X160646190Y-53890952D01*
X160598571Y-53938571D01*
X160550952Y-54033809D01*
M02*
